<svg id="Layer_1" data-name="Layer 1" xmlns="http://www.w3.org/2000/svg" viewBox="0 0 392.954 341"><defs><style>.cls-1,.cls-2{fill:#fff;}.cls-1{fill-rule:evenodd;}</style></defs><title>logo_main</title><path class="cls-1" d="M201.359,201.132c-3.366.286-6.033.352-7.665.355-53.268.108-96.515-43.247-96.515-96.515q0-.641.008-1.281v-1.357h-.008V.024h.009c32.325-.5,112.088,6.539,156.074,67.725a96.563,96.563,0,0,1,11.286,91.907l-.03-.025a59.92,59.92,0,0,1-29.9,32.7,75.94,75.94,0,0,1-9.55,3.973c14.047-53.777-4.315-131.687-85.9-169.127,49.547,30.714,88.683,108.056,62.186,173.957Z"/><path class="cls-2" d="M25.118,272.753c-6.76,0-11.5,2.714-14.8,6.859v-5.626H0V341H10.314V315.635c3.306,4.145,8.044,6.859,14.8,6.859,13.225,0,23.638-10.412,23.638-24.871s-10.412-24.871-23.638-24.871Zm-1.233,9.721c8.883,0,14.261,6.859,14.261,15.15s-5.379,15.15-14.261,15.15c-8.488,0-14.261-6.514-14.261-15.15s5.774-15.15,14.261-15.15Z"/><path class="cls-2" d="M81.67,272.753c-13.916,0-23.539,10.067-23.539,24.871,0,15,9.968,24.871,24.18,24.871,7.155,0,13.669-1.727,19.443-6.662l-5.132-7.353a22.4,22.4,0,0,1-13.669,4.984c-6.662,0-12.732-3.553-14.064-12.041h34.938a31.878,31.878,0,0,0,.2-3.849c0-14.755-9.179-24.822-22.354-24.822Zm-.2,9.179c6.563,0,10.857,4.293,11.992,11.646H68.938c1.036-6.909,5.181-11.646,12.534-11.646Z"/><path class="cls-2" d="M136.939,272.753c-13.916,0-23.539,10.067-23.539,24.871,0,15,9.968,24.871,24.18,24.871,7.155,0,13.669-1.727,19.443-6.662l-5.132-7.353a22.394,22.394,0,0,1-13.669,4.984c-6.662,0-12.731-3.553-14.064-12.041H159.1a31.878,31.878,0,0,0,.2-3.849c0-14.755-9.179-24.822-22.354-24.822Zm-.2,9.179c6.563,0,10.857,4.293,11.992,11.646H124.207c1.036-6.909,5.181-11.646,12.534-11.646Z"/><path class="cls-2" d="M196.008,272.753c-5.774,0-10.56,2.023-13.719,6.563v-5.33H172.074v47.275h10.314V295.255c0-8.093,4.688-12.682,11.251-12.682a18.411,18.411,0,0,1,7.846,1.727l2.468-10.215a20.631,20.631,0,0,0-7.945-1.332Z"/><path class="cls-2" d="M233.956,272.753c-15,0-24.871,10.708-24.871,24.871s9.87,24.871,24.871,24.871c7.106,0,13.324-2.566,17.666-7.55l-6.366-7.106a17.2,17.2,0,0,1-11.6,4.935c-7.945,0-13.965-6.218-13.965-15.15s6.02-15.15,13.965-15.15c4.54,0,7.994,1.727,11.35,4.886l6.613-7.057c-4.194-4.984-10.56-7.55-17.666-7.55Z"/><path class="cls-2" d="M284.192,272.753c-14.607,0-25.414,10.708-25.414,24.871s10.807,24.871,25.414,24.871,25.463-10.708,25.463-24.871-10.856-24.871-25.463-24.871Zm0,9.721c8.439,0,14.854,6.218,14.854,15.15s-6.415,15.15-14.854,15.15-14.8-6.218-14.8-15.15,6.366-15.15,14.8-15.15Z"/><path class="cls-2" d="M332.8,321.261V273.986H322.436v47.275Zm-5.231-70.912a7.113,7.113,0,0,0-7.2,7.3,7,7,0,0,0,7.2,7.2,7.113,7.113,0,0,0,7.3-7.2,7.225,7.225,0,0,0-7.3-7.3Z"/><path class="cls-2" d="M373.758,272.753c-4.836,0-10.709,1.48-14.508,7.007v-5.774H348.985v47.275h10.363v-26.2c0-8.093,5.576-12.485,12.238-12.485,6.958,0,11,4.441,11,12.386v26.3h10.363V291.554c0-11.054-7.945-18.8-19.2-18.8Z"/></svg>