<svg id="Layer_1" data-name="Layer 1" xmlns="http://www.w3.org/2000/svg" xmlns:xlink="http://www.w3.org/1999/xlink" viewBox="0 0 217.358 45"><defs><style>.cls-1{fill:none;clip-rule:evenodd;}.cls-2{clip-path:url(#clip-path);}.cls-3,.cls-4{fill:#fff;}.cls-3{fill-rule:evenodd;}</style><clipPath id="clip-path"><polygon class="cls-1" points="217.358 0 0 0 0 45 217.358 45 217.358 0 217.358 0"/></clipPath></defs><title>icon</title><g class="cls-2"><path class="cls-3" d="M23.242,44.87c-.751.064-1.346.078-1.71.079A21.526,21.526,0,0,1,0,23.418q0-.143,0-.286v-.3H0V.005H0C7.213-.107,25.007,1.464,34.82,15.114a21.542,21.542,0,0,1,2.518,20.5l-.007-.006a13.367,13.367,0,0,1-6.67,7.295,16.991,16.991,0,0,1-2.13.886c3.134-12-.963-29.378-19.163-37.73C20.422,12.914,29.153,30.169,23.242,44.87Z"/><path class="cls-4" d="M67.443,11.521a7.31,7.31,0,0,0-6.034,2.8V12.024h-4.2V39.336h4.2V29a7.31,7.31,0,0,0,6.034,2.8c5.39,0,9.634-4.244,9.634-10.137s-4.244-10.136-9.634-10.136Zm-.5,3.962c3.62,0,5.812,2.8,5.812,6.174s-2.192,6.174-5.812,6.174c-3.459,0-5.812-2.655-5.812-6.174s2.353-6.174,5.812-6.174Z"/><path class="cls-4" d="M90.492,11.521c-5.672,0-9.593,4.1-9.593,10.136,0,6.114,4.063,10.137,9.855,10.137a11.607,11.607,0,0,0,7.924-2.715l-2.092-3a9.128,9.128,0,0,1-5.571,2.031,5.443,5.443,0,0,1-5.732-4.907H99.522a13,13,0,0,0,.08-1.569c0-6.014-3.741-10.116-9.111-10.116Zm-.08,3.741c2.675,0,4.425,1.75,4.887,4.746h-10c.422-2.816,2.112-4.746,5.108-4.746Z"/><path class="cls-4" d="M113.017,11.521c-5.672,0-9.593,4.1-9.593,10.136,0,6.114,4.063,10.137,9.855,10.137a11.607,11.607,0,0,0,7.924-2.715l-2.092-3a9.128,9.128,0,0,1-5.571,2.031,5.443,5.443,0,0,1-5.732-4.907h14.239a12.965,12.965,0,0,0,.08-1.569c0-6.014-3.741-10.116-9.111-10.116Zm-.08,3.741c2.675,0,4.425,1.75,4.887,4.746h-10c.422-2.816,2.112-4.746,5.108-4.746Z"/><path class="cls-4" d="M137.091,11.521A6.411,6.411,0,0,0,131.5,14.2V12.024h-4.163V31.291h4.2v-10.6c0-3.3,1.911-5.169,4.586-5.169a7.5,7.5,0,0,1,3.2.7l1.006-4.163a8.408,8.408,0,0,0-3.238-.543Z"/><path class="cls-4" d="M152.557,11.521a9.725,9.725,0,0,0-10.136,10.136,9.725,9.725,0,0,0,10.136,10.137,9.275,9.275,0,0,0,7.2-3.077l-2.595-2.9a7.011,7.011,0,0,1-4.726,2.011c-3.238,0-5.692-2.534-5.692-6.174s2.454-6.174,5.692-6.174a6.414,6.414,0,0,1,4.626,1.991l2.7-2.876a9.187,9.187,0,0,0-7.2-3.077Z"/><path class="cls-4" d="M173.032,11.521a10,10,0,0,0-10.358,10.136,10.37,10.37,0,0,0,20.735,0,10.016,10.016,0,0,0-10.378-10.136Zm0,3.962a5.918,5.918,0,0,1,6.054,6.174,6.045,6.045,0,1,1-12.087,0,5.9,5.9,0,0,1,6.034-6.174Z"/><path class="cls-4" d="M192.842,31.291V12.024h-4.224V31.291ZM190.71,2.39a2.9,2.9,0,0,0-2.936,2.977A2.854,2.854,0,0,0,190.71,8.3a2.9,2.9,0,0,0,2.977-2.936A2.945,2.945,0,0,0,190.71,2.39Z"/><path class="cls-4" d="M209.535,11.521a6.886,6.886,0,0,0-5.913,2.856V12.024h-4.183V31.291h4.224V20.612a4.774,4.774,0,0,1,4.988-5.088c2.836,0,4.485,1.81,4.485,5.048v10.72h4.224V19.184a7.424,7.424,0,0,0-7.824-7.663Z"/></g></svg>