<svg clip-rule="evenodd" fill-rule="evenodd" stroke-linejoin="round" stroke-miterlimit="1.41421" viewBox="0 0 1280 1280" xmlns="http://www.w3.org/2000/svg"><path d="m0 0h1280v1280h-1280z" fill="none"/><path d="m0 0h1280v1280h-1280z" fill="#fff"/><path d="m1970 10850c353.23 0 640 286.8 640 640s-286.77 640-640 640-640-286.8-640-640 286.77-640 640-640zm86.99 979.8c-11.4 1-20.43 1.2-25.95 1.2-180.34.4-326.75-146.4-326.75-326.8 0-1.4.01-2.9.03-4.3v-4.6h-.03v-346.4h.03c109.44-1.7 379.47 22.2 528.38 229.3 38.56 53.7 61.27 119.4 61.27 190.4 0 42.7-8.18 83.4-23.06 120.8l-.1-.1c-9.55 25.3-34.95 77.5-101.21 110.7-10.67 5.3-21.56 9.8-32.33 13.4 47.55-182-14.61-445.8-290.81-572.5 167.74 103.9 300.23 365.8 210.53 588.9z" fill="#3cb054" transform="translate(-1330 -10850)"/></svg>