<?xml version="1.0" encoding="UTF-8" standalone="no"?>
<!DOCTYPE svg PUBLIC "-//W3C//DTD SVG 1.1//EN" "http://www.w3.org/Graphics/SVG/1.1/DTD/svg11.dtd">
<svg width="100%" height="100%" viewBox="0 0 1280 1280" version="1.1" xmlns="http://www.w3.org/2000/svg" xmlns:xlink="http://www.w3.org/1999/xlink" xml:space="preserve" xmlns:serif="http://www.serif.com/" style="fill-rule:evenodd;clip-rule:evenodd;stroke-linejoin:round;stroke-miterlimit:1.41421;">
    <g transform="matrix(1,0,0,1,0,-10850)">
        <g id="peercoin-icon-green-transparent" transform="matrix(1,0,0,1,0,10850)">
            <rect x="0" y="0" width="1280" height="1280" style="fill:none;"/>
            <g transform="matrix(3.29432,0,0,3.29432,-1468.37,-1115.8)">
                <g transform="matrix(2.36264,-9.86076e-32,-9.86076e-32,2.36264,-224.625,-589.055)">
                    <circle cx="365.958" cy="474.907" r="82.228" style="fill:rgb(60,176,84);"/>
                </g>
                <g transform="matrix(0.85076,0,0,0.85076,116.902,-212.09)">
                    <path d="M645.897,997.002C641.831,997.347 638.609,997.427 636.638,997.431C572.294,997.561 520.054,945.191 520.054,880.846C520.054,880.329 520.057,879.814 520.064,879.299L520.064,877.66L520.054,877.66L520.054,754.075L520.064,754.075L520.064,754.075L520.064,754.075C559.111,753.466 655.459,761.973 708.592,835.882C722.349,855.018 730.454,878.484 730.454,903.828C730.454,919.039 727.534,933.573 722.225,946.9L722.189,946.87C718.783,955.903 709.72,974.515 686.076,986.369C682.271,988.276 678.386,989.858 674.54,991.168C691.509,926.208 669.328,832.097 570.781,786.872C630.63,823.973 677.905,917.397 645.897,997.002Z" style="fill:white;"/>
                </g>
            </g>
        </g>
    </g>
</svg>
