<?xml version="1.0" encoding="UTF-8" standalone="no"?>
<!DOCTYPE svg PUBLIC "-//W3C//DTD SVG 1.1//EN" "http://www.w3.org/Graphics/SVG/1.1/DTD/svg11.dtd">
<svg width="100%" height="100%" viewBox="0 0 1280 296" version="1.1" xmlns="http://www.w3.org/2000/svg" xmlns:xlink="http://www.w3.org/1999/xlink" xml:space="preserve" xmlns:serif="http://www.serif.com/" style="fill-rule:evenodd;clip-rule:evenodd;stroke-linejoin:round;stroke-miterlimit:1.41421;">
    <g transform="matrix(1,0,0,1,-2660,-2016)">
        <g id="peercoin-text-green-transparent" transform="matrix(1,0,0,0.23125,2660,2016)">
            <rect x="0" y="0" width="1280" height="1280" style="fill:none;"/>
            <clipPath id="_clip1">
                <rect x="0" y="0" width="1280" height="1280"/>
            </clipPath>
            <g clip-path="url(#_clip1)">
                <g transform="matrix(26.7906,0,0,116.131,-13365.7,-134837)">
                    <path d="M501.951,1163.79C501.129,1163.79 500.553,1164.12 500.151,1164.63L500.151,1163.94L498.897,1163.94L498.897,1172.09L500.151,1172.09L500.151,1169.01C500.553,1169.51 501.129,1169.84 501.951,1169.84C503.559,1169.84 504.825,1168.58 504.825,1166.82C504.825,1165.06 503.559,1163.79 501.951,1163.79ZM501.801,1164.98C502.881,1164.98 503.535,1165.81 503.535,1166.82C503.535,1167.83 502.881,1168.66 501.801,1168.66C500.769,1168.66 500.067,1167.87 500.067,1166.82C500.067,1165.77 500.769,1164.98 501.801,1164.98Z" style="fill:rgb(60,176,84);fill-rule:nonzero;"/>
                    <path d="M508.827,1163.79C507.135,1163.79 505.965,1165.02 505.965,1166.82C505.965,1168.64 507.177,1169.84 508.905,1169.84C509.775,1169.84 510.567,1169.63 511.269,1169.03L510.645,1168.14C510.165,1168.52 509.559,1168.74 508.983,1168.74C508.173,1168.74 507.435,1168.31 507.273,1167.28L511.521,1167.28C511.539,1167.14 511.545,1166.97 511.545,1166.81C511.545,1165.02 510.429,1163.79 508.827,1163.79ZM508.803,1164.91C509.601,1164.91 510.123,1165.43 510.261,1166.33L507.279,1166.33C507.405,1165.49 507.909,1164.91 508.803,1164.91Z" style="fill:rgb(60,176,84);fill-rule:nonzero;"/>
                    <path d="M515.547,1163.79C513.855,1163.79 512.685,1165.02 512.685,1166.82C512.685,1168.64 513.897,1169.84 515.625,1169.84C516.495,1169.84 517.287,1169.63 517.989,1169.03L517.365,1168.14C516.885,1168.52 516.279,1168.74 515.703,1168.74C514.893,1168.74 514.155,1168.31 513.993,1167.28L518.241,1167.28C518.259,1167.14 518.265,1166.97 518.265,1166.81C518.265,1165.02 517.149,1163.79 515.547,1163.79ZM515.523,1164.91C516.321,1164.91 516.843,1165.43 516.981,1166.33L513.999,1166.33C514.125,1165.49 514.629,1164.91 515.523,1164.91Z" style="fill:rgb(60,176,84);fill-rule:nonzero;"/>
                    <path d="M522.729,1163.79C522.027,1163.79 521.445,1164.04 521.061,1164.59L521.061,1163.94L519.819,1163.94L519.819,1169.69L521.073,1169.69L521.073,1166.53C521.073,1165.55 521.643,1164.99 522.441,1164.99C522.747,1164.99 523.131,1165.06 523.395,1165.2L523.695,1163.96C523.407,1163.84 523.113,1163.79 522.729,1163.79Z" style="fill:rgb(60,176,84);fill-rule:nonzero;"/>
                    <path d="M527.343,1163.79C525.519,1163.79 524.319,1165.1 524.319,1166.82C524.319,1168.54 525.519,1169.84 527.343,1169.84C528.207,1169.84 528.963,1169.53 529.491,1168.92L528.717,1168.06C528.351,1168.4 527.859,1168.66 527.307,1168.66C526.341,1168.66 525.609,1167.9 525.609,1166.82C525.609,1165.73 526.341,1164.98 527.307,1164.98C527.859,1164.98 528.279,1165.19 528.687,1165.57L529.491,1164.71C528.981,1164.11 528.207,1163.79 527.343,1163.79Z" style="fill:rgb(60,176,84);fill-rule:nonzero;"/>
                    <path d="M533.451,1163.79C531.675,1163.79 530.361,1165.1 530.361,1166.82C530.361,1168.54 531.675,1169.84 533.451,1169.84C535.227,1169.84 536.547,1168.54 536.547,1166.82C536.547,1165.1 535.227,1163.79 533.451,1163.79ZM533.451,1164.98C534.477,1164.98 535.257,1165.73 535.257,1166.82C535.257,1167.9 534.477,1168.66 533.451,1168.66C532.425,1168.66 531.651,1167.9 531.651,1166.82C531.651,1165.73 532.425,1164.98 533.451,1164.98Z" style="fill:rgb(60,176,84);fill-rule:nonzero;"/>
                    <path d="M539.361,1169.69L539.361,1163.94L538.101,1163.94L538.101,1169.69L539.361,1169.69ZM538.725,1161.07C538.221,1161.07 537.849,1161.46 537.849,1161.96C537.849,1162.46 538.221,1162.83 538.725,1162.83C539.223,1162.83 539.613,1162.46 539.613,1161.96C539.613,1161.46 539.223,1161.07 538.725,1161.07Z" style="fill:rgb(60,176,84);fill-rule:nonzero;"/>
                    <path d="M544.341,1163.79C543.753,1163.79 543.039,1163.97 542.577,1164.65L542.577,1163.94L541.329,1163.94L541.329,1169.69L542.589,1169.69L542.589,1166.51C542.589,1165.52 543.267,1164.99 544.077,1164.99C544.923,1164.99 545.415,1165.53 545.415,1166.49L545.415,1169.69L546.675,1169.69L546.675,1166.08C546.675,1164.74 545.709,1163.79 544.341,1163.79Z" style="fill:rgb(60,176,84);fill-rule:nonzero;"/>
                </g>
            </g>
        </g>
    </g>
</svg>
