<svg xmlns="http://www.w3.org/2000/svg" viewBox="0 0 1153.18 1229.41"><defs><style>.cls-1,.cls-2{fill:#3cb054;}.cls-2,.cls-3{fill-rule:evenodd;}.cls-3{fill:#fff;}</style></defs><g id="Layer_2" data-name="Layer 2"><g id="Layer_1-2" data-name="Layer 1"><path class="cls-1" d="M0,1229.41v-203.9H91.17q30.87,0,49.52,17.77T159.33,1089q0,27.09-18.64,44.86t-49.52,17.77H35v77.77Zm85.93-174.48H35v68.16H85.64q18.35,0,28.4-9.47t10-24.9q0-14.85-9.91-24.32T85.93,1054.93Z"/><path class="cls-1" d="M311.38,1207.85a97,97,0,0,1-27.24,16.31,86,86,0,0,1-30.73,5.25,73.62,73.62,0,0,1-29.12-5.83,71.29,71.29,0,0,1-23.6-16,77.59,77.59,0,0,1-21.55-53.89,81.38,81.38,0,0,1,5.39-29.85,73.11,73.11,0,0,1,14.85-23.89,69.42,69.42,0,0,1,50.83-21.7,66.44,66.44,0,0,1,49.37,21.27A72,72,0,0,1,314,1123.23a84.36,84.36,0,0,1,5.24,30.15v8.16H211.47a45.81,45.81,0,0,0,14.71,28.54,41.46,41.46,0,0,0,29,11.36,51.94,51.94,0,0,0,19.37-3.64,42.11,42.11,0,0,0,15.29-10ZM249.92,1105a34.25,34.25,0,0,0-24.76,9.9q-10.2,9.91-13.11,26.51h76q-2.93-16-13.26-26.22A34.2,34.2,0,0,0,249.92,1105Z"/><path class="cls-1" d="M479.15,1207.85a96.82,96.82,0,0,1-27.23,16.31,86.05,86.05,0,0,1-30.73,5.25,73.67,73.67,0,0,1-29.13-5.83,71.35,71.35,0,0,1-23.59-16,77.66,77.66,0,0,1-21.56-53.89,81.59,81.59,0,0,1,5.39-29.85,73,73,0,0,1,14.86-23.89,69.42,69.42,0,0,1,50.82-21.7,66.49,66.49,0,0,1,49.38,21.27,72.2,72.2,0,0,1,14.42,23.73,84.58,84.58,0,0,1,5.24,30.15v8.16H379.24A45.91,45.91,0,0,0,394,1190.08a41.5,41.5,0,0,0,29,11.36,52,52,0,0,0,19.37-3.64,42.28,42.28,0,0,0,15.29-10ZM417.69,1105a34.27,34.27,0,0,0-24.76,9.9q-10.2,9.91-13.1,26.51h76q-2.91-16-13.25-26.22A34.23,34.23,0,0,0,417.69,1105Z"/><path class="cls-1" d="M520.52,1229.41V1083.48h32.91v31.75q5.82-16.61,16.17-25.49a35.76,35.76,0,0,1,24-8.89,69.57,69.57,0,0,1,7.28.88,39.7,39.7,0,0,1,7,2v28.83a35.92,35.92,0,0,0-8.59-2.62,53.22,53.22,0,0,0-9.47-.87,37.52,37.52,0,0,0-21.26,6.41,43.9,43.9,0,0,0-15.15,17.76v96.13Z"/><path class="cls-1" d="M697,1200.28a47.81,47.81,0,0,0,19.66-4.08,41.79,41.79,0,0,0,15.59-11.94l19.8,19.81a73.23,73.23,0,0,1-25.34,18.49,76.31,76.31,0,0,1-31.75,6.85,72.63,72.63,0,0,1-29-5.83,71.79,71.79,0,0,1-23.45-16A74.47,74.47,0,0,1,627,1183.38a78.09,78.09,0,0,1-5.68-29.71,77,77,0,0,1,5.68-29.56,71.89,71.89,0,0,1,39-39.76,72.63,72.63,0,0,1,29-5.83,82.5,82.5,0,0,1,32.19,6.41A74.23,74.23,0,0,1,753.25,1103l-20.39,21.27A52.62,52.62,0,0,0,716,1111.44a46.17,46.17,0,0,0-19.81-4.37q-17.48,0-29.71,13.54t-12.24,33.06q0,19.82,12.24,33.21A39.69,39.69,0,0,0,697,1200.28Z"/><path class="cls-1" d="M769.27,1153.67a77.78,77.78,0,0,1,5.68-29.85,74.51,74.51,0,0,1,15.44-23.89,71.24,71.24,0,0,1,23.3-15.87,75.32,75.32,0,0,1,58.11,0,73.41,73.41,0,0,1,23.3,15.87,71.46,71.46,0,0,1,15.44,23.89,82.65,82.65,0,0,1-.14,59.86,74.24,74.24,0,0,1-15.44,24,71.39,71.39,0,0,1-23.31,15.87,74.94,74.94,0,0,1-58,0,70.12,70.12,0,0,1-23.3-16,76,76,0,0,1-15.44-24A77.75,77.75,0,0,1,769.27,1153.67Zm73.4,47.19a36.89,36.89,0,0,0,29.28-13.4q11.5-13.39,11.5-33.49,0-20.68-11.65-34.09t-29.13-13.39a36.92,36.92,0,0,0-29.27,13.39q-11.5,13.41-11.51,34.09,0,20.38,11.51,33.64T842.67,1200.86Z"/><path class="cls-1" d="M966.46,1053.76a19.83,19.83,0,0,1-14.41-5.82,19.13,19.13,0,0,1-6-14.27,20.88,20.88,0,0,1,20.38-20.39,19.91,19.91,0,0,1,14.57,6.11,19.57,19.57,0,0,1,6.12,14.28,19.17,19.17,0,0,1-6,14.27A20.21,20.21,0,0,1,966.46,1053.76Zm16.61,29.72v145.93H950.15V1083.48Z"/><path class="cls-1" d="M1023.56,1229.41V1083.48h32.91v23.88a57.13,57.13,0,0,1,20-19.51,52.41,52.41,0,0,1,26.36-6.7q22.14,0,36.27,14.71t14.13,37.42v96.13h-32.92v-86.8q0-15.73-8.74-25.35t-23.3-9.61a35.84,35.84,0,0,0-17.91,4.52,41.59,41.59,0,0,0-13.84,13v104.28Z"/><path class="cls-2" d="M576.59,0c262.35,0,475.35,213,475.35,475.36s-213,475.35-475.35,475.35-475.36-213-475.36-475.35S314.23,0,576.59,0Z"/><path class="cls-3" d="M641.2,727.73c-8.47.72-15.17.88-19.28.89C488,728.89,379.23,619.88,379.23,485.93c0-1.07,0-2.15,0-3.22V479.3h0V222h0c81.29-1.27,281.85,16.44,392.46,170.29a242.79,242.79,0,0,1,28.38,231.1l-.08-.06c-7.09,18.81-26,57.55-75.17,82.22a190.66,190.66,0,0,1-24,10c35.33-135.23-10.85-331.14-216-425.28C609.42,367.54,707.83,562,641.2,727.73Z"/></g></g></svg>