<svg xmlns="http://www.w3.org/2000/svg" viewBox="0 0 1231.93 264.7"><defs><style>.cls-1,.cls-2{fill:#fff;}.cls-1{fill-rule:evenodd;}</style></defs><g id="Layer_2" data-name="Layer 2"><g id="Layer_1-2" data-name="Layer 1"><path class="cls-1" d="M136.87,264.24c-4.42.37-7.93.46-10.07.46C56.82,264.85,0,207.89,0,137.91c0-.56,0-1.13,0-1.69v-1.78H0V0H0c42.47-.66,147.26,8.59,205,89a126.86,126.86,0,0,1,14.83,120.75l0,0c-3.7,9.83-13.56,30.07-39.27,43A98.68,98.68,0,0,1,168,257.89c18.45-70.65-5.67-173-112.85-222.19,65.09,40.35,116.51,142,81.7,228.54Z"/><path class="cls-2" d="M336.08,215.17V56.77h70.83q24,0,38.47,13.81t14.48,35.52q0,21-14.48,34.85t-38.47,13.8H363.24v60.42ZM402.84,79.63h-39.6v53h39.37q14.25,0,22.06-7.36t7.81-19.34q0-11.55-7.69-18.9T402.84,79.63Z"/><path class="cls-2" d="M578,200.69a75.22,75.22,0,0,1-21.16,12.67A66.8,66.8,0,0,1,533,217.44a57.3,57.3,0,0,1-22.63-4.53A55.49,55.49,0,0,1,492,200.46a60.25,60.25,0,0,1-16.74-41.86,63.35,63.35,0,0,1,4.18-23.19A56.83,56.83,0,0,1,491,116.85a53.92,53.92,0,0,1,17.54-12.33,53.37,53.37,0,0,1,22-4.53,51.72,51.72,0,0,1,38.35,16.52A56,56,0,0,1,580,135a65.75,65.75,0,0,1,4.07,23.43v6.33H500.36a35.7,35.7,0,0,0,11.43,22.18,32.26,32.26,0,0,0,22.52,8.82,40.29,40.29,0,0,0,15-2.83,32.7,32.7,0,0,0,11.88-7.8Zm-47.75-79.88a26.58,26.58,0,0,0-19.23,7.7q-7.92,7.69-10.18,20.59h59.06q-2.26-12.45-10.3-20.37A26.58,26.58,0,0,0,530.23,120.81Z"/><path class="cls-2" d="M708.32,200.69a75.36,75.36,0,0,1-21.16,12.67,66.84,66.84,0,0,1-23.87,4.08,57.3,57.3,0,0,1-22.63-4.53,55.28,55.28,0,0,1-18.33-12.45,60.32,60.32,0,0,1-16.75-41.86,63.35,63.35,0,0,1,4.19-23.19,56.83,56.83,0,0,1,11.54-18.56,53.92,53.92,0,0,1,17.54-12.33A53.37,53.37,0,0,1,660.8,100a51.72,51.72,0,0,1,38.35,16.52A56,56,0,0,1,710.35,135a65.53,65.53,0,0,1,4.08,23.43v6.33H630.7a35.66,35.66,0,0,0,11.43,22.18,32.25,32.25,0,0,0,22.51,8.82,40.34,40.34,0,0,0,15.05-2.83,32.87,32.87,0,0,0,11.88-7.8Zm-47.75-79.88a26.58,26.58,0,0,0-19.23,7.7q-7.94,7.69-10.19,20.59h59.06q-2.26-12.45-10.29-20.37A26.58,26.58,0,0,0,660.57,120.81Z"/><path class="cls-2" d="M740.45,215.17V101.8H766v24.67q4.51-12.9,12.56-19.8a27.76,27.76,0,0,1,18.67-6.9,53.12,53.12,0,0,1,5.65.68,30.58,30.58,0,0,1,5.43,1.58v22.4a27.77,27.77,0,0,0-6.67-2,40.4,40.4,0,0,0-7.36-.68,29.1,29.1,0,0,0-16.51,5A34,34,0,0,0,766,140.5v74.67Z"/><path class="cls-2" d="M877.58,194.81a37.19,37.19,0,0,0,15.27-3.17A32.44,32.44,0,0,0,905,182.36l15.38,15.39a57,57,0,0,1-19.68,14.37A59.35,59.35,0,0,1,876,217.44a56.44,56.44,0,0,1-22.51-4.53,55.75,55.75,0,0,1-18.22-12.45,57.74,57.74,0,0,1-12.1-18.78,60.56,60.56,0,0,1-4.42-23.08,59.75,59.75,0,0,1,4.42-23A56.65,56.65,0,0,1,876,100.22a64.06,64.06,0,0,1,25,5,57.48,57.48,0,0,1,20.25,14l-15.84,16.52a40.9,40.9,0,0,0-13.12-10,35.9,35.9,0,0,0-15.39-3.39q-13.57,0-23.08,10.52t-9.51,25.68q0,15.39,9.51,25.8A30.82,30.82,0,0,0,877.58,194.81Z"/><path class="cls-2" d="M933.69,158.6a60.5,60.5,0,0,1,4.42-23.19,57.74,57.74,0,0,1,12-18.56,55.57,55.57,0,0,1,18.1-12.33,58.52,58.52,0,0,1,45.15,0,57.32,57.32,0,0,1,18.1,12.33,55.49,55.49,0,0,1,12,18.56,64.24,64.24,0,0,1-.11,46.5,57.65,57.65,0,0,1-12,18.67,55.61,55.61,0,0,1-18.11,12.33,58.22,58.22,0,0,1-45,0,54.52,54.52,0,0,1-18.1-12.45,58.9,58.9,0,0,1-12-18.67A60.46,60.46,0,0,1,933.69,158.6Zm57,36.66a28.66,28.66,0,0,0,22.74-10.41q8.94-10.41,8.94-26,0-16.07-9-26.48a29.92,29.92,0,0,0-45.37,0Q959,142.76,959,158.83,959,174.67,968,185A28.75,28.75,0,0,0,990.72,195.26Z"/><path class="cls-2" d="M1086.89,78.72a15.42,15.42,0,0,1-11.2-4.52,14.87,14.87,0,0,1-4.64-11.09,16.23,16.23,0,0,1,15.84-15.84A15.44,15.44,0,0,1,1098.2,52,15.2,15.2,0,0,1,1103,63.11a14.9,14.9,0,0,1-4.64,11.09A15.7,15.7,0,0,1,1086.89,78.72Zm12.89,23.08V215.17h-25.57V101.8Z"/><path class="cls-2" d="M1131.24,215.17V101.8h25.57v18.56a44.31,44.31,0,0,1,15.5-15.16,40.72,40.72,0,0,1,20.48-5.21q17.19,0,28.17,11.43t11,29.08v74.67h-25.57V147.74q0-12.23-6.78-19.69t-18.11-7.46a27.88,27.88,0,0,0-13.91,3.5,32.39,32.39,0,0,0-10.75,10.07v81Z"/></g></g></svg>