<svg xmlns="http://www.w3.org/2000/svg" viewBox="0 0 1230.01 340.74"><defs><style>.cls-1{fill:#3cb054;}.cls-1,.cls-2{fill-rule:evenodd;}.cls-2,.cls-3{fill:#fff;}</style></defs><g id="Layer_2" data-name="Layer 2"><g id="Layer_1-2" data-name="Layer 1"><path class="cls-1" d="M170.37,0c94,0,170.37,76.34,170.37,170.37S264.4,340.74,170.37,340.74,0,264.4,0,170.37,76.34,0,170.37,0Z"/><path class="cls-2" d="M193.59,261c-3,.26-5.44.32-6.91.32a87,87,0,0,1-87-87v-2.38h0V79.58h0c29.16-.46,101.09,5.9,140.76,61.08a87.09,87.09,0,0,1,10.18,82.88l0,0a54,54,0,0,1-27,29.49,69.44,69.44,0,0,1-8.61,3.58c12.66-48.5-3.9-118.76-77.47-152.53,44.68,27.7,80,97.46,56.08,156.89Z"/><path class="cls-3" d="M440.15,244.39V104.73H502.6q21.15,0,33.92,12.17t12.77,31.32q0,18.56-12.77,30.73T502.6,191.12H464.1v53.27ZM499,124.88H464.1v46.69h34.71q12.57,0,19.45-6.49T525.15,148q0-10.17-6.79-16.66T499,124.88Z"/><path class="cls-3" d="M653.43,229.62a66.58,66.58,0,0,1-18.65,11.18,59.11,59.11,0,0,1-21,3.59,50.41,50.41,0,0,1-20-4,48.83,48.83,0,0,1-16.16-11,53.13,53.13,0,0,1-14.77-36.91,55.9,55.9,0,0,1,3.69-20.45,50,50,0,0,1,10.18-16.36,47.61,47.61,0,0,1,15.46-10.87,47.13,47.13,0,0,1,19.35-4,45.54,45.54,0,0,1,33.82,14.56,49.6,49.6,0,0,1,9.88,16.26,58,58,0,0,1,3.59,20.65v5.59H585a31.39,31.39,0,0,0,10.07,19.55,28.41,28.41,0,0,0,19.85,7.78,35.68,35.68,0,0,0,13.27-2.49,29.16,29.16,0,0,0,10.48-6.88Zm-42.1-70.42a23.42,23.42,0,0,0-17,6.78q-7,6.78-9,18.15h52.07a32.72,32.72,0,0,0-9.08-17.95A23.4,23.4,0,0,0,611.33,159.2Z"/><path class="cls-3" d="M768.35,229.62a66.48,66.48,0,0,1-18.66,11.18,59.07,59.07,0,0,1-21.05,3.59,50.41,50.41,0,0,1-19.95-4,48.93,48.93,0,0,1-16.16-11,53.18,53.18,0,0,1-14.76-36.91,55.9,55.9,0,0,1,3.69-20.45,50.17,50.17,0,0,1,10.17-16.36,47.65,47.65,0,0,1,15.47-10.87,47.07,47.07,0,0,1,19.35-4,45.59,45.59,0,0,1,33.82,14.56,49.41,49.41,0,0,1,9.87,16.26,57.73,57.73,0,0,1,3.59,20.65v5.59H699.91A31.4,31.4,0,0,0,710,217.45a28.41,28.41,0,0,0,19.85,7.78,35.68,35.68,0,0,0,13.27-2.49,29,29,0,0,0,10.47-6.88Zm-42.1-70.42a23.45,23.45,0,0,0-17,6.78q-7,6.78-9,18.15h52.08a32.78,32.78,0,0,0-9.08-17.95A23.4,23.4,0,0,0,726.25,159.2Z"/><path class="cls-3" d="M796.68,244.39v-100h22.54v21.75q4-11.37,11.07-17.46a24.52,24.52,0,0,1,16.46-6.08,47.68,47.68,0,0,1,5,.59,27.77,27.77,0,0,1,4.79,1.4v19.75a24.83,24.83,0,0,0-5.89-1.79,36,36,0,0,0-6.48-.6,25.66,25.66,0,0,0-14.56,4.39,30.12,30.12,0,0,0-10.38,12.17v65.84Z"/><path class="cls-3" d="M917.58,224.44a32.67,32.67,0,0,0,13.47-2.8,28.56,28.56,0,0,0,10.67-8.18L955.29,227a50.3,50.3,0,0,1-17.36,12.67,52.31,52.31,0,0,1-21.75,4.69,49.8,49.8,0,0,1-35.91-15,50.9,50.9,0,0,1-10.67-16.56,53.38,53.38,0,0,1-3.89-20.35,52.69,52.69,0,0,1,3.89-20.25A49.24,49.24,0,0,1,896.33,145a49.72,49.72,0,0,1,19.85-4,56.57,56.57,0,0,1,22.05,4.39,50.82,50.82,0,0,1,17.86,12.37l-14,14.56a36.38,36.38,0,0,0-11.57-8.78,31.67,31.67,0,0,0-13.57-3q-12,0-20.35,9.28t-8.38,22.64q0,13.58,8.38,22.75A27.19,27.19,0,0,0,917.58,224.44Z"/><path class="cls-3" d="M967.06,192.51A53.42,53.42,0,0,1,971,172.06a51,51,0,0,1,10.57-16.36,49.12,49.12,0,0,1,16-10.87,51.65,51.65,0,0,1,39.81,0,50.65,50.65,0,0,1,16,10.87,49,49,0,0,1,10.57,16.36,56.64,56.64,0,0,1-.1,41,50.72,50.72,0,0,1-10.57,16.46,49,49,0,0,1-16,10.88,51.4,51.4,0,0,1-39.71,0,48.18,48.18,0,0,1-16-11A52,52,0,0,1,971,213,53.34,53.34,0,0,1,967.06,192.51Zm50.28,32.33a25.28,25.28,0,0,0,20.05-9.18q7.88-9.18,7.88-22.95,0-14.16-8-23.34a26.39,26.39,0,0,0-40,0q-7.87,9.18-7.88,23.34,0,14,7.88,23A25.41,25.41,0,0,0,1017.34,224.84Z"/><path class="cls-3" d="M1102.13,124.08a13.62,13.62,0,0,1-9.88-4,13.1,13.1,0,0,1-4.09-9.77,14.32,14.32,0,0,1,14-14,13.63,13.63,0,0,1,10,4.19,13.41,13.41,0,0,1,4.19,9.78,13.1,13.1,0,0,1-4.09,9.77A13.86,13.86,0,0,1,1102.13,124.08Zm11.37,20.35v100H1091v-100Z"/><path class="cls-3" d="M1141.23,244.39v-100h22.54v16.36a39.15,39.15,0,0,1,13.67-13.36,35.91,35.91,0,0,1,18.06-4.59q15.15,0,24.84,10.07t9.67,25.64v65.84h-22.54V184.93q0-10.77-6-17.35t-16-6.59a24.58,24.58,0,0,0-12.27,3.09,28.72,28.72,0,0,0-9.48,8.88v71.43Z"/></g></g></svg>