<svg xmlns="http://www.w3.org/2000/svg" viewBox="0 0 738.85 669.55"><defs><style>.cls-1,.cls-2{fill:#fff;}.cls-1{fill-rule:evenodd;}</style></defs><g id="Layer_2" data-name="Layer 2"><g id="Layer_1-2" data-name="Layer 1"><path class="cls-1" d="M401.57,378.34c-6.33.54-11.35.67-14.42.67-100.2.2-181.55-81.35-181.55-181.55,0-.8,0-1.61,0-2.41V192.5h0V.05h0c60.8-.94,210.84,12.3,293.58,127.4a181.59,181.59,0,0,1,21.23,172.88l0,0c-5.31,14.06-19.42,43.05-56.24,61.51a143.31,143.31,0,0,1-18,7.47C472.6,268.1,438.06,121.55,284.59,51.12c93.21,57.77,166.82,203.26,117,327.22Z"/><path class="cls-2" d="M24.51,655.83A9.7,9.7,0,0,1,20,659.3a18.34,18.34,0,0,1-6.74,1.14,13,13,0,0,1-6.9-1.82,12.15,12.15,0,0,1-4.67-5.19A17.91,17.91,0,0,1,0,645.63v-2.77q0-7.18,3.35-11.14t9.43-4a12.07,12.07,0,0,1,8,2.54,11.1,11.1,0,0,1,3.71,7.22H20.32q-1.18-6.33-7.52-6.33a7.41,7.41,0,0,0-6.39,3q-2.18,3-2.19,8.58v2.6q0,5.35,2.44,8.52A7.94,7.94,0,0,0,13.28,657a14.61,14.61,0,0,0,4.13-.52,6.45,6.45,0,0,0,2.93-1.76V647.6H13v-3.43H24.51Z"/><path class="cls-2" d="M42.29,640a12.3,12.3,0,0,0-2-.15,5.31,5.31,0,0,0-5.39,3.38V660h-4V636.37H34.8l.06,2.73a6.3,6.3,0,0,1,5.64-3.16,4.19,4.19,0,0,1,1.79.3Z"/><path class="cls-2" d="M55.4,660.44a10.33,10.33,0,0,1-7.82-3.15,11.73,11.73,0,0,1-3-8.45v-.74a14.13,14.13,0,0,1,1.35-6.28,10.41,10.41,0,0,1,3.75-4.32,9.45,9.45,0,0,1,5.23-1.56,8.87,8.87,0,0,1,7.17,3c1.7,2,2.55,4.92,2.55,8.7v1.68h-16a8.36,8.36,0,0,0,2,5.64,6.38,6.38,0,0,0,5,2.16,7.07,7.07,0,0,0,3.63-.88,9,9,0,0,0,2.6-2.31l2.47,1.92A9.93,9.93,0,0,1,55.4,660.44Zm-.51-21.18a5.36,5.36,0,0,0-4.1,1.78,8.67,8.67,0,0,0-2.06,5H60.57v-.31A7.66,7.66,0,0,0,58.91,641,5.07,5.07,0,0,0,54.89,639.26Z"/><path class="cls-2" d="M79.1,660.44a10.33,10.33,0,0,1-7.82-3.15,11.73,11.73,0,0,1-3-8.45v-.74a14.13,14.13,0,0,1,1.35-6.28,10.41,10.41,0,0,1,3.75-4.32,9.47,9.47,0,0,1,5.23-1.56,8.87,8.87,0,0,1,7.17,3c1.7,2,2.55,4.92,2.55,8.7v1.68h-16a8.36,8.36,0,0,0,2,5.64,6.38,6.38,0,0,0,5,2.16,7.07,7.07,0,0,0,3.63-.88,9,9,0,0,0,2.6-2.31L88,655.88A9.93,9.93,0,0,1,79.1,660.44Zm-.51-21.18a5.36,5.36,0,0,0-4.1,1.78,8.67,8.67,0,0,0-2.06,5H84.27v-.31A7.66,7.66,0,0,0,82.61,641,5.07,5.07,0,0,0,78.59,639.26Z"/><path class="cls-2" d="M96.81,636.37l.13,3a8.62,8.62,0,0,1,7.08-3.4q7.49,0,7.56,8.45V660h-4V644.37a5.47,5.47,0,0,0-1.17-3.78,4.68,4.68,0,0,0-3.57-1.23,5.82,5.82,0,0,0-3.45,1A7,7,0,0,0,97,643.17V660H93V636.37Z"/><path class="cls-2" d="M152.77,649.92a11.68,11.68,0,0,1-3.72,7.78,12.19,12.19,0,0,1-8.33,2.74,11.17,11.17,0,0,1-9-4q-3.41-4-3.4-10.81v-3.06a18.26,18.26,0,0,1,1.58-7.8,11.83,11.83,0,0,1,4.49-5.16,12.52,12.52,0,0,1,6.73-1.8,11.48,11.48,0,0,1,8.12,2.82,11.83,11.83,0,0,1,3.56,7.84h-4.21q-.54-3.82-2.37-5.53a7.18,7.18,0,0,0-5.1-1.7,7.5,7.5,0,0,0-6.3,3c-1.52,2-2.29,4.8-2.29,8.46v3.08a14,14,0,0,0,2.17,8.24,7,7,0,0,0,6.05,3.06,8,8,0,0,0,5.36-1.58c1.25-1,2.07-2.89,2.48-5.51Z"/><path class="cls-2" d="M169.29,640a12.3,12.3,0,0,0-2-.15,5.31,5.31,0,0,0-5.39,3.38V660h-4V636.37h3.93l.06,2.73a6.3,6.3,0,0,1,5.64-3.16,4.19,4.19,0,0,1,1.79.3Z"/><path class="cls-2" d="M181.13,654.09l5.5-17.72H191l-9.5,27.28q-2.21,5.91-7,5.9l-.77-.06-1.51-.29v-3.27l1.1.08a5.36,5.36,0,0,0,3.2-.83,6,6,0,0,0,1.88-3l.9-2.41-8.43-23.37h4.41Z"/><path class="cls-2" d="M214.53,648.45a14.14,14.14,0,0,1-2.47,8.7,7.9,7.9,0,0,1-6.68,3.29,8.69,8.69,0,0,1-6.78-2.73v11.38h-4V636.37h3.69l.2,2.62a8.32,8.32,0,0,1,6.86-3,8.06,8.06,0,0,1,6.74,3.21q2.47,3.21,2.48,8.93Zm-4-.46a10.41,10.41,0,0,0-1.71-6.31,5.49,5.49,0,0,0-4.67-2.32,6,6,0,0,0-5.51,3.26v11.29a6,6,0,0,0,5.55,3.24,5.45,5.45,0,0,0,4.62-2.31C209.92,653.31,210.49,651,210.49,648Z"/><path class="cls-2" d="M225.14,630.65v5.72h4.42v3.13h-4.42v14.67a3.28,3.28,0,0,0,.59,2.13,2.48,2.48,0,0,0,2,.71,9.43,9.43,0,0,0,1.93-.26V660a11.82,11.82,0,0,1-3.11.43,5,5,0,0,1-4.08-1.63,7.06,7.06,0,0,1-1.38-4.66V639.5h-4.3v-3.13h4.3v-5.72Z"/><path class="cls-2" d="M232.77,648a14,14,0,0,1,1.36-6.25,10.23,10.23,0,0,1,3.8-4.28,10.41,10.41,0,0,1,5.56-1.5,10,10,0,0,1,7.81,3.34,12.85,12.85,0,0,1,3,8.89v.28a14.06,14.06,0,0,1-1.32,6.19,10,10,0,0,1-3.78,4.28,10.51,10.51,0,0,1-5.64,1.52,9.93,9.93,0,0,1-7.79-3.34,12.77,12.77,0,0,1-3-8.84Zm4.06.48a10.07,10.07,0,0,0,1.83,6.31,6.16,6.16,0,0,0,9.77,0,11,11,0,0,0,1.81-6.76,10.1,10.1,0,0,0-1.84-6.3,5.87,5.87,0,0,0-4.91-2.41,5.78,5.78,0,0,0-4.82,2.38C237.44,643.22,236.83,645.5,236.83,648.45Z"/><path class="cls-2" d="M272.41,660V639.5h-3.73v-3.13h3.73V634a8,8,0,0,1,2-5.88,7.68,7.68,0,0,1,5.74-2.07,10.44,10.44,0,0,1,2.77.37l-.21,3.25a11.83,11.83,0,0,0-2.19-.19,3.91,3.91,0,0,0-3,1.15,4.61,4.61,0,0,0-1.07,3.29v2.5h5v3.13h-5V660Z"/><path class="cls-2" d="M284.89,648a14,14,0,0,1,1.36-6.25,10.23,10.23,0,0,1,3.8-4.28,10.41,10.41,0,0,1,5.56-1.5,10,10,0,0,1,7.81,3.34,12.85,12.85,0,0,1,3,8.89v.28a14.06,14.06,0,0,1-1.32,6.19,10,10,0,0,1-3.78,4.28,10.54,10.54,0,0,1-5.64,1.52,9.93,9.93,0,0,1-7.79-3.34,12.77,12.77,0,0,1-3-8.84Zm4.06.48a10.13,10.13,0,0,0,1.82,6.31,6.17,6.17,0,0,0,9.78,0,11,11,0,0,0,1.81-6.76,10.1,10.1,0,0,0-1.84-6.3,5.87,5.87,0,0,0-4.91-2.41,5.78,5.78,0,0,0-4.82,2.38C289.56,643.22,289,645.5,289,648.45Z"/><path class="cls-2" d="M322.9,640a12.48,12.48,0,0,0-2-.15,5.33,5.33,0,0,0-5.4,3.38V660h-4V636.37h3.93l.07,2.73a6.28,6.28,0,0,1,5.63-3.16,4.24,4.24,0,0,1,1.8.3Z"/><path class="cls-2" d="M352.28,660a8.14,8.14,0,0,1-.57-2.49,9,9,0,0,1-6.73,2.92,8.31,8.31,0,0,1-5.73-2,6.38,6.38,0,0,1-2.24-5,6.67,6.67,0,0,1,2.8-5.73q2.82-2,7.9-2h3.93v-1.86a4.53,4.53,0,0,0-1.26-3.37,5.1,5.1,0,0,0-3.74-1.26,5.9,5.9,0,0,0-3.63,1.09,3.23,3.23,0,0,0-1.46,2.64h-4.06a5.61,5.61,0,0,1,1.25-3.41,8.62,8.62,0,0,1,3.41-2.61,11.49,11.49,0,0,1,4.73-1,9.35,9.35,0,0,1,6.4,2,7.33,7.33,0,0,1,2.4,5.62v10.88a13.37,13.37,0,0,0,.83,5.18V660Zm-6.71-3.08a7,7,0,0,0,3.6-1,5.88,5.88,0,0,0,2.47-2.55v-4.85h-3.16c-5,0-7.43,1.45-7.43,4.35a3.68,3.68,0,0,0,1.27,3A4.86,4.86,0,0,0,345.57,656.93Z"/><path class="cls-2" d="M383.1,645.83q-5.4-1.55-7.86-3.81a7.31,7.31,0,0,1-2.45-5.58,7.7,7.7,0,0,1,3-6.22,12,12,0,0,1,7.81-2.45,13.09,13.09,0,0,1,5.84,1.26,9.65,9.65,0,0,1,4,3.5,8.92,8.92,0,0,1,1.41,4.87h-4.22a5.82,5.82,0,0,0-1.83-4.55,7.49,7.49,0,0,0-5.18-1.65,7.66,7.66,0,0,0-4.84,1.36,4.57,4.57,0,0,0-1.74,3.8,4.09,4.09,0,0,0,1.65,3.29,16.2,16.2,0,0,0,5.62,2.47,26.12,26.12,0,0,1,6.2,2.45,9.52,9.52,0,0,1,3.32,3.14,8,8,0,0,1,1.08,4.22,7.43,7.43,0,0,1-3,6.19,12.86,12.86,0,0,1-8.06,2.32,14.89,14.89,0,0,1-6.12-1.25,10.4,10.4,0,0,1-4.38-3.44,8.45,8.45,0,0,1-1.54-5H376a5.47,5.47,0,0,0,2.13,4.55,8.92,8.92,0,0,0,5.69,1.67,8.27,8.27,0,0,0,5.09-1.35,4.39,4.39,0,0,0,1.77-3.69,4.34,4.34,0,0,0-1.64-3.62A18.89,18.89,0,0,0,383.1,645.83Z"/><path class="cls-2" d="M414.22,657.67q-2.36,2.77-6.92,2.77a7.37,7.37,0,0,1-5.76-2.19c-1.31-1.46-2-3.63-2-6.5V636.37h4v15.27c0,3.58,1.45,5.37,4.37,5.37,3.08,0,5.14-1.15,6.16-3.45V636.37h4V660h-3.85Z"/><path class="cls-2" d="M438.06,653.74a3,3,0,0,0-1.24-2.55,12,12,0,0,0-4.3-1.56,20.48,20.48,0,0,1-4.87-1.57,6.94,6.94,0,0,1-2.67-2.19,5.23,5.23,0,0,1-.86-3,6.15,6.15,0,0,1,2.46-4.92,9.63,9.63,0,0,1,6.28-2,9.89,9.89,0,0,1,6.52,2.07,6.6,6.6,0,0,1,2.5,5.31h-4.06a3.64,3.64,0,0,0-1.41-2.86,5.3,5.3,0,0,0-3.55-1.2,5.53,5.53,0,0,0-3.45,1,3,3,0,0,0-1.25,2.51,2.45,2.45,0,0,0,1.16,2.2,14,14,0,0,0,4.18,1.42,22.17,22.17,0,0,1,4.91,1.62,7.16,7.16,0,0,1,2.78,2.26,5.6,5.6,0,0,1,.91,3.22,6,6,0,0,1-2.54,5.08,10.59,10.59,0,0,1-6.57,1.91,11.92,11.92,0,0,1-5-1,8.18,8.18,0,0,1-3.41-2.81,6.71,6.71,0,0,1-1.24-3.9h4A4.2,4.2,0,0,0,429,656a6.28,6.28,0,0,0,4,1.2,6.52,6.52,0,0,0,3.68-.93A2.87,2.87,0,0,0,438.06,653.74Z"/><path class="cls-2" d="M452.85,630.65v5.72h4.41v3.13h-4.41v14.67a3.28,3.28,0,0,0,.58,2.13,2.48,2.48,0,0,0,2,.71,9.43,9.43,0,0,0,1.93-.26V660a11.8,11.8,0,0,1-3.1.43,5,5,0,0,1-4.09-1.63,7.06,7.06,0,0,1-1.38-4.66V639.5h-4.3v-3.13h4.3v-5.72Z"/><path class="cls-2" d="M476.57,660a8.14,8.14,0,0,1-.57-2.49,9,9,0,0,1-6.73,2.92,8.31,8.31,0,0,1-5.73-2,6.38,6.38,0,0,1-2.24-5,6.66,6.66,0,0,1,2.81-5.73q2.81-2,7.89-2h3.93v-1.86a4.53,4.53,0,0,0-1.26-3.37,5.1,5.1,0,0,0-3.74-1.26,5.9,5.9,0,0,0-3.63,1.09,3.23,3.23,0,0,0-1.46,2.64h-4.06a5.61,5.61,0,0,1,1.25-3.41,8.62,8.62,0,0,1,3.41-2.61,11.49,11.49,0,0,1,4.73-1,9.35,9.35,0,0,1,6.4,2,7.3,7.3,0,0,1,2.4,5.62v10.88a13.37,13.37,0,0,0,.83,5.18V660Zm-6.71-3.08a7,7,0,0,0,3.6-1,5.88,5.88,0,0,0,2.47-2.55v-4.85h-3.16c-5,0-7.43,1.45-7.43,4.35a3.68,3.68,0,0,0,1.27,3A4.88,4.88,0,0,0,469.86,656.93Z"/><path class="cls-2" d="M486.33,630.1a2.42,2.42,0,0,1,.6-1.66,2.71,2.71,0,0,1,3.57,0,2.38,2.38,0,0,1,.61,1.66,2.5,2.5,0,0,1-4.18,1.64A2.34,2.34,0,0,1,486.33,630.1ZM490.7,660h-4V636.37h4Z"/><path class="cls-2" d="M501,636.37l.13,3a8.6,8.6,0,0,1,7.08-3.4q7.49,0,7.55,8.45V660h-4V644.37a5.38,5.38,0,0,0-1.17-3.78,4.65,4.65,0,0,0-3.57-1.23,5.82,5.82,0,0,0-3.45,1,7.08,7.08,0,0,0-2.31,2.76V660h-4V636.37Z"/><path class="cls-2" d="M536.44,660a8.79,8.79,0,0,1-.57-2.49,9,9,0,0,1-6.73,2.92,8.33,8.33,0,0,1-5.73-2,6.41,6.41,0,0,1-2.24-5,6.68,6.68,0,0,1,2.81-5.73q2.81-2,7.89-2h3.94v-1.86a4.54,4.54,0,0,0-1.27-3.37,5.07,5.07,0,0,0-3.73-1.26,5.86,5.86,0,0,0-3.63,1.09,3.22,3.22,0,0,0-1.47,2.64h-4.06a5.57,5.57,0,0,1,1.26-3.41,8.55,8.55,0,0,1,3.41-2.61,11.46,11.46,0,0,1,4.73-1,9.37,9.37,0,0,1,6.4,2,7.37,7.37,0,0,1,2.4,5.62v10.88a13.19,13.19,0,0,0,.83,5.18V660Zm-6.71-3.08a7.09,7.09,0,0,0,3.61-1,5.88,5.88,0,0,0,2.47-2.55v-4.85h-3.17q-7.42,0-7.43,4.35a3.71,3.71,0,0,0,1.27,3A4.88,4.88,0,0,0,529.73,656.93Z"/><path class="cls-2" d="M566.19,648.45a14.07,14.07,0,0,1-2.49,8.71,8,8,0,0,1-6.68,3.28,8.24,8.24,0,0,1-6.93-3.16L549.9,660h-3.72V626.46h4V639a8.21,8.21,0,0,1,6.75-3,8,8,0,0,1,6.77,3.25q2.44,3.25,2.45,8.91Zm-4-.46a11,11,0,0,0-1.59-6.38,5.3,5.3,0,0,0-4.59-2.25,5.94,5.94,0,0,0-5.75,3.72V653.3A6.09,6.09,0,0,0,556,657a5.23,5.23,0,0,0,4.52-2.25C561.61,653.26,562.15,651,562.15,648Z"/><path class="cls-2" d="M575.67,660h-4V626.46h4Z"/><path class="cls-2" d="M592,660.44a10.33,10.33,0,0,1-7.82-3.15,11.73,11.73,0,0,1-3-8.45v-.74a14.13,14.13,0,0,1,1.35-6.28,10.41,10.41,0,0,1,3.75-4.32,9.47,9.47,0,0,1,5.23-1.56,8.87,8.87,0,0,1,7.17,3c1.7,2,2.55,4.92,2.55,8.7v1.68h-16A8.36,8.36,0,0,0,587.2,655a6.38,6.38,0,0,0,5,2.16,7.07,7.07,0,0,0,3.63-.88,9,9,0,0,0,2.6-2.31l2.47,1.92A9.93,9.93,0,0,1,592,660.44Zm-.51-21.18a5.36,5.36,0,0,0-4.1,1.78,8.67,8.67,0,0,0-2.06,5h11.84v-.31a7.66,7.66,0,0,0-1.66-4.77A5.07,5.07,0,0,0,591.44,639.26Z"/><path class="cls-2" d="M635.09,646H621.74v14h-4.19V628.2h19.7v3.43H621.74v10.9h13.35Z"/><path class="cls-2" d="M655.75,657.67q-2.36,2.77-6.92,2.77a7.37,7.37,0,0,1-5.76-2.19c-1.32-1.46-2-3.63-2-6.5V636.37h4v15.27q0,5.37,4.37,5.37,4.63,0,6.16-3.45V636.37h4V660h-3.84Z"/><path class="cls-2" d="M671.3,630.65v5.72h4.42v3.13H671.3v14.67a3.28,3.28,0,0,0,.59,2.13,2.48,2.48,0,0,0,2,.71,9.43,9.43,0,0,0,1.93-.26V660a11.82,11.82,0,0,1-3.11.43,5,5,0,0,1-4.08-1.63,7.06,7.06,0,0,1-1.38-4.66V639.5H663v-3.13h4.3v-5.72Z"/><path class="cls-2" d="M695,657.67c-1.58,1.85-3.88,2.77-6.93,2.77a7.33,7.33,0,0,1-5.75-2.19q-2-2.19-2-6.5V636.37h4v15.27c0,3.58,1.45,5.37,4.37,5.37q4.63,0,6.16-3.45V636.37h4V660h-3.85Z"/><path class="cls-2" d="M716.52,640a12.3,12.3,0,0,0-2-.15,5.31,5.31,0,0,0-5.39,3.38V660h-4V636.37H709l.06,2.73a6.3,6.3,0,0,1,5.64-3.16,4.19,4.19,0,0,1,1.79.3Z"/><path class="cls-2" d="M729.63,660.44a10.33,10.33,0,0,1-7.82-3.15,11.73,11.73,0,0,1-3-8.45v-.74a14.13,14.13,0,0,1,1.35-6.28,10.41,10.41,0,0,1,3.75-4.32,9.47,9.47,0,0,1,5.23-1.56,8.86,8.86,0,0,1,7.17,3c1.7,2,2.56,4.92,2.56,8.7v1.68h-16a8.36,8.36,0,0,0,2,5.64,6.4,6.4,0,0,0,5,2.16,7.06,7.06,0,0,0,3.62-.88,9,9,0,0,0,2.6-2.31l2.47,1.92A9.93,9.93,0,0,1,729.63,660.44Zm-.51-21.18A5.37,5.37,0,0,0,725,641a8.67,8.67,0,0,0-2.06,5H734.8v-.31a7.66,7.66,0,0,0-1.66-4.77A5.07,5.07,0,0,0,729.12,639.26Z"/><path class="cls-2" d="M0,604.37V473.73H58.41q19.78,0,31.73,11.38t11.94,29.3q0,17.36-11.94,28.74T58.41,554.54h-36v49.83ZM55.05,492.58H22.39v43.67H54.87q11.75,0,18.19-6.07t6.44-15.95a20.66,20.66,0,0,0-6.34-15.59Q66.8,492.58,55.05,492.58Z"/><path class="cls-2" d="M199.5,592.42a62.19,62.19,0,0,1-17.45,10.45,55.2,55.2,0,0,1-19.69,3.36,47.07,47.07,0,0,1-18.66-3.73,45.78,45.78,0,0,1-15.12-10.27,49.7,49.7,0,0,1-13.81-34.52,52.3,52.3,0,0,1,3.45-19.13,46.81,46.81,0,0,1,9.52-15.3,44.44,44.44,0,0,1,32.57-13.9A42.54,42.54,0,0,1,191.94,523a46.15,46.15,0,0,1,9.24,15.21,54.06,54.06,0,0,1,3.35,19.31v5.23H135.48A29.42,29.42,0,0,0,144.91,581a26.61,26.61,0,0,0,18.57,7.28A33.27,33.27,0,0,0,175.89,586a27.13,27.13,0,0,0,9.8-6.44Zm-39.38-65.88a21.91,21.91,0,0,0-15.86,6.35q-6.54,6.35-8.4,17h48.71a30.63,30.63,0,0,0-8.49-16.79A21.91,21.91,0,0,0,160.12,526.54Z"/><path class="cls-2" d="M307,592.42a62.19,62.19,0,0,1-17.45,10.45,55.2,55.2,0,0,1-19.69,3.36,47.11,47.11,0,0,1-18.66-3.73,45.78,45.78,0,0,1-15.12-10.27,49.7,49.7,0,0,1-13.81-34.52,52.1,52.1,0,0,1,3.46-19.13,46.79,46.79,0,0,1,9.51-15.3,44.44,44.44,0,0,1,14.47-10.17,44,44,0,0,1,18.1-3.73A42.54,42.54,0,0,1,299.43,523a46.15,46.15,0,0,1,9.24,15.21A54.07,54.07,0,0,1,312,557.52v5.23H243A29.36,29.36,0,0,0,252.4,581,26.61,26.61,0,0,0,271,588.32,33.27,33.27,0,0,0,283.38,586a27,27,0,0,0,9.8-6.44Zm-39.38-65.88a21.91,21.91,0,0,0-15.86,6.35q-6.54,6.35-8.4,17h48.71a30.63,30.63,0,0,0-8.49-16.79A21.91,21.91,0,0,0,267.61,526.54Z"/><path class="cls-2" d="M333.49,604.37v-93.5h21.09v20.34q3.72-10.63,10.35-16.33a22.94,22.94,0,0,1,15.4-5.69,42.29,42.29,0,0,1,4.66.56,24.41,24.41,0,0,1,4.48,1.31v18.47a22.46,22.46,0,0,0-5.5-1.68,34.19,34.19,0,0,0-6.07-.56,24,24,0,0,0-13.62,4.11,28,28,0,0,0-9.7,11.38v61.59Z"/><path class="cls-2" d="M446.58,587.57a30.7,30.7,0,0,0,12.6-2.61,26.71,26.71,0,0,0,10-7.66L481.85,590a47.07,47.07,0,0,1-16.23,11.86,49,49,0,0,1-20.35,4.38,46.6,46.6,0,0,1-33.59-14,47.51,47.51,0,0,1-10-15.49,50,50,0,0,1-3.64-19,49.3,49.3,0,0,1,3.64-18.94,46.7,46.7,0,0,1,43.57-29.21,52.83,52.83,0,0,1,20.63,4.11,47.43,47.43,0,0,1,16.7,11.57l-13.07,13.62a33.75,33.75,0,0,0-10.82-8.21,29.47,29.47,0,0,0-12.69-2.8,24.69,24.69,0,0,0-19,8.68,30.44,30.44,0,0,0-7.84,21.18q0,12.69,7.84,21.27A25.39,25.39,0,0,0,446.58,587.57Z"/><path class="cls-2" d="M492.86,557.71a49.82,49.82,0,0,1,3.64-19.13,47.69,47.69,0,0,1,9.89-15.3,45.88,45.88,0,0,1,14.93-10.17,48.31,48.31,0,0,1,37.23,0,47.19,47.19,0,0,1,14.93,10.17,45.61,45.61,0,0,1,9.89,15.3,52.94,52.94,0,0,1-.09,38.35,47.67,47.67,0,0,1-9.89,15.4,45.88,45.88,0,0,1-14.93,10.17,48.09,48.09,0,0,1-37.14,0,45.07,45.07,0,0,1-14.93-10.27,48.77,48.77,0,0,1-9.89-15.39A49.82,49.82,0,0,1,492.86,557.71Zm47,30.23a23.66,23.66,0,0,0,18.76-8.58Q566,570.78,566,557.9q0-13.26-7.47-21.84a24.69,24.69,0,0,0-37.42,0q-7.36,8.6-7.37,21.84,0,13.07,7.37,21.55A23.76,23.76,0,0,0,539.89,587.94Z"/><path class="cls-2" d="M619.2,491.83A12.74,12.74,0,0,1,610,488.1a12.27,12.27,0,0,1-3.82-9.14,13.4,13.4,0,0,1,13.06-13.07,12.74,12.74,0,0,1,9.33,3.92,12.5,12.5,0,0,1,3.92,9.15,12.27,12.27,0,0,1-3.82,9.14A13,13,0,0,1,619.2,491.83Zm10.64,19v93.5H608.75v-93.5Z"/><path class="cls-2" d="M655.78,604.37v-93.5h21.09v15.3a36.55,36.55,0,0,1,12.78-12.5,33.62,33.62,0,0,1,16.89-4.29q14.18,0,23.23,9.42t9.06,24v61.59H717.74V548.75q0-10.08-5.6-16.23t-14.93-6.16a23,23,0,0,0-11.48,2.89,26.72,26.72,0,0,0-8.86,8.3v66.82Z"/></g></g></svg>