<?xml version="1.0" encoding="UTF-8"?><svg id="Layer_2" xmlns="http://www.w3.org/2000/svg" viewBox="0 0 701.42 657.64"><defs><style>.cls-1,.cls-2{fill:#fff;}.cls-2{fill-rule:evenodd;}</style></defs><g id="Layer_1-2"><g><path class="cls-2" d="M381.9,358.45c-6,.51-10.75,.63-13.66,.63-94.93,.19-172.01-77.07-172.01-172.01,0-.76,0-1.52,.01-2.28v-2.42h-.01V.04h.02c57.61-.9,199.76,11.65,278.15,120.7,20.3,28.23,32.25,62.85,32.25,100.25,0,22.44-4.31,43.89-12.14,63.55l-.05-.04c-5.02,13.33-18.4,40.79-53.28,58.28-5.61,2.81-11.35,5.15-17.02,7.08,25.03-95.84-7.69-234.69-153.08-301.41,88.3,54.74,158.05,192.57,110.83,310.02h0Z"/><g><path class="cls-1" d="M1.44,572.59v-123.77H56.78c12.49,0,22.51,3.6,30.06,10.79,7.54,7.19,11.32,16.44,11.32,27.76s-3.77,20.04-11.32,27.23c-7.54,7.19-17.56,10.79-30.06,10.79H22.66v47.21H1.44Zm52.16-105.91H22.66v41.37h30.76c7.43,0,13.17-1.91,17.24-5.75,4.07-3.83,6.1-8.87,6.1-15.12s-2.01-10.93-6.01-14.76c-4.01-3.83-9.72-5.75-17.15-5.75Z"/><path class="cls-1" d="M190.45,561.27c-5.42,4.48-10.93,7.78-16.53,9.9-5.6,2.12-11.82,3.18-18.65,3.18-6.25,0-12.14-1.18-17.68-3.54-5.54-2.36-10.32-5.6-14.32-9.72-4.01-4.12-7.19-9.02-9.55-14.68-2.36-5.66-3.54-11.67-3.54-18.03s1.09-12.52,3.27-18.12c2.18-5.6,5.19-10.43,9.02-14.5,3.83-4.07,8.4-7.28,13.7-9.64,5.3-2.36,11.02-3.54,17.15-3.54s11.58,1.15,16.71,3.45c5.13,2.3,9.55,5.45,13.26,9.46,3.71,4.01,6.63,8.81,8.75,14.41,2.12,5.6,3.18,11.7,3.18,18.3v4.95h-65.42c.94,6.96,3.92,12.73,8.93,17.33,5.01,4.6,10.87,6.9,17.59,6.9,4.12,0,8.05-.74,11.76-2.21,3.71-1.47,6.81-3.51,9.28-6.1l13.08,12.2Zm-37.31-62.41c-5.9,0-10.9,2.01-15.03,6.01-4.13,4.01-6.78,9.37-7.96,16.09h46.15c-1.18-6.48-3.86-11.79-8.05-15.91-4.18-4.12-9.22-6.19-15.12-6.19Z"/><path class="cls-1" d="M292.29,561.27c-5.42,4.48-10.93,7.78-16.53,9.9-5.6,2.12-11.82,3.18-18.65,3.18-6.25,0-12.14-1.18-17.68-3.54-5.54-2.36-10.32-5.6-14.32-9.72-4.01-4.12-7.19-9.02-9.55-14.68-2.36-5.66-3.54-11.67-3.54-18.03s1.09-12.52,3.27-18.12c2.18-5.6,5.19-10.43,9.02-14.5,3.83-4.07,8.4-7.28,13.7-9.64,5.3-2.36,11.02-3.54,17.15-3.54s11.58,1.15,16.71,3.45c5.13,2.3,9.55,5.45,13.26,9.46,3.71,4.01,6.63,8.81,8.75,14.41,2.12,5.6,3.18,11.7,3.18,18.3v4.95h-65.42c.94,6.96,3.92,12.73,8.93,17.33,5.01,4.6,10.87,6.9,17.59,6.9,4.12,0,8.05-.74,11.76-2.21,3.71-1.47,6.81-3.51,9.28-6.1l13.08,12.2Zm-37.31-62.41c-5.9,0-10.9,2.01-15.03,6.01-4.13,4.01-6.78,9.37-7.96,16.09h46.15c-1.18-6.48-3.86-11.79-8.05-15.91-4.18-4.12-9.22-6.19-15.12-6.19Z"/><path class="cls-1" d="M317.39,572.59v-88.58h19.98v19.27c2.36-6.72,5.63-11.87,9.81-15.47,4.18-3.59,9.05-5.39,14.59-5.39,1.65,.12,3.12,.3,4.42,.53,1.3,.24,2.71,.65,4.24,1.24v17.5c-1.53-.71-3.27-1.24-5.22-1.59-1.95-.35-3.86-.53-5.75-.53-4.72,0-9.02,1.3-12.91,3.89-3.89,2.59-6.96,6.19-9.19,10.78v58.35h-19.98Z"/><path class="cls-1" d="M424.54,556.68c4.24,0,8.22-.82,11.93-2.48,3.71-1.65,6.87-4.07,9.46-7.25l12.02,12.02c-4.13,4.72-9.26,8.46-15.38,11.23-6.13,2.77-12.55,4.16-19.27,4.16-6.25,0-12.11-1.18-17.59-3.54-5.48-2.36-10.23-5.6-14.23-9.72-4.01-4.12-7.16-9.02-9.46-14.68-2.3-5.66-3.45-11.67-3.45-18.03s1.15-12.35,3.45-17.95c2.3-5.6,5.45-10.43,9.46-14.5,4.01-4.07,8.75-7.28,14.23-9.64,5.48-2.36,11.34-3.54,17.59-3.54,6.83,0,13.35,1.3,19.54,3.89,6.19,2.59,11.46,6.25,15.82,10.96l-12.38,12.91c-3.07-3.42-6.48-6.01-10.25-7.78-3.77-1.77-7.78-2.65-12.02-2.65-7.07,0-13.08,2.74-18.03,8.22-4.95,5.48-7.43,12.17-7.43,20.07s2.48,14.74,7.43,20.16c4.95,5.42,11.14,8.13,18.56,8.13Z"/><path class="cls-1" d="M468.39,528.39c0-6.48,1.15-12.52,3.45-18.12,2.3-5.6,5.42-10.43,9.37-14.5,3.95-4.07,8.66-7.28,14.14-9.64,5.48-2.36,11.34-3.54,17.59-3.54s12.26,1.18,17.68,3.54c5.42,2.36,10.14,5.57,14.14,9.64,4.01,4.07,7.13,8.9,9.37,14.5,2.24,5.6,3.36,11.64,3.36,18.12s-1.15,12.55-3.45,18.21c-2.3,5.66-5.42,10.52-9.37,14.59-3.95,4.07-8.66,7.28-14.14,9.64s-11.35,3.54-17.59,3.54-12.11-1.18-17.59-3.54c-5.48-2.36-10.2-5.6-14.14-9.72-3.95-4.12-7.07-8.99-9.37-14.59-2.3-5.6-3.45-11.64-3.45-18.12Zm44.56,28.64c7.19,0,13.11-2.71,17.77-8.13,4.66-5.42,6.98-12.2,6.98-20.33s-2.36-15.26-7.07-20.69c-4.72-5.42-10.61-8.13-17.68-8.13s-13.11,2.71-17.77,8.13c-4.66,5.42-6.98,12.32-6.98,20.69s2.33,15.06,6.98,20.42c4.66,5.36,10.58,8.05,17.77,8.05Z"/><path class="cls-1" d="M588.09,465.97c-3.42,0-6.34-1.18-8.75-3.54-2.42-2.36-3.63-5.24-3.63-8.66s1.24-6.19,3.71-8.66c2.48-2.48,5.36-3.71,8.66-3.71s6.37,1.24,8.84,3.71c2.48,2.48,3.71,5.36,3.71,8.66s-1.21,6.31-3.62,8.66c-2.42,2.36-5.39,3.54-8.93,3.54Zm10.08,18.04v88.58h-19.98v-88.58h19.98Z"/><path class="cls-1" d="M622.74,572.59v-88.58h19.98v14.5c3.3-5.19,7.34-9.13,12.11-11.85,4.77-2.71,10.11-4.07,16-4.07,8.96,0,16.29,2.98,22.01,8.93,5.72,5.95,8.57,13.53,8.57,22.72v58.35h-19.98v-52.69c0-6.36-1.77-11.49-5.3-15.38-3.54-3.89-8.25-5.83-14.14-5.83-4.01,0-7.63,.91-10.87,2.74-3.24,1.83-6.04,4.45-8.4,7.87v63.3h-19.98Z"/></g><g><path class="cls-1" d="M32.19,606.23h-14.34v38.85h-3.53v-38.85H0v-2.99H32.19v2.99Z"/><path class="cls-1" d="M41.56,619.25c1.13-1.86,2.58-3.3,4.34-4.31,1.76-1.01,3.69-1.52,5.78-1.52,3.33,0,5.81,.94,7.44,2.82,1.63,1.88,2.45,4.69,2.47,8.45v20.4h-3.42v-20.43c-.02-2.78-.61-4.85-1.77-6.21s-3.01-2.04-5.56-2.04c-2.13,0-4.01,.67-5.65,2-1.64,1.33-2.85,3.13-3.64,5.39v21.29h-3.42v-44.14h3.42v18.31Z"/><path class="cls-1" d="M82.48,645.66c-2.64,0-5.04-.65-7.17-1.95-2.14-1.3-3.8-3.12-4.99-5.45-1.19-2.33-1.78-4.94-1.78-7.83v-1.23c0-2.99,.58-5.68,1.74-8.08,1.16-2.4,2.77-4.28,4.84-5.65s4.31-2.05,6.73-2.05c3.77,0,6.77,1.29,8.98,3.86,2.21,2.58,3.32,6.1,3.32,10.56v1.93h-22.19v.66c0,3.53,1.01,6.46,3.03,8.81s4.56,3.52,7.63,3.52c1.84,0,3.46-.33,4.87-1,1.41-.67,2.69-1.74,3.84-3.22l2.16,1.64c-2.53,3.66-6.2,5.49-11.01,5.49Zm-.63-29.31c-2.59,0-4.77,.95-6.54,2.84s-2.85,4.44-3.23,7.64h18.65v-.37c-.09-2.99-.95-5.42-2.56-7.3s-3.72-2.82-6.32-2.82Z"/><path class="cls-1" d="M139.64,634.8c0-2.32-.82-4.15-2.44-5.5s-4.61-2.63-8.94-3.85c-4.33-1.22-7.49-2.54-9.48-3.98-2.84-2.03-4.25-4.69-4.25-7.99s1.32-5.8,3.95-7.8c2.63-2,6-3,10.1-3,2.78,0,5.26,.54,7.46,1.61,2.19,1.07,3.89,2.57,5.1,4.48,1.21,1.92,1.81,4.05,1.81,6.41h-3.56c0-2.86-.98-5.16-2.93-6.9-1.96-1.74-4.58-2.61-7.88-2.61s-5.75,.72-7.64,2.15-2.85,3.29-2.85,5.6c0,2.13,.85,3.87,2.56,5.21s4.44,2.53,8.19,3.55c3.75,1.03,6.6,2.09,8.54,3.19,1.93,1.1,3.39,2.42,4.37,3.95s1.47,3.34,1.47,5.43c0,3.29-1.32,5.94-3.95,7.93-2.63,1.99-6.11,2.99-10.42,2.99-2.95,0-5.66-.53-8.12-1.58-2.46-1.06-4.33-2.53-5.6-4.43s-1.91-4.07-1.91-6.52h3.53c0,2.95,1.1,5.28,3.31,6.98,2.2,1.71,5.13,2.56,8.79,2.56,3.26,0,5.87-.72,7.85-2.16,1.97-1.44,2.96-3.34,2.96-5.72Z"/><path class="cls-1" d="M170.02,641.15c-2.07,3.01-5.37,4.51-9.92,4.51-3.31,0-5.83-.96-7.56-2.89-1.72-1.93-2.61-4.78-2.64-8.55v-20.23h3.42v19.8c0,5.92,2.39,8.88,7.18,8.88s8.13-2.06,9.45-6.18v-22.5h3.45v31.09h-3.33l-.06-3.94Z"/><path class="cls-1" d="M200.97,637.18c0-1.7-.69-3.07-2.05-4.11-1.37-1.04-3.44-1.85-6.19-2.43-2.76-.59-4.9-1.26-6.42-2.01-1.52-.76-2.65-1.68-3.39-2.77-.74-1.09-1.11-2.41-1.11-3.96,0-2.45,1.03-4.48,3.08-6.08,2.05-1.6,4.67-2.4,7.87-2.4,3.47,0,6.25,.86,8.35,2.57s3.15,3.95,3.15,6.71h-3.45c0-1.82-.76-3.33-2.28-4.54s-3.44-1.81-5.76-1.81-4.08,.5-5.44,1.51c-1.37,1.01-2.06,2.31-2.06,3.92s.57,2.75,1.71,3.61,3.22,1.63,6.24,2.34,5.28,1.47,6.78,2.27c1.5,.81,2.62,1.77,3.35,2.9,.73,1.13,1.09,2.5,1.09,4.11,0,2.63-1.06,4.72-3.18,6.3s-4.88,2.36-8.29,2.36c-3.62,0-6.56-.88-8.81-2.63-2.25-1.75-3.38-3.97-3.38-6.65h3.45c.13,2.01,.98,3.58,2.54,4.7s3.63,1.68,6.19,1.68c2.39,0,4.33-.53,5.8-1.58s2.21-2.39,2.21-3.99Z"/><path class="cls-1" d="M217.49,606.03v7.96h6.44v2.81h-6.44v20.74c0,1.73,.31,3.01,.93,3.86s1.66,1.27,3.12,1.27c.58,0,1.5-.1,2.79-.29l.14,2.79c-.9,.32-2.13,.48-3.68,.48-2.36,0-4.07-.68-5.15-2.05s-1.61-3.39-1.61-6.05v-20.75h-5.72v-2.81h5.72v-7.96h3.45Z"/><path class="cls-1" d="M250.69,645.09c-.34-.98-.57-2.42-.66-4.34-1.21,1.57-2.74,2.78-4.61,3.64s-3.85,1.28-5.93,1.28c-2.99,0-5.41-.83-7.26-2.5-1.85-1.67-2.77-3.77-2.77-6.32,0-3.03,1.26-5.42,3.78-7.19,2.52-1.76,6.03-2.64,10.53-2.64h6.24v-3.54c0-2.22-.69-3.97-2.05-5.24-1.37-1.28-3.37-1.91-5.99-1.91-2.39,0-4.38,.61-5.95,1.84-1.57,1.23-2.36,2.7-2.36,4.43l-3.45-.03c0-2.47,1.15-4.61,3.45-6.42,2.3-1.81,5.12-2.72,8.48-2.72s6.2,.87,8.2,2.6c2,1.73,3.03,4.15,3.09,7.26v14.71c0,3.01,.32,5.26,.95,6.75v.34h-3.68Zm-10.81-2.47c2.3,0,4.35-.55,6.16-1.67,1.81-1.11,3.13-2.59,3.95-4.45v-6.84h-6.15c-3.43,.04-6.11,.67-8.05,1.88s-2.9,2.89-2.9,5.01c0,1.74,.65,3.19,1.94,4.34s2.97,1.72,5.04,1.72Z"/><path class="cls-1" d="M262.38,605.01c0-.65,.21-1.19,.63-1.64s1-.67,1.72-.67,1.31,.22,1.74,.67c.43,.45,.65,.99,.65,1.64s-.22,1.19-.65,1.63c-.43,.44-1.01,.66-1.74,.66s-1.3-.22-1.72-.66-.63-.98-.63-1.63Zm4.05,40.08h-3.45v-31.09h3.45v31.09Z"/><path class="cls-1" d="M279.05,613.99l.12,5.32c1.17-1.92,2.62-3.38,4.37-4.38,1.74-1.01,3.67-1.51,5.78-1.51,3.33,0,5.82,.94,7.44,2.82,1.63,1.88,2.45,4.69,2.47,8.45v20.4h-3.42v-20.43c-.02-2.78-.61-4.85-1.77-6.21-1.16-1.36-3.01-2.04-5.56-2.04-2.13,0-4.01,.67-5.65,2-1.64,1.33-2.85,3.13-3.63,5.39v21.29h-3.42v-31.09h3.28Z"/><path class="cls-1" d="M327.73,645.09c-.34-.98-.57-2.42-.66-4.34-1.21,1.57-2.74,2.78-4.61,3.64s-3.85,1.28-5.93,1.28c-2.99,0-5.41-.83-7.26-2.5-1.85-1.67-2.77-3.77-2.77-6.32,0-3.03,1.26-5.42,3.78-7.19,2.52-1.76,6.03-2.64,10.53-2.64h6.24v-3.54c0-2.22-.69-3.97-2.05-5.24-1.37-1.28-3.37-1.91-5.99-1.91-2.39,0-4.38,.61-5.95,1.84-1.57,1.23-2.36,2.7-2.36,4.43l-3.45-.03c0-2.47,1.15-4.61,3.45-6.42,2.3-1.81,5.12-2.72,8.48-2.72s6.2,.87,8.2,2.6c2,1.73,3.03,4.15,3.09,7.26v14.71c0,3.01,.32,5.26,.95,6.75v.34h-3.68Zm-10.81-2.47c2.3,0,4.35-.55,6.16-1.67,1.81-1.11,3.13-2.59,3.95-4.45v-6.84h-6.15c-3.43,.04-6.11,.67-8.05,1.88s-2.9,2.89-2.9,5.01c0,1.74,.65,3.19,1.94,4.34s2.97,1.72,5.04,1.72Z"/><path class="cls-1" d="M364.66,629.85c0,4.85-1.07,8.69-3.22,11.54-2.15,2.85-5.03,4.27-8.65,4.27-4.33,0-7.61-1.61-9.83-4.83l-.14,4.25h-3.22v-44.14h3.42v17.56c2.18-3.39,5.42-5.09,9.71-5.09,3.68,0,6.58,1.4,8.72,4.21,2.14,2.81,3.2,6.71,3.2,11.71v.52Zm-3.45-.6c0-4.1-.8-7.27-2.39-9.5-1.59-2.23-3.83-3.35-6.72-3.35-2.2,0-4.07,.54-5.6,1.62-1.53,1.08-2.69,2.67-3.48,4.76v14.02c1.72,3.91,4.77,5.86,9.14,5.86,2.84,0,5.05-1.12,6.65-3.36s2.4-5.6,2.4-10.06Z"/><path class="cls-1" d="M376.1,645.09h-3.45v-44.14h3.45v44.14Z"/><path class="cls-1" d="M397.48,645.66c-2.64,0-5.03-.65-7.17-1.95-2.14-1.3-3.8-3.12-4.99-5.45-1.19-2.33-1.78-4.94-1.78-7.83v-1.23c0-2.99,.58-5.68,1.74-8.08,1.16-2.4,2.77-4.28,4.84-5.65,2.07-1.37,4.31-2.05,6.72-2.05,3.77,0,6.77,1.29,8.98,3.86,2.21,2.58,3.32,6.1,3.32,10.56v1.93h-22.19v.66c0,3.53,1.01,6.46,3.03,8.81,2.02,2.35,4.56,3.52,7.63,3.52,1.84,0,3.46-.33,4.87-1s2.69-1.74,3.84-3.22l2.15,1.64c-2.53,3.66-6.2,5.49-11.01,5.49Zm-.63-29.31c-2.59,0-4.77,.95-6.54,2.84-1.77,1.9-2.85,4.44-3.23,7.64h18.65v-.37c-.1-2.99-.95-5.42-2.56-7.3s-3.72-2.82-6.32-2.82Z"/><path class="cls-1" d="M460.59,632.04c-.48,4.41-2.06,7.78-4.73,10.12-2.67,2.34-6.23,3.51-10.68,3.51-3.1,0-5.85-.78-8.23-2.33s-4.23-3.75-5.53-6.59c-1.3-2.85-1.96-6.1-1.98-9.76v-5.43c0-3.72,.65-7.01,1.95-9.89,1.3-2.87,3.18-5.09,5.62-6.65,2.44-1.56,5.25-2.34,8.44-2.34,4.48,0,8.02,1.21,10.62,3.62,2.6,2.42,4.1,5.76,4.53,10.03h-3.56c-.88-7.11-4.74-10.66-11.58-10.66-3.79,0-6.82,1.42-9.07,4.26-2.25,2.84-3.38,6.76-3.38,11.76v5.12c0,4.83,1.1,8.69,3.29,11.56,2.19,2.88,5.16,4.31,8.9,4.31s6.48-.89,8.36-2.66,3.04-4.43,3.48-7.98h3.56Z"/><path class="cls-1" d="M482.75,616.92c-.73-.14-1.5-.2-2.33-.2-2.15,0-3.96,.6-5.45,1.8-1.49,1.2-2.54,2.94-3.18,5.22v21.35h-3.42v-31.09h3.36l.06,4.94c1.82-3.68,4.74-5.52,8.77-5.52,.96,0,1.71,.12,2.27,.37l-.09,3.13Z"/><path class="cls-1" d="M498.04,640.14l9.08-26.15h3.71l-13.28,36.38-.69,1.61c-1.7,3.77-4.34,5.66-7.9,5.66-.82,0-1.71-.13-2.64-.4l-.03-2.84,1.78,.17c1.69,0,3.05-.42,4.09-1.25,1.04-.83,1.93-2.27,2.66-4.3l1.52-4.2-11.72-30.84h3.76l9.66,26.15Z"/><path class="cls-1" d="M541.14,629.85c0,4.85-1.07,8.69-3.22,11.54-2.15,2.85-5.02,4.27-8.62,4.27-4.25,0-7.51-1.5-9.77-4.48v15.86h-3.42v-43.05h3.19l.17,4.4c2.24-3.32,5.49-4.97,9.74-4.97,3.72,0,6.63,1.41,8.75,4.23,2.12,2.81,3.17,6.72,3.17,11.72v.49Zm-3.45-.6c0-3.96-.82-7.1-2.44-9.4s-3.9-3.45-6.81-3.45c-2.11,0-3.92,.51-5.43,1.52-1.51,1.02-2.67,2.49-3.48,4.43v14.92c.82,1.78,2,3.14,3.53,4.08,1.53,.94,3.34,1.41,5.43,1.41,2.89,0,5.15-1.15,6.77-3.46,1.62-2.31,2.43-5.66,2.43-10.04Z"/><path class="cls-1" d="M554.11,606.03v7.96h6.44v2.81h-6.44v20.74c0,1.73,.31,3.01,.93,3.86s1.66,1.27,3.12,1.27c.58,0,1.5-.1,2.79-.29l.14,2.79c-.9,.32-2.13,.48-3.68,.48-2.36,0-4.07-.68-5.15-2.05s-1.61-3.39-1.61-6.05v-20.75h-5.72v-2.81h5.72v-7.96h3.45Z"/><path class="cls-1" d="M565.2,629.08c0-2.99,.58-5.68,1.74-8.07,1.16-2.4,2.8-4.26,4.91-5.59,2.12-1.33,4.52-2,7.2-2,4.14,0,7.49,1.45,10.06,4.35,2.57,2.9,3.85,6.75,3.85,11.54v.72c0,3.01-.58,5.71-1.74,8.12s-2.79,4.26-4.9,5.56-4.51,1.95-7.21,1.95c-4.12,0-7.47-1.45-10.04-4.35-2.58-2.9-3.87-6.75-3.87-11.54v-.69Zm3.45,.95c0,3.72,.96,6.77,2.89,9.15,1.93,2.39,4.45,3.58,7.57,3.58s5.62-1.19,7.54-3.58c1.93-2.39,2.89-5.53,2.89-9.44v-.66c0-2.37-.44-4.55-1.32-6.52-.88-1.97-2.12-3.5-3.71-4.58-1.59-1.08-3.41-1.62-5.46-1.62-3.07,0-5.57,1.2-7.5,3.61s-2.9,5.55-2.9,9.44v.63Z"/><path class="cls-1" d="M611.55,642.76c2.39,0,4.4-.67,6.02-2.02,1.62-1.35,2.5-3.1,2.63-5.25h3.31c-.1,1.9-.69,3.63-1.78,5.19-1.09,1.56-2.54,2.78-4.35,3.66-1.81,.88-3.75,1.32-5.82,1.32-4.08,0-7.31-1.42-9.7-4.25-2.39-2.84-3.58-6.65-3.58-11.44v-1.04c0-3.06,.54-5.77,1.61-8.13,1.07-2.36,2.61-4.18,4.61-5.46,2-1.28,4.34-1.92,7.03-1.92,3.41,0,6.22,1.01,8.44,3.04,2.21,2.03,3.39,4.71,3.55,8.02h-3.31c-.15-2.43-1.03-4.4-2.63-5.89s-3.62-2.24-6.05-2.24c-3.1,0-5.51,1.12-7.23,3.36s-2.57,5.38-2.57,9.43v1c0,3.97,.86,7.06,2.57,9.28s4.13,3.33,7.26,3.33Z"/><path class="cls-1" d="M628.48,629.08c0-2.99,.58-5.68,1.74-8.07,1.16-2.4,2.8-4.26,4.91-5.59,2.12-1.33,4.52-2,7.2-2,4.14,0,7.49,1.45,10.06,4.35,2.57,2.9,3.85,6.75,3.85,11.54v.72c0,3.01-.58,5.71-1.74,8.12s-2.79,4.26-4.9,5.56c-2.11,1.3-4.51,1.95-7.21,1.95-4.12,0-7.47-1.45-10.04-4.35-2.58-2.9-3.87-6.75-3.87-11.54v-.69Zm3.45,.95c0,3.72,.96,6.77,2.89,9.15,1.93,2.39,4.45,3.58,7.57,3.58s5.62-1.19,7.54-3.58c1.93-2.39,2.89-5.53,2.89-9.44v-.66c0-2.37-.44-4.55-1.32-6.52-.88-1.97-2.12-3.5-3.71-4.58-1.59-1.08-3.41-1.62-5.46-1.62-3.07,0-5.57,1.2-7.5,3.61s-2.9,5.55-2.9,9.44v.63Z"/><path class="cls-1" d="M663.14,605.01c0-.65,.21-1.19,.63-1.64,.42-.45,1-.67,1.72-.67s1.31,.22,1.74,.67,.65,.99,.65,1.64-.22,1.19-.65,1.63-1.01,.66-1.74,.66-1.3-.22-1.72-.66c-.42-.44-.63-.98-.63-1.63Zm4.05,40.08h-3.45v-31.09h3.45v31.09Z"/><path class="cls-1" d="M679.81,613.99l.11,5.32c1.17-1.92,2.63-3.38,4.37-4.38,1.74-1.01,3.67-1.51,5.78-1.51,3.33,0,5.82,.94,7.44,2.82s2.45,4.69,2.47,8.45v20.4h-3.42v-20.43c-.02-2.78-.61-4.85-1.77-6.21-1.16-1.36-3.01-2.04-5.56-2.04-2.13,0-4.01,.67-5.65,2-1.64,1.33-2.85,3.13-3.63,5.39v21.29h-3.42v-31.09h3.28Z"/></g></g></g></svg>