<svg clip-rule="evenodd" fill-rule="evenodd" stroke-linejoin="round" stroke-miterlimit="1.41421" viewBox="0 0 1280 1280" xmlns="http://www.w3.org/2000/svg" xmlns:xlink="http://www.w3.org/1999/xlink"><clipPath id="a"><path clip-rule="evenodd" d="m0 0h1280v1280h-1280z"/></clipPath><g><path d="m0 0h1280v1280h-1280z" fill="none"/><g clip-path="url(#a)"><path d="m645.897 997.002c-4.066.345-7.288.425-9.259.429-64.344.13-116.584-52.24-116.584-116.585 0-.517.003-1.032.01-1.547v-1.639h-.01v-123.585h.01c39.047-.609 135.395 7.898 188.528 81.807 13.757 19.136 21.862 42.602 21.862 67.946 0 15.211-2.92 29.745-8.229 43.072l-.036-.03c-3.406 9.033-12.469 27.645-36.113 39.499-3.805 1.907-7.69 3.489-11.536 4.799 16.969-64.96-5.212-159.071-103.759-204.296 59.849 37.101 107.124 130.525 75.116 210.13z" transform="matrix(5.25916 0 0 5.25916 -2648.31 -3965.65)"/></g></g></svg>