<svg xmlns="http://www.w3.org/2000/svg" viewBox="0 0 935.98 768"><defs><style>.cls-1{fill-rule:evenodd;}</style></defs><g id="Layer_2" data-name="Layer 2"><g id="Layer_1-2" data-name="Layer 1"><path class="cls-1" d="M508.71,479.3c-8,.68-14.37.84-18.26.85-126.94.26-230-103.06-230-230,0-1,0-2,0-3.05v-3.24h0V.06h0c77-1.2,267.11,15.58,371.93,161.39a230.06,230.06,0,0,1,26.89,219l-.07-.06c-6.72,17.82-24.6,54.54-71.24,77.93a180.94,180.94,0,0,1-22.76,9.46c33.48-128.15-10.28-313.81-204.7-403C478.59,138,571.86,322.26,508.71,479.3Z"/><path d="M0,765.64V600.14H74q25.05,0,40.19,14.42t15.13,37.12q0,22-15.13,36.41T74,702.51H28.37v63.13ZM69.74,624H28.37v55.32H69.51q14.89,0,23-7.68t8.15-20.21q0-12.06-8-19.75T69.74,624Z"/><path d="M252.73,750.5a78.37,78.37,0,0,1-22.1,13.24A69.9,69.9,0,0,1,205.68,768,59.8,59.8,0,0,1,182,763.27a58,58,0,0,1-19.15-13,62.91,62.91,0,0,1-17.49-43.74,66.09,66.09,0,0,1,4.37-24.23,59.1,59.1,0,0,1,12.06-19.39,56.34,56.34,0,0,1,41.25-17.61,54,54,0,0,1,40.08,17.26,58.63,58.63,0,0,1,11.7,19.26,68.48,68.48,0,0,1,4.25,24.47v6.62H171.64a37.19,37.19,0,0,0,11.94,23.17,33.65,33.65,0,0,0,23.52,9.22,42.19,42.19,0,0,0,15.72-2.95,34.38,34.38,0,0,0,12.42-8.16Zm-49.88-83.45a27.77,27.77,0,0,0-20.1,8q-8.28,8-10.64,21.51h61.71q-2.37-13-10.76-21.28A27.79,27.79,0,0,0,202.85,667.05Z"/><path d="M388.91,750.5a78.55,78.55,0,0,1-22.11,13.24A69.84,69.84,0,0,1,341.86,768a59.73,59.73,0,0,1-23.64-4.73,57.85,57.85,0,0,1-19.15-13,63,63,0,0,1-17.5-43.74A66.1,66.1,0,0,1,286,682.3,59.24,59.24,0,0,1,298,662.91a56.35,56.35,0,0,1,41.26-17.61,54,54,0,0,1,40.07,17.26A58.3,58.3,0,0,1,391,681.82a68.48,68.48,0,0,1,4.26,24.47v6.62H307.81a37.19,37.19,0,0,0,11.94,23.17,33.67,33.67,0,0,0,23.53,9.22A42.27,42.27,0,0,0,359,742.35a34.42,34.42,0,0,0,12.41-8.16ZM339,667.05a27.75,27.75,0,0,0-20.09,8q-8.28,8-10.64,21.51H370q-2.37-13-10.76-21.28A27.76,27.76,0,0,0,339,667.05Z"/><path d="M422.48,765.64V647.19h26.71V673q4.72-13.47,13.12-20.69a29.07,29.07,0,0,1,19.51-7.21,57.81,57.81,0,0,1,5.91.71,32.18,32.18,0,0,1,5.67,1.66v23.4a29.54,29.54,0,0,0-7-2.13,43.24,43.24,0,0,0-7.69-.71,30.42,30.42,0,0,0-17.25,5.21,35.49,35.49,0,0,0-12.3,14.42v78Z"/><path d="M565.75,744.36a38.75,38.75,0,0,0,16-3.31,33.83,33.83,0,0,0,12.65-9.7l16.08,16.08a59.37,59.37,0,0,1-20.57,15A61.94,61.94,0,0,1,564.09,768a58.94,58.94,0,0,1-23.52-4.73,58.17,58.17,0,0,1-19-13,60.51,60.51,0,0,1-12.65-19.62,63.38,63.38,0,0,1-4.61-24.12,62.48,62.48,0,0,1,4.61-24,59.18,59.18,0,0,1,55.2-37,66.93,66.93,0,0,1,26.13,5.21,60.07,60.07,0,0,1,21.16,14.65l-16.55,17.26a42.72,42.72,0,0,0-13.72-10.4A37.45,37.45,0,0,0,565,668.7q-14.19,0-24.12,11T531,706.53q0,16.08,9.93,27A32.23,32.23,0,0,0,565.75,744.36Z"/><path d="M624.38,706.53A63.06,63.06,0,0,1,629,682.3a60.38,60.38,0,0,1,12.53-19.39A57.83,57.83,0,0,1,660.43,650a61.17,61.17,0,0,1,47.17,0,59.68,59.68,0,0,1,18.91,12.88A57.82,57.82,0,0,1,739,682.3a64.73,64.73,0,0,1,4.49,24.23,63.92,63.92,0,0,1-4.61,24.35,60.07,60.07,0,0,1-12.53,19.51,58,58,0,0,1-18.91,12.88,60.87,60.87,0,0,1-47.05,0,56.94,56.94,0,0,1-18.91-13A61.82,61.82,0,0,1,629,730.76,63,63,0,0,1,624.38,706.53ZM684,744.83A29.93,29.93,0,0,0,707.72,734q9.33-10.86,9.33-27.18,0-16.78-9.45-27.66a31.26,31.26,0,0,0-47.41,0q-9.33,10.88-9.33,27.66,0,16.54,9.33,27.3A30.07,30.07,0,0,0,684,744.83Z"/><path d="M784.43,623.07a16.14,16.14,0,0,1-11.7-4.72,15.56,15.56,0,0,1-4.85-11.59,17,17,0,0,1,16.55-16.55,16.15,16.15,0,0,1,11.82,5,15.88,15.88,0,0,1,5,11.58,15.56,15.56,0,0,1-4.85,11.59A16.44,16.44,0,0,1,784.43,623.07Zm13.48,24.12V765.64H771.19V647.19Z"/><path d="M830.77,765.64V647.19h26.71v19.39a46.36,46.36,0,0,1,16.2-15.84,42.49,42.49,0,0,1,21.4-5.44q18,0,29.43,11.94T936,687.62v78H909.26V695.18q0-12.76-7.09-20.57t-18.92-7.8a29,29,0,0,0-14.53,3.67A33.87,33.87,0,0,0,857.48,681v84.64Z"/></g></g></svg>