<svg id="el_XQUaVXv5E" data-name="Layer 1" xmlns="http://www.w3.org/2000/svg" viewBox="0 0 600 582"><style>@-webkit-keyframes el_ISOAI7Ylf7c_Animation{9.17%{opacity: 1;}32.50%{opacity: 0;}57.50%{opacity: 1;}87.50%{opacity: 0;}0%{opacity: 1;}}@keyframes el_ISOAI7Ylf7c_Animation{9.17%{opacity: 1;}32.50%{opacity: 0;}57.50%{opacity: 1;}87.50%{opacity: 0;}0%{opacity: 1;}}@-webkit-keyframes el_fXemcx48a3A_Animation{0%{opacity: 0;}17.50%{opacity: 1;}45%{opacity: 0;}75%{opacity: 1;}100%{opacity: 0;}}@keyframes el_fXemcx48a3A_Animation{0%{opacity: 0;}17.50%{opacity: 1;}45%{opacity: 0;}75%{opacity: 1;}100%{opacity: 0;}}@-webkit-keyframes el_iL0WhNwEHP2_Animation{0%{opacity: 0;}10%{opacity: 1;}36.67%{opacity: 1;}47.50%{opacity: 0;}57.50%{opacity: 1;}90%{opacity: 1;}100%{opacity: 0;}}@keyframes el_iL0WhNwEHP2_Animation{0%{opacity: 0;}10%{opacity: 1;}36.67%{opacity: 1;}47.50%{opacity: 0;}57.50%{opacity: 1;}90%{opacity: 1;}100%{opacity: 0;}}@-webkit-keyframes el_-9sYaod5m3E_Animation{25%{opacity: 1;}32.50%{opacity: 0;}40%{opacity: 1;}60%{opacity: 1;}67.50%{opacity: 0;}75%{opacity: 1;}0%{opacity: 1;}100%{opacity: 1;}}@keyframes el_-9sYaod5m3E_Animation{25%{opacity: 1;}32.50%{opacity: 0;}40%{opacity: 1;}60%{opacity: 1;}67.50%{opacity: 0;}75%{opacity: 1;}0%{opacity: 1;}100%{opacity: 1;}}@-webkit-keyframes el_4IjPzxjiXTE_Animation{22.50%{opacity: 1;}30%{opacity: 0;}36.67%{opacity: 1;}62.50%{opacity: 1;}70%{opacity: 0;}77.50%{opacity: 1;}}@keyframes el_4IjPzxjiXTE_Animation{22.50%{opacity: 1;}30%{opacity: 0;}36.67%{opacity: 1;}62.50%{opacity: 1;}70%{opacity: 0;}77.50%{opacity: 1;}}@-webkit-keyframes el_qmWfy85yJ6W_Animation{11.67%{opacity: 1;}50%{opacity: 0;}87.50%{opacity: 1;}0%{opacity: 1;}}@keyframes el_qmWfy85yJ6W_Animation{11.67%{opacity: 1;}50%{opacity: 0;}87.50%{opacity: 1;}0%{opacity: 1;}}@-webkit-keyframes el_0obFNVIdQ9_Animation{2.50%{opacity: 1;}15%{opacity: 0;}27.50%{opacity: 1;}47.50%{opacity: 1;}60%{opacity: 0;}72.50%{opacity: 1;}}@keyframes el_0obFNVIdQ9_Animation{2.50%{opacity: 1;}15%{opacity: 0;}27.50%{opacity: 1;}47.50%{opacity: 1;}60%{opacity: 0;}72.50%{opacity: 1;}}@-webkit-keyframes el_J_e4CHuhHgP_Animation{10%{opacity: 1;}17.50%{opacity: 0;}25%{opacity: 1;}50.83%{opacity: 1;}60%{opacity: 0;}68.33%{opacity: 1;}0%{opacity: 1;}100%{opacity: 1;}}@keyframes el_J_e4CHuhHgP_Animation{10%{opacity: 1;}17.50%{opacity: 0;}25%{opacity: 1;}50.83%{opacity: 1;}60%{opacity: 0;}68.33%{opacity: 1;}0%{opacity: 1;}100%{opacity: 1;}}@-webkit-keyframes el_dRZZQwK3w9Q_Animation{7.50%{opacity: 1;}15%{opacity: 0;}22.50%{opacity: 1;}54.17%{opacity: 1;}62.50%{opacity: 0;}70%{opacity: 1;}100%{opacity: 1;}}@keyframes el_dRZZQwK3w9Q_Animation{7.50%{opacity: 1;}15%{opacity: 0;}22.50%{opacity: 1;}54.17%{opacity: 1;}62.50%{opacity: 0;}70%{opacity: 1;}100%{opacity: 1;}}@-webkit-keyframes el_DGaAKT6fNtR_Animation{0%{opacity: 1;}12.50%{opacity: 0;}25%{opacity: 1;}50%{opacity: 1;}62.50%{opacity: 0;}75%{opacity: 1;}100%{opacity: 1;}}@keyframes el_DGaAKT6fNtR_Animation{0%{opacity: 1;}12.50%{opacity: 0;}25%{opacity: 1;}50%{opacity: 1;}62.50%{opacity: 0;}75%{opacity: 1;}100%{opacity: 1;}}@-webkit-keyframes el_FjBJ_cD5LWj_Animation{2.50%{opacity: 1;}15%{opacity: 0;}27.50%{opacity: 1;}47.50%{opacity: 1;}60%{opacity: 0;}72.50%{opacity: 1;}}@keyframes el_FjBJ_cD5LWj_Animation{2.50%{opacity: 1;}15%{opacity: 0;}27.50%{opacity: 1;}47.50%{opacity: 1;}60%{opacity: 0;}72.50%{opacity: 1;}}@-webkit-keyframes el_nfPk__mfNJ_Animation{0%{opacity: 1;}12.50%{opacity: 0;}25%{opacity: 1;}50%{opacity: 1;}62.50%{opacity: 0;}75%{opacity: 1;}100%{opacity: 1;}}@keyframes el_nfPk__mfNJ_Animation{0%{opacity: 1;}12.50%{opacity: 0;}25%{opacity: 1;}50%{opacity: 1;}62.50%{opacity: 0;}75%{opacity: 1;}100%{opacity: 1;}}@-webkit-keyframes el_ySuklOyE7Y_Animation{0%{opacity: 0;}25%{opacity: 1;}50%{opacity: 0;}75%{opacity: 1;}100%{opacity: 0;}}@keyframes el_ySuklOyE7Y_Animation{0%{opacity: 0;}25%{opacity: 1;}50%{opacity: 0;}75%{opacity: 1;}100%{opacity: 0;}}#el_XQUaVXv5E *{-webkit-animation-duration: 4s;animation-duration: 4s;-webkit-animation-iteration-count: infinite;animation-iteration-count: infinite;-webkit-animation-timing-function: cubic-bezier(0, 0, 1, 1);animation-timing-function: cubic-bezier(0, 0, 1, 1);}#el_9CzuOpZ81i{fill: #50cb69;fill-opacity: 0.1;}#el_SGCBj2FK73{fill: #ade5b8;}#el_Uv0X8vWpuR{fill: #3cb054;}#el_RhlevyHJYz{fill: #fff;}#el_9zNtH93AeQ{fill: #3cb054;}#el_3_PnKr7DgJ{fill: #fff;-webkit-transform: translate(-142.925px, 150.875px) rotate(-30deg);transform: translate(-142.925px, 150.875px) rotate(-30deg);}#el_cXs8gyZhnu{fill: #3cb054;}#el_M5IJVarpZo{fill: #fff;}#el_j_O5RRoc0j{fill: #3cb054;}#el_jC6BY_CunA{fill: #3cb054;}#el_V9ftreP3JcF{fill: #fff;}#el_nr4POIX6uGb{fill: #3cb054;}#el_ncVQpVloqr3{fill: #fff;}#el_Dg4qOIiAEi9{fill: #3cb054;}#el_jrXSzO9qeYk{fill: #fff;}#el_GAl3RkuyWIL{fill: #3cb054;}#el_pn5Zdcz-q7K{fill: #3cb054;}#el_e75wrLEdjBL{fill: #fff;}#el_cjjV4pehxlf{fill: #3cb054;}#el_7e_tcVK-Qp-{fill: #fff;-webkit-transform: translate(-103.913px, 302.569px) rotate(-60deg);transform: translate(-103.913px, 302.569px) rotate(-60deg);}#el_ZJqMXRkAZGA{fill: #3cb054;}#el_HMqSe7KTrq3{fill: #fff;}#el_QeCnbu2lfB7{fill: #3cb054;}#el_KM0a9ye4GGj{fill: #3cb054;}#el_IEV96XKkcg8{fill: #fff;}#el_EiAiq60DYBD{fill: #3cb054;}#el_Ee9k12UiWoN{fill: #fff;-webkit-transform: translate(-204.769px, 403.432px) rotate(-60deg);transform: translate(-204.769px, 403.432px) rotate(-60deg);}#el_4oWEWU9uHbA{fill: #3cb054;}#el_PqAJasGZmBL{fill: #fff;}#el_oI0fW4i0H1x{fill: #3cb054;}#el_noBOEGrxwJI{fill: #3cb054;}#el_qj0dE474Mjg{fill: #fff;}#el_QesI6fjrL7F{fill: #3cb054;}#el_VzDVu0xFYts{fill: #fff;}#el_9Ke9GbNSZ_C{fill: #3cb054;}#el_LdnWHsjy2jK{fill: #fff;}#el_Tg1KDMjrpYD{fill: #3cb054;}#el_lkh-wiy7DlU{fill: #3cb054;}#el_ooFi-MSK7gj{fill: #fff;}#el_7LJ_5RdpAWy{fill: #3cb054;}#el_or8H1Lydqm6{fill: #fff;-webkit-transform: translate(-142.922px, 224.712px) rotate(-30deg);transform: translate(-142.922px, 224.712px) rotate(-30deg);}#el_WxHEzI4N8Oi{fill: #3cb054;}#el_lqCw6KHan4p{fill: #fff;}#el_jhRk8WcFDOr{fill: #3cb054;}#el_YHHoAvXqOHJ{fill: #3cb054;}#el_-eR1CgP298K{fill: #fff;}#el_TsjvWfv7MZ7{fill: #3cb054;}#el_MwmbvSsHJlh{fill: #fff;-webkit-transform: translate(-103.907px, 504.287px) rotate(-60deg);transform: translate(-103.907px, 504.287px) rotate(-60deg);}#el_Kj_Ig3LCJWI{fill: #3cb054;}#el_GlujZNnLU1S{fill: #fff;}#el_2UO55FkBQRE{fill: #3cb054;}#el__0NwMRb_X0D{fill: #3cb054;}#el_SsFanyhGVN2{fill: #fff;}#el_5Oai1tLNm26{fill: #3cb054;}#el_vgU3ukwf_NF{fill: #fff;}#el_RRxzx6QzJNM{fill: #3cb054;}#el_jG18TtM39he{fill: #fff;}#el_UkE3z9kAsGk{fill: #3cb054;}#el_LYBrg_d3Lwi{fill: #3cb054;}#el_LS37aB7XUid{fill: #fff;}#el_AbN9YfRO0d1{fill: #3cb054;}#el_HFYdu-M00V8{fill: #fff;-webkit-transform: translate(-69.084px, 224.713px) rotate(-30deg);transform: translate(-69.084px, 224.713px) rotate(-30deg);}#el_zfTJj9NC32O{fill: #3cb054;}#el_lqEjrGNVWTZ{fill: #fff;}#el_aydNPhpd0sE{fill: #3cb054;}#el_6y-cg2FvSQX{fill: #3cb054;}#el_7wedBykvUM6{fill: #fff;}#el_g5PL6BKHvz7{fill: #3cb054;}#el_ZwONLujnvSV{fill: #fff;-webkit-transform: translate(-3.046px, 403.435px) rotate(-60deg);transform: translate(-3.046px, 403.435px) rotate(-60deg);}#el_wvCnuOo47-0{fill: #3cb054;}#el_BRoq564B4Zl{fill: #fff;}#el_uC1s3Fsigc1{fill: #3cb054;}#el_1Sdmy1_5aVh{fill: #3cb054;}#el_ErTh8CvX272{fill: #fff;}#el_Srp7P2s0LZy{fill: #3cb054;}#el_i4sO2Iiji5M{fill: #fff;}#el_IABh_Xl601F{fill: #3cb054;}#el_oQUgv-_wUQS{fill: #fff;}#el_Pyi1vhtK88x{fill: #3cb054;}#el_u2JKJKcNx7N{fill: #3cb054;}#el_5BOxacwIiXi{fill: #fff;}#el_6vgMP74cU2C{fill: #3cb054;}#el_VJQl-sS7RJj{fill: #fff;-webkit-transform: translate(-69.085px, 150.877px) rotate(-30deg);transform: translate(-69.085px, 150.877px) rotate(-30deg);}#el_x3KS-jGEwM0{fill: #3cb054;}#el_4XNs-38tBTR{fill: #fff;}#el_LP56uA88p2C{fill: #3cb054;}#el_QjJlI-gBIut{fill: #3cb054;}#el_F-0CgW2uvE4{fill: #fff;}#el_ySuklOyE7Y{-webkit-animation-name: el_ySuklOyE7Y_Animation;animation-name: el_ySuklOyE7Y_Animation;-webkit-animation-timing-function: cubic-bezier(0.42, 0, 0.58, 1);animation-timing-function: cubic-bezier(0.42, 0, 0.58, 1);}#el_nfPk__mfNJ{-webkit-animation-name: el_nfPk__mfNJ_Animation;animation-name: el_nfPk__mfNJ_Animation;-webkit-animation-timing-function: cubic-bezier(0.42, 0, 0.58, 1);animation-timing-function: cubic-bezier(0.42, 0, 0.58, 1);}#el_FjBJ_cD5LWj{-webkit-animation-name: el_FjBJ_cD5LWj_Animation;animation-name: el_FjBJ_cD5LWj_Animation;-webkit-animation-timing-function: cubic-bezier(0.42, 0, 0.58, 1);animation-timing-function: cubic-bezier(0.42, 0, 0.58, 1);}#el_DGaAKT6fNtR{-webkit-animation-name: el_DGaAKT6fNtR_Animation;animation-name: el_DGaAKT6fNtR_Animation;-webkit-animation-timing-function: cubic-bezier(0.42, 0, 0.58, 1);animation-timing-function: cubic-bezier(0.42, 0, 0.58, 1);}#el_dRZZQwK3w9Q{-webkit-animation-name: el_dRZZQwK3w9Q_Animation;animation-name: el_dRZZQwK3w9Q_Animation;-webkit-animation-timing-function: cubic-bezier(0.42, 0, 0.58, 1);animation-timing-function: cubic-bezier(0.42, 0, 0.58, 1);}#el_J_e4CHuhHgP{-webkit-animation-name: el_J_e4CHuhHgP_Animation;animation-name: el_J_e4CHuhHgP_Animation;-webkit-animation-timing-function: cubic-bezier(0.42, 0, 0.58, 1);animation-timing-function: cubic-bezier(0.42, 0, 0.58, 1);}#el_0obFNVIdQ9{-webkit-animation-name: el_0obFNVIdQ9_Animation;animation-name: el_0obFNVIdQ9_Animation;-webkit-animation-timing-function: cubic-bezier(0.42, 0, 0.58, 1);animation-timing-function: cubic-bezier(0.42, 0, 0.58, 1);}#el_qmWfy85yJ6W{-webkit-animation-name: el_qmWfy85yJ6W_Animation;animation-name: el_qmWfy85yJ6W_Animation;-webkit-animation-timing-function: cubic-bezier(0.42, 0, 0.58, 1);animation-timing-function: cubic-bezier(0.42, 0, 0.58, 1);}#el_4IjPzxjiXTE{-webkit-animation-name: el_4IjPzxjiXTE_Animation;animation-name: el_4IjPzxjiXTE_Animation;-webkit-animation-timing-function: cubic-bezier(0.42, 0, 0.58, 1);animation-timing-function: cubic-bezier(0.42, 0, 0.58, 1);}#el_-9sYaod5m3E{-webkit-animation-name: el_-9sYaod5m3E_Animation;animation-name: el_-9sYaod5m3E_Animation;-webkit-animation-timing-function: cubic-bezier(0.42, 0, 0.58, 1);animation-timing-function: cubic-bezier(0.42, 0, 0.58, 1);}#el_iL0WhNwEHP2{-webkit-animation-name: el_iL0WhNwEHP2_Animation;animation-name: el_iL0WhNwEHP2_Animation;-webkit-animation-timing-function: cubic-bezier(0.42, 0, 0.58, 1);animation-timing-function: cubic-bezier(0.42, 0, 0.58, 1);}#el_fXemcx48a3A{-webkit-animation-name: el_fXemcx48a3A_Animation;animation-name: el_fXemcx48a3A_Animation;}#el_ISOAI7Ylf7c{-webkit-animation-name: el_ISOAI7Ylf7c_Animation;animation-name: el_ISOAI7Ylf7c_Animation;}</style><defs/><title>efficient-and-sustainable</title><g id="el_y85ceBfZjx"><circle cx="297.404" cy="292.11" r="246.127" id="el_9CzuOpZ81i"/></g><g id="el_ySuklOyE7Y" data-name="Background 1"><circle cx="297.401" cy="292.109" r="101.303" id="el_SGCBj2FK73"/></g><g id="el_nfPk__mfNJ" data-name="Left laptop C"><path d="M210.254,343.724q1.253,2.111,2.606,4.157l-21.327,20.588a2.914,2.914,0,0,1-1.668.673H112.552c-1.943-.152-3.1-2.695-1.7-4.1a2.629,2.629,0,0,1,1.7-.7H188.9Z" id="el_Uv0X8vWpuR"/><circle cx="111.125" cy="366.741" r="7.619" id="el_RhlevyHJYz"/><path d="M111.255,356.234c6.927.134,12.6,8.3,9.334,15.064-2.842,5.9-11.8,7.732-16.719,3.048-5.746-5.481-2.678-17.8,6.984-18.11C110.989,356.234,111.125,356.233,111.255,356.234Zm-.192,5.778c-4.04.079-6.718,7-1.78,9.089,3.384,1.431,8.068-2.461,6.08-6.459A4.834,4.834,0,0,0,111.062,362.012Z" id="el_9zNtH93AeQ"/><circle cx="210.074" cy="342.137" r="7.619" id="el_3_PnKr7DgJ"/><path d="M210.173,331.631c6.8.112,12.364,7.877,9.6,14.539-3.149,7.6-16.827,8.609-19.756-.962-1.864-6.11,2.908-13.439,9.9-13.576C210.048,331.629,210.043,331.632,210.173,331.631ZM210,337.408c-3.676.073-6.325,5.408-3.052,8.285,2.9,2.548,8.849-.2,7.713-4.709A4.871,4.871,0,0,0,210,337.408Z" id="el_cXs8gyZhnu"/></g><g id="el_BwKagkUptx" data-name="Left laptop"><path d="M81.426,349.93a3.211,3.211,0,0,0-3.211-3.209H38.758a3.211,3.211,0,0,0-3.211,3.209v25.675a3.211,3.211,0,0,0,3.211,3.209H78.214a3.211,3.211,0,0,0,3.211-3.209Z" id="el_M5IJVarpZo"/><path d="M90.128,384.91a1.568,1.568,0,0,1,1.64,1.625v1.643a6.634,6.634,0,0,1-6.554,6.554H32.779a6.634,6.634,0,0,1-6.554-6.554v-1.643a1.567,1.567,0,0,1,1.639-1.625H52.339a3.2,3.2,0,0,0,1.024,2.185,3.117,3.117,0,0,0,2.356,1.083h6.247a3.312,3.312,0,0,0,2.356-.874,3.476,3.476,0,0,0,1.024-2.394Zm-4.915-37.7v34.414H32.779V347.21a4.894,4.894,0,0,1,4.915-4.911H80.3a4.894,4.894,0,0,1,4.917,4.911Zm-6.554,27.86V348.852H39.334V375.07Z" id="el_j_O5RRoc0j"/></g><g id="el_0obFNVIdQ9" data-name="Left monitor C"><path d="M196.147,289.708q-.029,1.2-.028,2.4t.028,2.4H82.31l-.919-.182-.779-.52-.521-.779a3.165,3.165,0,0,1,0-1.837l.521-.779a3.17,3.17,0,0,1,1.7-.7Z" id="el_jC6BY_CunA"/><circle cx="82.318" cy="292.109" r="7.619" id="el_V9ftreP3JcF"/><path d="M82.448,281.6c6.921.134,12.6,8.3,9.334,15.064-2.842,5.9-11.8,7.731-16.713,3.049-5.774-5.5-2.678-17.923,7.108-18.113Zm-.192,5.778c-4.04.078-6.718,7-1.78,9.089,3.418,1.446,8.131-2.582,6.029-6.56A4.85,4.85,0,0,0,82.256,287.379Z" id="el_nr4POIX6uGb"/><circle cx="196.564" cy="291.703" r="7.619" id="el_ncVQpVloqr3"/><path d="M196.694,281.2c6.927.131,12.6,8.3,9.334,15.064-2.842,5.9-11.8,7.733-16.719,3.048-5.769-5.5-2.673-17.927,7.114-18.113Zm-.192,5.778c-4.051.077-6.718,7-1.78,9.089,3.435,1.454,8.148-2.66,6-6.61A4.826,4.826,0,0,0,196.5,286.973Z" id="el_Dg4qOIiAEi9"/></g><g id="el_INVRCnLfsXv" data-name="Left monitor"><path d="M56.447,274.41a2.943,2.943,0,0,0-2.941-2.94H4.928a2.943,2.943,0,0,0-2.941,2.94v23.522a2.943,2.943,0,0,0,2.941,2.94H53.506a2.943,2.943,0,0,0,2.941-2.94Z" id="el_jrXSzO9qeYk"/><path d="M54.071,268.208a4.894,4.894,0,0,1,4.917,4.911v29.5a4.893,4.893,0,0,1-4.917,4.911H4.917A4.721,4.721,0,0,1,1.433,306.1,4.742,4.742,0,0,1,0,302.622v-29.5a4.742,4.742,0,0,1,1.433-3.478,4.719,4.719,0,0,1,3.483-1.434ZM4.917,273.731v23.98H54.071v-23.98a.61.61,0,0,0-.2-.4.583.583,0,0,0-.409-.21H5.53a.583.583,0,0,0-.409.21A.61.61,0,0,0,4.917,273.731Zm44.24,44.447a2.446,2.446,0,0,1-2.457,2.464H12.289a2.446,2.446,0,0,1-2.457-2.464,2.447,2.447,0,0,1,2.457-2.448H22.428L24.272,310a1.181,1.181,0,0,1,1.229-.822h7.987a1.181,1.181,0,0,1,1.229.822l1.844,5.732H46.7a2.447,2.447,0,0,1,2.457,2.448Z" id="el_GAl3RkuyWIL"/></g><g id="el_J_e4CHuhHgP" data-name="Left tablet C"><path d="M209.84,241.2l-22.55-21.32H112.552a3.2,3.2,0,0,1-1.7-.7,2.5,2.5,0,0,1,1.7-4.1h75.694l.362.027a2.189,2.189,0,0,1,1.287.629l22.517,21.289Q211.077,239.077,209.84,241.2Z" id="el_pn5Zdcz-q7K"/><circle cx="111.125" cy="217.477" r="7.619" id="el_e75wrLEdjBL"/><path d="M111.255,206.969c6.927.134,12.6,8.3,9.334,15.064-2.842,5.9-11.8,7.731-16.713,3.049-5.741-5.468-2.684-17.8,6.978-18.11C110.989,206.969,111.125,206.969,111.255,206.969Zm-.192,5.778c-4.045.079-6.718,7-1.78,9.089,3.424,1.448,8.114-2.605,6.029-6.56A4.844,4.844,0,0,0,111.062,212.747Z" id="el_cjjV4pehxlf"/><circle cx="210.076" cy="241.276" r="7.619" id="el_7e_tcVK-Qp-"/><path d="M210.226,230.767c7.392.147,13.081,9.584,8.6,16.334-4.093,6.152-15.258,5.658-18.4-1.68-2.627-6.129,1.915-14.346,9.3-14.648C209.887,230.767,210.057,230.766,210.226,230.767Zm-.191,5.778c-4.182.068-6.483,7.127-1.781,9.1,3.662,1.534,8.964-3.6,5.295-7.578A4.6,4.6,0,0,0,210.035,236.545Z" id="el_ZJqMXRkAZGA"/></g><g id="el_o8J_YBC1tPM" data-name="Left tablet"><path d="M89.1,197.714a4.13,4.13,0,0,0-4.126-4.126H51.966a4.13,4.13,0,0,0-4.126,4.126v37.6a4.13,4.13,0,0,0,4.126,4.126H84.977a4.13,4.13,0,0,0,4.126-4.126Z" id="el_HMqSe7KTrq3"/><path d="M86.187,190.831a4.894,4.894,0,0,1,4.917,4.911v42.611a4.893,4.893,0,0,1-4.917,4.911H50.141a4.893,4.893,0,0,1-4.917-4.911V195.743a4.894,4.894,0,0,1,4.917-4.911ZM68.164,240a3.334,3.334,0,1,0-2.3-.979A3.163,3.163,0,0,0,68.164,240Zm18.023-11.064v-31.95a1.238,1.238,0,0,0-1.229-1.241H51.37a1.238,1.238,0,0,0-1.229,1.241v31.95a1.208,1.208,0,0,0,1.229,1.223H84.959a1.208,1.208,0,0,0,1.229-1.223Z" id="el_QeCnbu2lfB7"/></g><g id="el_-9sYaod5m3E" data-name="Bottom tablet C"><path d="M241.65,376.669q2.044,1.352,4.157,2.607L225.19,400.634v76.344a3.2,3.2,0,0,1-.7,1.7,2.5,2.5,0,0,1-4.1-1.7V399.664a2.912,2.912,0,0,1,.674-1.667Z" id="el_KM0a9ye4GGj"/><circle cx="222.79" cy="478.415" r="7.619" id="el_IEV96XKkcg8"/><path d="M222.925,467.911c6.906.13,12.551,8.181,9.389,14.95-2.774,5.933-11.711,7.876-16.682,3.249-5.831-5.43-2.692-17.894,6.888-18.2Zm-.2,5.774c-3.313.068-5.867,4.249-3.924,7.277,2.2,3.435,9.607,2.011,8.643-3.384A4.858,4.858,0,0,0,222.728,473.686Z" id="el_EiAiq60DYBD"/><circle cx="246.997" cy="379.051" r="7.619" id="el_Ee9k12UiWoN"/><path d="M247.147,368.548c8.2.159,14.232,12.183,6.589,18.568-4.984,4.162-13.844,2.237-16.444-4.033-2.563-6.184,2.037-14.326,9.477-14.538C246.895,368.546,247.024,368.542,247.147,368.548Zm-.191,5.775c-4.188.068-6.441,7.144-1.782,9.1,3.645,1.53,8.92-3.554,5.338-7.533A4.813,4.813,0,0,0,246.956,374.323Z" id="el_4oWEWU9uHbA"/></g><g id="el_vXS7CuA5ak8" data-name="Bottom tablet"><path d="M241.39,512.7a3.869,3.869,0,0,0-3.865-3.865H206.6a3.869,3.869,0,0,0-3.865,3.865v38.878a3.869,3.869,0,0,0,3.865,3.865h30.92a3.869,3.869,0,0,0,3.865-3.865Z" id="el_PqAJasGZmBL"/><path d="M240.081,505.621A4.894,4.894,0,0,1,245,510.532v42.611a4.893,4.893,0,0,1-4.917,4.911H204.035a4.893,4.893,0,0,1-4.917-4.911V510.532a4.894,4.894,0,0,1,4.917-4.911Zm-18.023,49.166a3.334,3.334,0,1,0-2.3-.979A3.163,3.163,0,0,0,222.058,554.787Zm18.023-11.064v-31.95a1.238,1.238,0,0,0-1.229-1.241H205.263a1.238,1.238,0,0,0-1.229,1.241v31.95a1.208,1.208,0,0,0,1.229,1.223h33.589a1.208,1.208,0,0,0,1.229-1.223Z" id="el_oI0fW4i0H1x"/></g><g id="el_fXemcx48a3A" data-name="Bottom phone C"><path d="M295.021,393.384q1.2.027,2.4.028t2.4-.028V507.22l-.183.918a3.167,3.167,0,0,1-1.3,1.3l-.919.183-.919-.183-.779-.52a3.17,3.17,0,0,1-.7-1.7Z" id="el_noBOEGrxwJI"/><circle cx="297.427" cy="507.221" r="7.619" id="el_qj0dE474Mjg"/><path d="M297.562,496.717c6.923.136,12.6,8.3,9.334,15.063-2.844,5.9-11.807,7.735-16.719,3.045-5.772-5.5-2.674-17.917,7.114-18.109Zm-.2,5.774c-4.053.079-6.738,7.063-1.724,9.114,3.41,1.4,8.061-2.627,5.973-6.582A4.689,4.689,0,0,0,297.366,502.492Z" id="el_QesI6fjrL7F"/><circle cx="297.427" cy="392.563" r="7.619" id="el_VzDVu0xFYts"/><path d="M297.562,382.06c6.933.13,12.6,8.3,9.335,15.063-2.844,5.9-11.807,7.735-16.719,3.045-5.78-5.509-2.573-17.928,7.115-18.109Zm-.2,5.774c-4.064.079-6.634,7.035-1.776,9.091,3.392,1.435,8.058-2.48,6.078-6.458A4.713,4.713,0,0,0,297.365,387.834Z" id="el_9Ke9GbNSZ_C"/></g><g id="el_-bSv6IFgL3L" data-name="Bottom phone"><path d="M311.552,536.372a2.969,2.969,0,0,0-2.966-2.966H284.855a2.969,2.969,0,0,0-2.966,2.966v40.665A2.969,2.969,0,0,0,284.855,580h23.731a2.969,2.969,0,0,0,2.966-2.966Z" id="el_LdnWHsjy2jK"/><path d="M308.871,530.518a4.894,4.894,0,0,1,4.917,4.911V578.04a4.893,4.893,0,0,1-4.917,4.911H285.933a4.893,4.893,0,0,1-4.917-4.911V535.429a4.894,4.894,0,0,1,4.917-4.911ZM302.317,576.8V576a1.238,1.238,0,0,0-1.229-1.241h-7.372A1.241,1.241,0,0,0,292.486,576v.8a1.241,1.241,0,0,0,1.231,1.241h7.372a1.238,1.238,0,0,0,1.229-1.241Zm6.554-8.179V536.67a1.238,1.238,0,0,0-1.229-1.241H287.162a1.238,1.238,0,0,0-1.229,1.241v31.95a1.208,1.208,0,0,0,1.229,1.223h20.481a1.208,1.208,0,0,0,1.229-1.223Z" id="el_Tg1KDMjrpYD"/></g><g id="el_dRZZQwK3w9Q" data-name="Bottom monitor C"><path d="M352.509,377.119l21.29,22.517a2.922,2.922,0,0,1,.657,1.65v75.693c-.2,2.527-4.528,3.477-4.8,0V402.24l-21.32-22.549Q350.455,378.454,352.509,377.119Z" id="el_lkh-wiy7DlU"/><circle cx="372.063" cy="478.415" r="7.619" id="el_ooFi-MSK7gj"/><path d="M372.2,467.911c6.953.13,12.6,8.3,9.335,15.063-2.844,5.9-11.807,7.735-16.719,3.045-5.782-5.509-2.574-17.928,7.115-18.109Zm-.2,5.774c-3.313.068-5.867,4.249-3.924,7.277,2.172,3.384,9.422,2.147,8.671-3.209A4.913,4.913,0,0,0,372,473.686Z" id="el_7LJ_5RdpAWy"/><circle cx="347.859" cy="379.053" r="7.619" id="el_or8H1Lydqm6"/><path d="M347.962,368.548c6.772.109,12.362,7.875,9.6,14.538-3.134,7.557-16.7,8.616-19.716-.837-1.955-6.12,2.832-13.483,9.734-13.7Zm-.175,5.777c-3.689.075-6.393,5.492-2.963,8.359a4.889,4.889,0,0,0,6.941-.96c1.867-2.735-.195-7.208-3.693-7.394C347.977,374.327,347.881,374.324,347.787,374.326Z" id="el_WxHEzI4N8Oi"/></g><g id="el_IvmuJXiBbHJ" data-name="Bottom monitor"><path d="M400.308,509.158a3.235,3.235,0,0,0-3.231-3.231h-48a3.235,3.235,0,0,0-3.231,3.231V535a3.235,3.235,0,0,0,3.231,3.231h48A3.235,3.235,0,0,0,400.308,535Z" id="el_lqCw6KHan4p"/><path d="M397.321,503.038a4.894,4.894,0,0,1,4.917,4.911v29.5a4.893,4.893,0,0,1-4.917,4.911H348.166a4.893,4.893,0,0,1-4.917-4.911v-29.5a4.894,4.894,0,0,1,4.917-4.911Zm-49.155,5.523v23.98h49.155v-23.98a.61.61,0,0,0-.2-.4.583.583,0,0,0-.409-.21H348.78a.583.583,0,0,0-.409.21A.61.61,0,0,0,348.166,508.561Zm44.24,44.447a2.446,2.446,0,0,1-2.457,2.464H355.539a2.446,2.446,0,0,1-2.457-2.464,2.447,2.447,0,0,1,2.457-2.448h10.139l1.844-5.732a1.181,1.181,0,0,1,1.229-.822h7.987a1.181,1.181,0,0,1,1.229.822l1.844,5.732h10.139a2.447,2.447,0,0,1,2.457,2.448Z" id="el_jhRk8WcFDOr"/></g><g id="el_ISOAI7Ylf7c" data-name="Right phone C"><path d="M384.59,343.724l21.358,20.617h76.345c.025,0,2.118.429,2.371,2.025a2.523,2.523,0,0,1-2.371,2.776H404.977a2.913,2.913,0,0,1-1.667-.673L381.984,347.88Q383.334,345.837,384.59,343.724Z" id="el_YHHoAvXqOHJ"/><circle cx="483.734" cy="366.741" r="7.619" id="el_-eR1CgP298K"/><path d="M483.875,356.234c6.927.134,12.594,8.3,9.334,15.064-2.848,5.9-11.809,7.732-16.725,3.048-5.746-5.481-2.673-17.8,6.984-18.11C483.6,356.234,483.734,356.233,483.875,356.234Zm-.2,5.778c-4.04.078-6.718,7-1.78,9.089,3.4,1.44,8.085-2.548,6.051-6.509A4.846,4.846,0,0,0,483.678,362.012Z" id="el_TsjvWfv7MZ7"/><circle cx="384.773" cy="342.13" r="7.619" id="el_MwmbvSsHJlh"/><path d="M384.927,331.624c7.425.146,13.144,9.677,8.52,16.444-4.151,6.07-15.2,5.5-18.325-1.789-2.651-6.177,2.011-14.353,9.3-14.649C384.588,331.623,384.759,331.622,384.927,331.624Zm-.191,5.778c-4.044.066-6.624,6.85-1.947,9.023,3.611,1.678,9.087-3.275,5.576-7.375A4.805,4.805,0,0,0,384.736,337.4Z" id="el_Kj_Ig3LCJWI"/></g><g id="el_NtDrVjUcpGu" data-name="Right phone"><path d="M544.708,348.683a2.74,2.74,0,0,0-2.738-2.738h-21.9a2.74,2.74,0,0,0-2.738,2.738V389.8a2.74,2.74,0,0,0,2.738,2.738h21.9a2.74,2.74,0,0,0,2.738-2.738Z" id="el_GlujZNnLU1S"/><path d="M542.681,342.3a4.894,4.894,0,0,1,4.917,4.911v42.611a4.893,4.893,0,0,1-4.917,4.911H519.743a4.893,4.893,0,0,1-4.917-4.911V347.21a4.894,4.894,0,0,1,4.917-4.911Zm-11.469,49.166a3.334,3.334,0,1,0-2.3-.979A3.163,3.163,0,0,0,531.212,391.465ZM542.681,380.4v-31.95a1.238,1.238,0,0,0-1.229-1.241H520.972a1.238,1.238,0,0,0-1.229,1.241V380.4a1.208,1.208,0,0,0,1.229,1.223h20.481a1.208,1.208,0,0,0,1.229-1.223Z" id="el_2UO55FkBQRE"/></g><g id="el_DGaAKT6fNtR" data-name="Right HDD C"><path d="M398.7,289.708H512.534l.919.182a2.793,2.793,0,0,1,1.482,2.218l-.183.918a3.16,3.16,0,0,1-1.3,1.3l-.919.182H398.7q.029-1.2.028-2.4T398.7,289.708Z" id="el__0NwMRb_X0D"/><circle cx="512.54" cy="292.109" r="7.619" id="el_SsFanyhGVN2"/><path d="M512.682,281.6c6.921.134,12.594,8.3,9.334,15.064-3.6,7.477-17.448,7.623-19.714-2.187a10.85,10.85,0,0,1,9.973-12.875C512.41,281.6,512.54,281.6,512.682,281.6Zm-.2,5.778c-4.062.079-6.673,7.017-1.78,9.089,3.69,1.56,9.006-3.6,5.3-7.58A4.793,4.793,0,0,0,512.484,287.379Z" id="el_5Oai1tLNm26"/><circle cx="398.295" cy="291.703" r="7.619" id="el_vgU3ukwf_NF"/><path d="M398.436,281.2c6.91.131,12.594,8.3,9.334,15.064-2.848,5.9-11.809,7.732-16.725,3.049-5.763-5.5-2.673-17.928,7.119-18.113Zm-.2,5.778c-4.051.077-6.718,7-1.78,9.089,3.435,1.455,8.142-2.67,6-6.611A4.867,4.867,0,0,0,398.239,286.973Z" id="el_RRxzx6QzJNM"/></g><g id="el_WEYt2sphCSA" data-name="Right HDD"><path d="M596.053,285.946l-11-15.588H556.623l-11,15.588v18.339h50.433Z" id="el_jG18TtM39he"/><path d="M599.079,285.822a4.48,4.48,0,0,1,.921,2.762v14.034a4.893,4.893,0,0,1-4.917,4.911H545.929a4.893,4.893,0,0,1-4.917-4.911V288.584a4.48,4.48,0,0,1,.921-2.762l10.754-15.468a4.277,4.277,0,0,1,1.688-1.59,5,5,0,0,1,2.305-.56h27.65a4.989,4.989,0,0,1,2.3.56,4.271,4.271,0,0,1,1.69,1.59Zm-42.4-12.707L548.693,284.6h43.625l-7.987-11.484Zm38.4,29.5V289.51H545.929v13.109Zm-3.277-6.554a3.2,3.2,0,0,1-.972,2.308,3.244,3.244,0,0,1-4.609,0,3.206,3.206,0,0,1-.974-2.308,3.277,3.277,0,0,1,6.554,0Zm-9.831,0a3.2,3.2,0,0,1-.972,2.308,3.244,3.244,0,0,1-4.609,0,3.206,3.206,0,0,1-.974-2.308,3.277,3.277,0,0,1,6.554,0Z" id="el_UkE3z9kAsGk"/></g><g id="el_iL0WhNwEHP2" data-name="Right tablet C"><path d="M382.432,237.022l22.518-21.289a2.91,2.91,0,0,1,1.649-.657h75.694l.376.029c2.305.554,2.754,4.524-.376,4.772H407.554L385,241.2Q383.768,239.077,382.432,237.022Z" id="el_LYBrg_d3Lwi"/><circle cx="483.734" cy="217.477" r="7.619" id="el_LS37aB7XUid"/><path d="M483.875,206.969c6.927.134,12.594,8.3,9.334,15.064-2.848,5.9-11.809,7.731-16.725,3.049-5.735-5.468-2.786-17.8,6.984-18.11C483.6,206.969,483.734,206.969,483.875,206.969Zm-.2,5.778c-4.04.079-6.718,7-1.78,9.089,3.362,1.423,8.029-2.421,6.1-6.407A4.857,4.857,0,0,0,483.678,212.747Z" id="el_AbN9YfRO0d1"/><circle cx="384.775" cy="241.268" r="7.619" id="el_HFYdu-M00V8"/><path d="M384.88,230.759c6.772.112,12.3,7.8,9.65,14.421-2.728,6.8-13.619,8.866-18.348,2.134-4.224-6.016-.188-16.18,8.187-16.546C384.541,230.76,384.71,230.759,384.88,230.759Zm-.174,5.777c-3.676.074-6.354,5.381-3.052,8.285a4.73,4.73,0,1,0,3.276-8.281C384.856,236.537,384.778,236.538,384.705,236.536Z" id="el_zfTJj9NC32O"/></g><g id="el_ZYKr0lg837Q" data-name="Right tablet"><path d="M551.686,196.9a4.069,4.069,0,0,0-4.065-4.065H515.1a4.069,4.069,0,0,0-4.065,4.065V235.37a4.069,4.069,0,0,0,4.065,4.065h32.519a4.069,4.069,0,0,0,4.065-4.065Z" id="el_lqEjrGNVWTZ"/><path d="M549.235,190.831a4.894,4.894,0,0,1,4.917,4.911v42.611a4.893,4.893,0,0,1-4.917,4.911H513.188a4.893,4.893,0,0,1-4.917-4.911V195.743a4.894,4.894,0,0,1,4.917-4.911Zm-11.469,46.282v-.8a1.161,1.161,0,0,0-.358-.874,1.175,1.175,0,0,0-.87-.367H525.886a1.175,1.175,0,0,0-.87.367,1.162,1.162,0,0,0-.358.874v.8a1.159,1.159,0,0,0,.358.874,1.172,1.172,0,0,0,.87.367h10.651a1.172,1.172,0,0,0,.87-.367A1.159,1.159,0,0,0,537.766,237.113Zm11.469-8.179v-31.95a1.238,1.238,0,0,0-1.229-1.241H514.417a1.238,1.238,0,0,0-1.229,1.241v31.95a1.208,1.208,0,0,0,1.229,1.223h33.589a1.208,1.208,0,0,0,1.229-1.223Z" id="el_aydNPhpd0sE"/></g><g id="el_4IjPzxjiXTE" data-name="Top phone C"><path d="M348.334,204.527l21.32-22.55V107.24a2.589,2.589,0,0,1,2.776-2.371c1.7.408,1.9.757,2.026,2.371v75.692a2.918,2.918,0,0,1-.657,1.65L352.509,207.1Q350.455,205.764,348.334,204.527Z" id="el_6y-cg2FvSQX"/><circle cx="372.063" cy="105.807" r="7.619" id="el_7wedBykvUM6"/><path d="M372.2,95.3c6.923.13,12.595,8.3,9.335,15.063-2.843,5.9-11.807,7.735-16.719,3.051-5.778-5.515-2.486-17.934,7.115-18.114Zm-.2,5.775c-4.064.079-6.676,7.017-1.777,9.091,3.434,1.452,8.162-2.633,6-6.611A4.718,4.718,0,0,0,372,101.072Z" id="el_g5PL6BKHvz7"/><circle cx="347.861" cy="204.355" r="7.619" id="el_ZwONLujnvSV"/><path d="M348.016,193.843c7.388.149,13.081,9.588,8.594,16.333-4.126,6.2-15.377,5.619-18.452-1.793-2.591-6.246,2.156-14.413,9.6-14.537C347.887,193.847,347.887,193.846,348.016,193.843Zm-.194,5.779c-4.022.066-6.622,6.85-1.945,9.022,3.613,1.681,9.137-3.317,5.54-7.417A4.833,4.833,0,0,0,347.822,199.622Z" id="el_wvCnuOo47-0"/></g><g id="el_Loq0G2xBT7j" data-name="Top phone"><path d="M384.761,33.194a2.8,2.8,0,0,0-2.794-2.794H359.611a2.8,2.8,0,0,0-2.794,2.794V74.2A2.8,2.8,0,0,0,359.611,77h22.355a2.8,2.8,0,0,0,2.794-2.794Z" id="el_BRoq564B4Zl"/><path d="M382.228,27.509a4.894,4.894,0,0,1,4.917,4.911V75.031a4.893,4.893,0,0,1-4.917,4.911H359.29a4.893,4.893,0,0,1-4.917-4.911V32.42a4.894,4.894,0,0,1,4.917-4.911ZM370.759,76.675a3.334,3.334,0,1,0-2.3-.979A3.163,3.163,0,0,0,370.759,76.675Zm11.469-11.064V33.661A1.238,1.238,0,0,0,381,32.42H360.519a1.238,1.238,0,0,0-1.229,1.241v31.95a1.208,1.208,0,0,0,1.229,1.223H381a1.208,1.208,0,0,0,1.229-1.223Z" id="el_uC1s3Fsigc1"/></g><g id="el_FjBJ_cD5LWj" data-name="Top laptop C"><path d="M295.021,190.834V77c.279-1.4.869-2.705,3.319-2.218a3.173,3.173,0,0,1,1.3,1.3l.183.919V190.834q-1.2-.029-2.4-.028T295.021,190.834Z" id="el_1Sdmy1_5aVh"/><circle cx="297.427" cy="77.001" r="7.619" id="el_ErTh8CvX272"/><path d="M297.562,66.492c6.912.13,12.6,8.3,9.335,15.063-2.844,5.9-11.807,7.735-16.719,3.051-5.779-5.515-2.486-17.934,7.114-18.114Zm-.2,5.775c-4.038.079-6.7,6.938-1.829,9.068C298.878,82.8,303.582,79,301.716,75A4.852,4.852,0,0,0,297.365,72.266Z" id="el_Srp7P2s0LZy"/><circle cx="297.422" cy="190.842" r="7.619" id="el_i4sO2Iiji5M"/><path d="M297.557,180.333c6.933.13,12.6,8.3,9.335,15.063-2.844,5.9-11.807,7.735-16.719,3.051-5.78-5.515-2.573-17.934,7.115-18.114Zm-.2,5.775c-4.064.079-6.634,7.034-1.776,9.091,3.383,1.435,8.045-2.5,6.078-6.458A4.851,4.851,0,0,0,297.36,186.108Z" id="el_IABh_Xl601F"/></g><g id="el_Z2JE99pmxbh" data-name="Top laptop"><rect x="275.082" y="4.897" width="45.879" height="32.094" id="el_oQUgv-_wUQS"/><path d="M328.538,42.612a1.568,1.568,0,0,1,1.64,1.625V45.88a6.634,6.634,0,0,1-6.554,6.554H271.189a6.634,6.634,0,0,1-6.554-6.554V44.237a1.567,1.567,0,0,1,1.639-1.625h24.474a3.2,3.2,0,0,0,1.024,2.185,3.117,3.117,0,0,0,2.356,1.083h6.247a3.312,3.312,0,0,0,2.356-.874,3.476,3.476,0,0,0,1.024-2.394Zm-4.915-37.7V39.326H271.189V4.911a4.742,4.742,0,0,1,1.433-3.478A4.718,4.718,0,0,1,276.1,0h42.6a4.719,4.719,0,0,1,3.483,1.434A4.749,4.749,0,0,1,323.623,4.911Zm-6.554,27.86V6.554H277.744V32.771Z" id="el_Pyi1vhtK88x"/></g><g id="el_qmWfy85yJ6W" data-name="Top monitor C"><path d="M241.65,207.548,221.063,186.22a2.913,2.913,0,0,1-.674-1.667V107.24c.16-2.024.69-2.535,2.777-2.371,1.7.408,1.9.757,2.025,2.371v76.344l20.617,21.357Q243.694,206.2,241.65,207.548Z" id="el_u2JKJKcNx7N"/><circle cx="222.79" cy="105.807" r="7.619" id="el_5BOxacwIiXi"/><path d="M222.925,95.3c6.923.13,12.595,8.3,9.335,15.063-2.843,5.9-11.807,7.735-16.719,3.051-5.782-5.515-2.486-17.934,7.115-18.114Zm-.2,5.775c-4.064.079-6.673,7.017-1.777,9.091,3.434,1.452,8.162-2.633,6-6.611A4.734,4.734,0,0,0,222.728,101.072Z" id="el_6vgMP74cU2C"/><circle cx="247" cy="204.353" r="7.619" id="el_VJQl-sS7RJj"/><path d="M247.1,193.843c6.759.11,12.3,7.806,9.649,14.419-2.745,6.85-13.773,8.826-18.422,2.024-4.151-6.072.019-16.172,8.393-16.439C246.844,193.841,246.973,193.844,247.1,193.843Zm-.175,5.777c-3.687.074-6.357,5.451-3.008,8.319a4.73,4.73,0,1,0,3.293-8.315C247.115,199.621,247.018,199.618,246.924,199.62Z" id="el_x3KS-jGEwM0"/></g><g id="el_mtjJbP5oe8h" data-name="Top monitor"><path d="M249.552,35.228a3.534,3.534,0,0,0-3.531-3.536h-46.43a3.534,3.534,0,0,0-3.531,3.536V63.512a3.534,3.534,0,0,0,3.531,3.536h46.43a3.534,3.534,0,0,0,3.531-3.536Z" id="el_4XNs-38tBTR"/><path d="M246.633,28.8a4.894,4.894,0,0,1,4.917,4.911v29.5a4.893,4.893,0,0,1-4.917,4.911H197.478a4.893,4.893,0,0,1-4.917-4.911v-29.5a4.894,4.894,0,0,1,4.917-4.911Zm-.613,34.414a.582.582,0,0,0,.409-.209.61.61,0,0,0,.2-.4V34.324a.61.61,0,0,0-.2-.4.583.583,0,0,0-.409-.21H198.092a.583.583,0,0,0-.409.21.61.61,0,0,0-.2.4V62.6a.61.61,0,0,0,.2.4.582.582,0,0,0,.409.209Zm-4.3,15.556a2.446,2.446,0,0,1-2.457,2.464H204.851a2.446,2.446,0,0,1-2.457-2.464,2.447,2.447,0,0,1,2.457-2.448H214.99l1.844-5.732a1.181,1.181,0,0,1,1.229-.822h7.987a1.181,1.181,0,0,1,1.229.822l1.844,5.732h10.139a2.447,2.447,0,0,1,2.457,2.448Z" id="el_LP56uA88p2C"/></g><g id="el_B6eppwgVfFj"><path d="M342.721,274.725a12.227,12.227,0,0,1,12.362,12.347v49.438a12.3,12.3,0,0,1-12.362,12.349H252.09a12.3,12.3,0,0,1-12.362-12.349V287.071a12.227,12.227,0,0,1,12.362-12.347h6.179V256.179a38.077,38.077,0,0,1,5.278-19.6A39.544,39.544,0,0,1,277.837,222.3a38.939,38.939,0,0,1,39.137,0,39.541,39.541,0,0,1,14.291,14.282,38.077,38.077,0,0,1,5.278,19.6v18.546Zm-26.775,0V256.179a18.54,18.54,0,1,0-37.08,0v18.546Z" id="el_QjJlI-gBIut"/><path d="M301.393,335.97c-.786.069-1.408.083-1.789.083a22.517,22.517,0,0,1-22.524-22.527c0-.1,0-.2,0-.3v-.317h0V289.033h0c7.544-.117,26.158,1.53,36.423,15.806a22.542,22.542,0,0,1,2.634,21.452l-.007-.007a13.985,13.985,0,0,1-6.977,7.631,17.521,17.521,0,0,1-2.229.924c3.278-12.546-1.007-30.73-20.046-39.464C298.443,302.537,307.576,320.591,301.393,335.97Z" id="el_F-0CgW2uvE4"/></g></svg>