<svg id="el_NVcl0bvYy" data-name="Layer 1" xmlns="http://www.w3.org/2000/svg" viewBox="0 0 261 258"><style>@-webkit-keyframes el_nNd1kcGEbKu_VAwK0Nf3V_Animation{30%{-webkit-transform: translate(61.7400016784668px, 80.37159729003906px) translate(-61.7400016784668px, -80.37159729003906px) translate(0px, 0px);transform: translate(61.7400016784668px, 80.37159729003906px) translate(-61.7400016784668px, -80.37159729003906px) translate(0px, 0px);}45%{-webkit-transform: translate(61.7400016784668px, 80.37159729003906px) translate(-61.7400016784668px, -80.37159729003906px) translate(0px, 55px);transform: translate(61.7400016784668px, 80.37159729003906px) translate(-61.7400016784668px, -80.37159729003906px) translate(0px, 55px);}0%{-webkit-transform: translate(61.7400016784668px, 80.37159729003906px) translate(-61.7400016784668px, -80.37159729003906px) translate(0px, 0px);transform: translate(61.7400016784668px, 80.37159729003906px) translate(-61.7400016784668px, -80.37159729003906px) translate(0px, 0px);}100%{-webkit-transform: translate(61.7400016784668px, 80.37159729003906px) translate(-61.7400016784668px, -80.37159729003906px) translate(0px, 55px);transform: translate(61.7400016784668px, 80.37159729003906px) translate(-61.7400016784668px, -80.37159729003906px) translate(0px, 55px);}}@keyframes el_nNd1kcGEbKu_VAwK0Nf3V_Animation{30%{-webkit-transform: translate(61.7400016784668px, 80.37159729003906px) translate(-61.7400016784668px, -80.37159729003906px) translate(0px, 0px);transform: translate(61.7400016784668px, 80.37159729003906px) translate(-61.7400016784668px, -80.37159729003906px) translate(0px, 0px);}45%{-webkit-transform: translate(61.7400016784668px, 80.37159729003906px) translate(-61.7400016784668px, -80.37159729003906px) translate(0px, 55px);transform: translate(61.7400016784668px, 80.37159729003906px) translate(-61.7400016784668px, -80.37159729003906px) translate(0px, 55px);}0%{-webkit-transform: translate(61.7400016784668px, 80.37159729003906px) translate(-61.7400016784668px, -80.37159729003906px) translate(0px, 0px);transform: translate(61.7400016784668px, 80.37159729003906px) translate(-61.7400016784668px, -80.37159729003906px) translate(0px, 0px);}100%{-webkit-transform: translate(61.7400016784668px, 80.37159729003906px) translate(-61.7400016784668px, -80.37159729003906px) translate(0px, 55px);transform: translate(61.7400016784668px, 80.37159729003906px) translate(-61.7400016784668px, -80.37159729003906px) translate(0px, 55px);}}@-webkit-keyframes el_nNd1kcGEbKu_Animation{15%{opacity: 0;}30%{opacity: 1;}55.00%{opacity: 1;}62%{opacity: 0;}0%{opacity: 0;}100%{opacity: 0;}}@keyframes el_nNd1kcGEbKu_Animation{15%{opacity: 0;}30%{opacity: 1;}55.00%{opacity: 1;}62%{opacity: 0;}0%{opacity: 0;}100%{opacity: 0;}}@-webkit-keyframes el_uRL1vX_BwXJ_Animation{0%{opacity: 0;}15%{opacity: 1;}35%{opacity: 0;}100%{opacity: 0;}}@keyframes el_uRL1vX_BwXJ_Animation{0%{opacity: 0;}15%{opacity: 1;}35%{opacity: 0;}100%{opacity: 0;}}@-webkit-keyframes el_uRL1vX_BwXJ_3zVngmja9_Animation{0%{-webkit-transform: translate(52.30110168457031px, 50.91823196411133px) translate(-52.30110168457031px, -50.91823196411133px) translate(-40px, 0px);transform: translate(52.30110168457031px, 50.91823196411133px) translate(-52.30110168457031px, -50.91823196411133px) translate(-40px, 0px);}15%{-webkit-transform: translate(52.30110168457031px, 50.91823196411133px) translate(-52.30110168457031px, -50.91823196411133px) translate(0px, 0px);transform: translate(52.30110168457031px, 50.91823196411133px) translate(-52.30110168457031px, -50.91823196411133px) translate(0px, 0px);}100%{-webkit-transform: translate(52.30110168457031px, 50.91823196411133px) translate(-52.30110168457031px, -50.91823196411133px) translate(0px, 0px);transform: translate(52.30110168457031px, 50.91823196411133px) translate(-52.30110168457031px, -50.91823196411133px) translate(0px, 0px);}}@keyframes el_uRL1vX_BwXJ_3zVngmja9_Animation{0%{-webkit-transform: translate(52.30110168457031px, 50.91823196411133px) translate(-52.30110168457031px, -50.91823196411133px) translate(-40px, 0px);transform: translate(52.30110168457031px, 50.91823196411133px) translate(-52.30110168457031px, -50.91823196411133px) translate(-40px, 0px);}15%{-webkit-transform: translate(52.30110168457031px, 50.91823196411133px) translate(-52.30110168457031px, -50.91823196411133px) translate(0px, 0px);transform: translate(52.30110168457031px, 50.91823196411133px) translate(-52.30110168457031px, -50.91823196411133px) translate(0px, 0px);}100%{-webkit-transform: translate(52.30110168457031px, 50.91823196411133px) translate(-52.30110168457031px, -50.91823196411133px) translate(0px, 0px);transform: translate(52.30110168457031px, 50.91823196411133px) translate(-52.30110168457031px, -50.91823196411133px) translate(0px, 0px);}}@-webkit-keyframes el_sCBS66i9sKp_Animation{0%{opacity: 0;}15%{opacity: 1;}35%{opacity: 0;}100%{opacity: 0;}}@keyframes el_sCBS66i9sKp_Animation{0%{opacity: 0;}15%{opacity: 1;}35%{opacity: 0;}100%{opacity: 0;}}@-webkit-keyframes el_sCBS66i9sKp_RpZxdji5J_Animation{0%{-webkit-transform: translate(165.4579620361328px, 50.929344177246094px) translate(-165.4579620361328px, -50.929344177246094px) translate(40px, 0px);transform: translate(165.4579620361328px, 50.929344177246094px) translate(-165.4579620361328px, -50.929344177246094px) translate(40px, 0px);}15%{-webkit-transform: translate(165.4579620361328px, 50.929344177246094px) translate(-165.4579620361328px, -50.929344177246094px) translate(0px, 0px);transform: translate(165.4579620361328px, 50.929344177246094px) translate(-165.4579620361328px, -50.929344177246094px) translate(0px, 0px);}100%{-webkit-transform: translate(165.4579620361328px, 50.929344177246094px) translate(-165.4579620361328px, -50.929344177246094px) translate(0px, 0px);transform: translate(165.4579620361328px, 50.929344177246094px) translate(-165.4579620361328px, -50.929344177246094px) translate(0px, 0px);}}@keyframes el_sCBS66i9sKp_RpZxdji5J_Animation{0%{-webkit-transform: translate(165.4579620361328px, 50.929344177246094px) translate(-165.4579620361328px, -50.929344177246094px) translate(40px, 0px);transform: translate(165.4579620361328px, 50.929344177246094px) translate(-165.4579620361328px, -50.929344177246094px) translate(40px, 0px);}15%{-webkit-transform: translate(165.4579620361328px, 50.929344177246094px) translate(-165.4579620361328px, -50.929344177246094px) translate(0px, 0px);transform: translate(165.4579620361328px, 50.929344177246094px) translate(-165.4579620361328px, -50.929344177246094px) translate(0px, 0px);}100%{-webkit-transform: translate(165.4579620361328px, 50.929344177246094px) translate(-165.4579620361328px, -50.929344177246094px) translate(0px, 0px);transform: translate(165.4579620361328px, 50.929344177246094px) translate(-165.4579620361328px, -50.929344177246094px) translate(0px, 0px);}}@-webkit-keyframes el_a4-bXc8qIrr_Animation{15%{opacity: 0;}30%{opacity: 1;}45%{opacity: 0;}0%{opacity: 0;}100%{opacity: 0;}}@keyframes el_a4-bXc8qIrr_Animation{15%{opacity: 0;}30%{opacity: 1;}45%{opacity: 0;}0%{opacity: 0;}100%{opacity: 0;}}@-webkit-keyframes el_a4-bXc8qIrr_cd_QRUkie_Animation{15%{-webkit-transform: translate(166.8599090576172px, 64.60385131835938px) translate(-166.8599090576172px, -64.60385131835938px) translate(-40px, 0px);transform: translate(166.8599090576172px, 64.60385131835938px) translate(-166.8599090576172px, -64.60385131835938px) translate(-40px, 0px);}30%{-webkit-transform: translate(166.8599090576172px, 64.60385131835938px) translate(-166.8599090576172px, -64.60385131835938px) translate(0px, 0px);transform: translate(166.8599090576172px, 64.60385131835938px) translate(-166.8599090576172px, -64.60385131835938px) translate(0px, 0px);}0%{-webkit-transform: translate(166.8599090576172px, 64.60385131835938px) translate(-166.8599090576172px, -64.60385131835938px) translate(-40px, 0px);transform: translate(166.8599090576172px, 64.60385131835938px) translate(-166.8599090576172px, -64.60385131835938px) translate(-40px, 0px);}100%{-webkit-transform: translate(166.8599090576172px, 64.60385131835938px) translate(-166.8599090576172px, -64.60385131835938px) translate(0px, 0px);transform: translate(166.8599090576172px, 64.60385131835938px) translate(-166.8599090576172px, -64.60385131835938px) translate(0px, 0px);}}@keyframes el_a4-bXc8qIrr_cd_QRUkie_Animation{15%{-webkit-transform: translate(166.8599090576172px, 64.60385131835938px) translate(-166.8599090576172px, -64.60385131835938px) translate(-40px, 0px);transform: translate(166.8599090576172px, 64.60385131835938px) translate(-166.8599090576172px, -64.60385131835938px) translate(-40px, 0px);}30%{-webkit-transform: translate(166.8599090576172px, 64.60385131835938px) translate(-166.8599090576172px, -64.60385131835938px) translate(0px, 0px);transform: translate(166.8599090576172px, 64.60385131835938px) translate(-166.8599090576172px, -64.60385131835938px) translate(0px, 0px);}0%{-webkit-transform: translate(166.8599090576172px, 64.60385131835938px) translate(-166.8599090576172px, -64.60385131835938px) translate(-40px, 0px);transform: translate(166.8599090576172px, 64.60385131835938px) translate(-166.8599090576172px, -64.60385131835938px) translate(-40px, 0px);}100%{-webkit-transform: translate(166.8599090576172px, 64.60385131835938px) translate(-166.8599090576172px, -64.60385131835938px) translate(0px, 0px);transform: translate(166.8599090576172px, 64.60385131835938px) translate(-166.8599090576172px, -64.60385131835938px) translate(0px, 0px);}}@-webkit-keyframes el_hFcHtY9t36e_Animation{15%{opacity: 0;}30%{opacity: 1;}45%{opacity: 0;}0%{opacity: 0;}100%{opacity: 0;}}@keyframes el_hFcHtY9t36e_Animation{15%{opacity: 0;}30%{opacity: 1;}45%{opacity: 0;}0%{opacity: 0;}100%{opacity: 0;}}@-webkit-keyframes el_hFcHtY9t36e_iDbWLccwg_Animation{15%{-webkit-transform: translate(51.481971740722656px, 64.61359405517578px) translate(-51.481971740722656px, -64.61359405517578px) translate(40px, 0px);transform: translate(51.481971740722656px, 64.61359405517578px) translate(-51.481971740722656px, -64.61359405517578px) translate(40px, 0px);}30%{-webkit-transform: translate(51.481971740722656px, 64.61359405517578px) translate(-51.481971740722656px, -64.61359405517578px) translate(0px, 0px);transform: translate(51.481971740722656px, 64.61359405517578px) translate(-51.481971740722656px, -64.61359405517578px) translate(0px, 0px);}0%{-webkit-transform: translate(51.481971740722656px, 64.61359405517578px) translate(-51.481971740722656px, -64.61359405517578px) translate(40px, 0px);transform: translate(51.481971740722656px, 64.61359405517578px) translate(-51.481971740722656px, -64.61359405517578px) translate(40px, 0px);}100%{-webkit-transform: translate(51.481971740722656px, 64.61359405517578px) translate(-51.481971740722656px, -64.61359405517578px) translate(0px, 0px);transform: translate(51.481971740722656px, 64.61359405517578px) translate(-51.481971740722656px, -64.61359405517578px) translate(0px, 0px);}}@keyframes el_hFcHtY9t36e_iDbWLccwg_Animation{15%{-webkit-transform: translate(51.481971740722656px, 64.61359405517578px) translate(-51.481971740722656px, -64.61359405517578px) translate(40px, 0px);transform: translate(51.481971740722656px, 64.61359405517578px) translate(-51.481971740722656px, -64.61359405517578px) translate(40px, 0px);}30%{-webkit-transform: translate(51.481971740722656px, 64.61359405517578px) translate(-51.481971740722656px, -64.61359405517578px) translate(0px, 0px);transform: translate(51.481971740722656px, 64.61359405517578px) translate(-51.481971740722656px, -64.61359405517578px) translate(0px, 0px);}0%{-webkit-transform: translate(51.481971740722656px, 64.61359405517578px) translate(-51.481971740722656px, -64.61359405517578px) translate(40px, 0px);transform: translate(51.481971740722656px, 64.61359405517578px) translate(-51.481971740722656px, -64.61359405517578px) translate(40px, 0px);}100%{-webkit-transform: translate(51.481971740722656px, 64.61359405517578px) translate(-51.481971740722656px, -64.61359405517578px) translate(0px, 0px);transform: translate(51.481971740722656px, 64.61359405517578px) translate(-51.481971740722656px, -64.61359405517578px) translate(0px, 0px);}}@-webkit-keyframes el_RJMDW0BCEBD_Animation{70%{opacity: 0;}80%{opacity: 1;}90%{opacity: 1;}100%{opacity: 0;}0%{opacity: 0;}}@keyframes el_RJMDW0BCEBD_Animation{70%{opacity: 0;}80%{opacity: 1;}90%{opacity: 1;}100%{opacity: 0;}0%{opacity: 0;}}@-webkit-keyframes el_8rptuiPO7Bu_Animation{70%{opacity: 0;}80%{opacity: 1;}90%{opacity: 1;}100%{opacity: 0;}0%{opacity: 0;}}@keyframes el_8rptuiPO7Bu_Animation{70%{opacity: 0;}80%{opacity: 1;}90%{opacity: 1;}100%{opacity: 0;}0%{opacity: 0;}}@-webkit-keyframes el_vyfslwD9fUJ_Animation{30%{opacity: 0;}50%{opacity: 1;}65%{opacity: 1;}100%{opacity: 0;}0%{opacity: 0;}}@keyframes el_vyfslwD9fUJ_Animation{30%{opacity: 0;}50%{opacity: 1;}65%{opacity: 1;}100%{opacity: 0;}0%{opacity: 0;}}@-webkit-keyframes el_DFpLqgI1olF_Animation{45%{opacity: 0;}55.00%{opacity: 1;}70%{opacity: 1;}100%{opacity: 0;}0%{opacity: 0;}}@keyframes el_DFpLqgI1olF_Animation{45%{opacity: 0;}55.00%{opacity: 1;}70%{opacity: 1;}100%{opacity: 0;}0%{opacity: 0;}}@-webkit-keyframes el_fo0Ixe_oJbd_Animation{0%{opacity: 0;}55.00%{opacity: 0;}70%{opacity: 1;}90%{opacity: 1;}100%{opacity: 0;}}@keyframes el_fo0Ixe_oJbd_Animation{0%{opacity: 0;}55.00%{opacity: 0;}70%{opacity: 1;}90%{opacity: 1;}100%{opacity: 0;}}#el_NVcl0bvYy *{-webkit-animation-duration: 10s;animation-duration: 10s;-webkit-animation-iteration-count: infinite;animation-iteration-count: infinite;-webkit-animation-timing-function: cubic-bezier(0, 0, 1, 1);animation-timing-function: cubic-bezier(0, 0, 1, 1);}#el_ofQs_w-JJk{fill: #50cb69;fill-opacity: 0.1;}#el_YE9L8GDNU8{fill: #ade5b8;}#el_7VWvnKvlsX{fill: #ade5b8;}#el_EzBgfx_KY_{fill: #3cb054;}#el_j9MmynG23f{fill: #3cb054;}#el_U373crAD7W{fill: #3cb054;}#el__8x7JPpb0R{fill: #3cb054;}#el_3WfJ-ph4Xl{fill: #fff;}#el_Dwdo-chKrr{fill: #3cb054;}#el_FMRUGePmXJ{fill: #3cb054;}#el_RGDYkBVkl1{fill: #3cb054;}#el_AuUx8EP7ky{fill: #3cb054;}#el_dQ344rAahed{fill: #fff;}#el_G4C0zYyajMN{fill: #fff;}#el_N8a9OSDL6dW{fill: #ade5b8;}#el_6Y3OvqUTKXn{fill: #3cb054;}#el_zAQJHkzm6lm{fill: #3cb054;}#el_LVKHURWpgBA{fill: #3cb054;}#el_9QyC8HMfVNP{fill: #3cb054;}#el_Wev-BG--aL7{fill: #fff;}#el_ZVe0jwCr5q_{fill: #ade5b8;}#el_7JZg0_UbA_Y{fill: #3cb054;}#el_jyM4Q_7xDAK{fill: #3cb054;}#el_6cT-1JmuQ79{fill: #3cb054;}#el_XfLdn6_bApH{fill: #3cb054;}#el_ZqoGI87R1r_{fill: #fff;}#el_XaARuSXwpbg{fill: #3cb054;}#el_j9DhSkDGXIr{fill: #3cb054;-webkit-transform: translate(-3.164px, 65.101px) rotate(-45deg);transform: translate(-3.164px, 65.101px) rotate(-45deg);}#el_eo_HHBU3dGX{fill: #3cb054;}#el_5HKnNd9rUNy{fill: #3cb054;-webkit-transform: translate(27.928px, 140.457px) rotate(-45deg);transform: translate(27.928px, 140.457px) rotate(-45deg);}#el_p5zMXPxrKH7{fill: #3cb054;}#el_mUYlOaZJ0Rs{fill: #3cb054;}#el_YvpWNTBAmlX{fill: #3cb054;}#el_pSHmVAhlTmh{fill: #fff;}#el_KXNNFHWeKWf{fill: #3cb054;}#el_29wR5IPjV4k{fill: #fff;}#el_sVT56v9O6SN{fill: #3cb054;}#el_RVXj0FgogLW{fill: #fff;}#el_L5PIFFEUxCx{fill: #3cb054;}#el_jon-vRIikYE{fill: #3cb054;}#el_uHEEdfokLbI{fill: #3cb054;}#el_YEf517AZSuK{fill: #3cb054;}#el_ME9U8hgEBbO{fill: #3cb054;}#el_E6Nzd3rdIw_{fill: #3cb054;}#el_-qWlfst38aH{fill: #3cb054;}#el_TFifvMeO9M6{fill: #3cb054;}#el_ZT7ItvXHh-H{fill: #3cb054;}#el_Mw_zzp0HYYt{fill: #3cb054;}#el_QhpE7p-6bSC{fill: #fff;}#el_FaXyvsaPghn{fill: #3cb054;}#el_RvjRFgFYLZh{fill: #fff;}#el_bWqZ2SivbAz{fill: #3cb054;}#el_XYzM2_IuWcd{fill: #fff;}#el_QPzYEPeryof{fill: #fff;}#el_ithHp1u6l8E{fill: #3cb054;}#el_U3wBsK_cjGB{fill: #3cb054;}#el_C2sGSXAlaH_{fill: #3cb054;}#el_EgClhP6-1_p{fill: #fff;}#el_qdmMv6VOj-5{fill: #3cb054;}#el_kIGZGpg0_tK{fill: #3cb054;}#el_yZTO3amniGR{fill: #fff;}#el_oeVactuv_ZM{fill: #3cb054;}#el_PShpBP7--RB{fill: #3cb054;}#el_9PGB3DmZhV7{fill: #fff;}#el_Di9tJDdapir{fill: #3cb054;}#el_J03PwBWKxH8{fill: #3cb054;}#el_zA0bLgFG9u2{fill: #fff;}#el_3EHabhKuZoJ{fill: #3cb054;}#el_fo0Ixe_oJbd{-webkit-animation-name: el_fo0Ixe_oJbd_Animation;animation-name: el_fo0Ixe_oJbd_Animation;-webkit-animation-timing-function: cubic-bezier(0, 0, 0.58, 1);animation-timing-function: cubic-bezier(0, 0, 0.58, 1);}#el_DFpLqgI1olF{-webkit-animation-name: el_DFpLqgI1olF_Animation;animation-name: el_DFpLqgI1olF_Animation;-webkit-animation-timing-function: cubic-bezier(0, 0, 0.58, 1);animation-timing-function: cubic-bezier(0, 0, 0.58, 1);}#el_vyfslwD9fUJ{-webkit-animation-name: el_vyfslwD9fUJ_Animation;animation-name: el_vyfslwD9fUJ_Animation;-webkit-animation-timing-function: cubic-bezier(0, 0, 0.58, 1);animation-timing-function: cubic-bezier(0, 0, 0.58, 1);}#el_8rptuiPO7Bu{-webkit-animation-name: el_8rptuiPO7Bu_Animation;animation-name: el_8rptuiPO7Bu_Animation;}#el_RJMDW0BCEBD{-webkit-animation-name: el_RJMDW0BCEBD_Animation;animation-name: el_RJMDW0BCEBD_Animation;}#el_hFcHtY9t36e_iDbWLccwg{-webkit-animation-name: el_hFcHtY9t36e_iDbWLccwg_Animation;animation-name: el_hFcHtY9t36e_iDbWLccwg_Animation;}#el_hFcHtY9t36e{-webkit-animation-name: el_hFcHtY9t36e_Animation;animation-name: el_hFcHtY9t36e_Animation;}#el_a4-bXc8qIrr_cd_QRUkie{-webkit-animation-name: el_a4-bXc8qIrr_cd_QRUkie_Animation;animation-name: el_a4-bXc8qIrr_cd_QRUkie_Animation;}#el_a4-bXc8qIrr{-webkit-animation-name: el_a4-bXc8qIrr_Animation;animation-name: el_a4-bXc8qIrr_Animation;}#el_sCBS66i9sKp_RpZxdji5J{-webkit-animation-name: el_sCBS66i9sKp_RpZxdji5J_Animation;animation-name: el_sCBS66i9sKp_RpZxdji5J_Animation;}#el_sCBS66i9sKp{-webkit-animation-name: el_sCBS66i9sKp_Animation;animation-name: el_sCBS66i9sKp_Animation;}#el_uRL1vX_BwXJ_3zVngmja9{-webkit-animation-name: el_uRL1vX_BwXJ_3zVngmja9_Animation;animation-name: el_uRL1vX_BwXJ_3zVngmja9_Animation;}#el_uRL1vX_BwXJ{-webkit-animation-name: el_uRL1vX_BwXJ_Animation;animation-name: el_uRL1vX_BwXJ_Animation;}#el_nNd1kcGEbKu{-webkit-animation-name: el_nNd1kcGEbKu_Animation;animation-name: el_nNd1kcGEbKu_Animation;}#el_nNd1kcGEbKu_VAwK0Nf3V{-webkit-animation-name: el_nNd1kcGEbKu_VAwK0Nf3V_Animation;animation-name: el_nNd1kcGEbKu_VAwK0Nf3V_Animation;}</style><defs/><title>s4 final version</title><g id="el_-9H_OqzAJW"><circle cx="130.33" cy="125.82" r="125.82" id="el_ofQs_w-JJk"/></g><g id="el_47gVrxL7cl"><path d="M102.344,233.606c9.793,5.654,9.81,14.811.039,20.452s-25.631,5.631-35.424-.022-9.81-14.811-.039-20.452S92.552,227.952,102.344,233.606Z" id="el_YE9L8GDNU8"/><path d="M158.311,233.607c-9.793,5.654-9.81,14.811-.039,20.452s25.631,5.631,35.424-.022,9.81-14.811.039-20.452S168.1,227.953,158.311,233.607Z" id="el_7VWvnKvlsX"/><g id="el_u0wEICbeW1" data-name="People"><path d="M87.433,169.972c2.334.023,4.41,1.617,6.59,2.887,3.286,1.913,3.577,6.806,2.63,10.378a17.182,17.182,0,0,1-.68,2.03,20.8,20.8,0,0,1-1.092,2.283s.112.07.192.117c1.177.68,2.344,1.355,3.53,2.034a5.689,5.689,0,0,1,1.519,1.4,6.8,6.8,0,0,1,1.059,3.792q.042,9.591,0,19.177a8.131,8.131,0,0,1-3.952,6.656l-1.073.619c0,6,.028,12,0,17.991a8.1,8.1,0,0,1-3.9,6.623c-2.71,1.58-5.43,3.141-8.147,4.706a4.061,4.061,0,0,1-4.048.173c-2.286-1.392-5.258-2.4-5.333-5.4V231.2c-1.339-.773-2.732-1.162-3.978-2.442a4.121,4.121,0,0,1-1.048-2.841q-.051-9.59,0-19.176a14.274,14.274,0,0,1,6.964-11.709l1.387-.8a2.737,2.737,0,0,1,.332-.15c-1.485-.853-2.979-1.659-3.818-3.328-1.928-3.839-.636-8.639,1.585-12.511C78.652,173.876,83.046,169.944,87.433,169.972Zm5.709,20.906a1.723,1.723,0,0,0-1.274-.145c-1.661-.051-2.272-1.931-1.162-3.553,1.815-2.681,3.242-5.986,2.567-9.253-.408-1.973-2.9-2.9-4.807-3.947-1.492-.783-3.232.239-4.435,1.022-4.147,2.7-7.147,7.748-6.5,12.7.017.127.037.253.061.38.395,2,2.86,2.892,4.781,3.975a3.453,3.453,0,0,0,1.541.277,1.91,1.91,0,0,1,.575,3.623,13.61,13.61,0,0,1-4.749,1.7,16.5,16.5,0,0,0-1.642.9,10.369,10.369,0,0,0-4.653,8.222c-.032,6.384-.16,12.769,0,19.153,0,.089.021.216.021.216l3.437,1.988a2.361,2.361,0,0,1,1.567,1.847c0,5.137-.128,10.275,0,15.408,0,.094.021.22.021.22l3.391,1.959a1.737,1.737,0,0,0,.368-.164c2.717-1.561,5.47-3.066,8.144-4.7a4.192,4.192,0,0,0,2-3.4V220.259a2.543,2.543,0,0,1,.588-1.359,1.762,1.762,0,0,1,.352-.263c1.917-1.106,4.055-2.48,4.088-4.608q.042-9.548,0-19.1c0-.127-.009-.253-.019-.384a1.946,1.946,0,0,0-.708-1.608l-.075-.042c-1.153-.666-2.3-1.327-3.45-1.992C93.174,190.9,93.24,190.934,93.142,190.878Z" id="el_EzBgfx_KY_"/><path d="M83.637,173.043q3.394-1.959,5.718-.725,2.326,1.269,2.325,5.027a15.178,15.178,0,0,1-2.325,7.711,16.009,16.009,0,0,1-5.718,5.878q-3.394,1.959-5.718.725-2.326-1.269-2.325-5.027a15.178,15.178,0,0,1,2.325-7.711A16.01,16.01,0,0,1,83.637,173.043Zm6.031,16.651c1.677-.968,3.1-1.146,4.274-.512,1.171.612,1.759,1.871,1.759,3.732v19.012a5.6,5.6,0,0,1-.879,2.869,5.888,5.888,0,0,1-2.136,2.211l-2.012,1.161v19.012a5.677,5.677,0,0,1-.879,2.893,6.063,6.063,0,0,1-2.136,2.211l-8.042,4.643a2.16,2.16,0,0,1-2.136.255A1.926,1.926,0,0,1,76.6,245.3V226.293l-2.012,1.161a2.105,2.105,0,0,1-2.136.255,1.892,1.892,0,0,1-.879-1.854V206.844a11.257,11.257,0,0,1,1.759-5.762,11.941,11.941,0,0,1,4.272-4.423l1.383-.8a11.244,11.244,0,0,0,4.65-1.563,20.535,20.535,0,0,0,4.65-3.806Z" id="el_j9MmynG23f"/><path d="M81.524,193.729l-3.606-2.081,11.435-19.319,3.721,2.145Z" id="el_U373crAD7W"/><path d="M81.083,249.263l-3.606-2.081.187-17.377-1.608,0-3.6-2.081.916-15.246,20.748-23.2,3.43,1.98-14.69,35.4Z" id="el__8x7JPpb0R"/><path d="M87.24,175.123q3.394-1.959,5.718-.725,2.326,1.269,2.325,5.027a15.178,15.178,0,0,1-2.325,7.711,16.009,16.009,0,0,1-5.718,5.878q-3.394,1.959-5.718.725-2.326-1.269-2.325-5.027A15.178,15.178,0,0,1,81.523,181,16.01,16.01,0,0,1,87.24,175.123Zm6.031,16.651c1.677-.968,3.1-1.146,4.274-.512,1.171.612,1.759,1.871,1.759,3.732v19.012a5.6,5.6,0,0,1-.879,2.869,5.888,5.888,0,0,1-2.136,2.211l-2.012,1.161v19.012a5.677,5.677,0,0,1-.879,2.893,6.063,6.063,0,0,1-2.136,2.211l-8.042,4.643a2.16,2.16,0,0,1-2.136.255,1.926,1.926,0,0,1-.879-1.878V228.373l-2.012,1.161a2.105,2.105,0,0,1-2.136.255,1.892,1.892,0,0,1-.879-1.854V208.924a11.257,11.257,0,0,1,1.759-5.762,11.941,11.941,0,0,1,4.272-4.423l1.383-.8a11.244,11.244,0,0,0,4.65-1.563,20.535,20.535,0,0,0,4.65-3.806Z" id="el_3WfJ-ph4Xl"/><path d="M173.346,169.969c5.624.061,10.238,5.433,12.406,10.819,1.73,4.3,2.423,10.041-2.1,12.5l-1.379.792a26.812,26.812,0,0,1,2.626,1.533,14.27,14.27,0,0,1,6.058,11.128q.046,9.584,0,19.176a3.89,3.89,0,0,1-1.838,3.441l-3.187,1.842c0,4.725.023,9.45,0,14.175a3.941,3.941,0,0,1-1.75,3.394c-2.442,1.387-4.955,3.394-7.632,1.894-2.717-1.566-5.437-3.127-8.147-4.706a8.078,8.078,0,0,1-3.9-6.623l0-17.991c-2.658-1.533-4.978-4.125-5.025-7.275q-.042-9.591,0-19.177a5.912,5.912,0,0,1,2.719-5.264c1.186-.689,2.372-1.387,3.567-2.062,0,0-2.264-5.02-2.264-8.137,0-2.541.858-5.227,3.1-6.549,2.144-1.256,4.229-2.869,6.574-2.906Zm-9.375,22.955c-.623.356-.731,1.247-.745,2-.028,6.384-.159,12.769,0,19.153a4.265,4.265,0,0,0,2.053,3.38l2.034,1.177a2.561,2.561,0,0,1,.89,1.191,1.876,1.876,0,0,1,.05.431c0,6.366-.157,12.727,0,19.088a4.25,4.25,0,0,0,2.053,3.38c2.706,1.575,5.385,3.2,8.136,4.7a2.7,2.7,0,0,0,.327.141l3.391-1.959a1.7,1.7,0,0,0,.022-.3V229.973a1.778,1.778,0,0,1,1.567-1.847l3.437-1.988a1.525,1.525,0,0,0,.021-.216c.163-6.384.031-12.769,0-19.153a10.348,10.348,0,0,0-5.1-8.5l-1.033-.6c-.083-.014-.167-.024-.25-.038a13,13,0,0,1-3.907-1.275c-1.168-.591-2.422-1.664-1.7-3.033.58-1.106,2.293-.8,3.189-1.35,2.6-1.5,5.424-2.5,4.625-7.172-.818-4.777-4.1-9.483-8.588-10.889-1.93-.6-4.021,1-5.978,2.208-1.1.68-1.218,2.17-1.218,3.3a14.353,14.353,0,0,0,3.106,8.32,2.263,2.263,0,0,1,.315,1.547c-.3,1.266-2.282,1.2-2.957,1.486C166.464,191.3,165.255,192.22,163.971,192.923Z" id="el_Dwdo-chKrr"/><path d="M177.017,173.044q-3.394-1.959-5.718-.725-2.326,1.269-2.325,5.027a15.178,15.178,0,0,0,2.325,7.711,16.009,16.009,0,0,0,5.718,5.878q3.394,1.959,5.718.725,2.326-1.269,2.325-5.027a15.178,15.178,0,0,0-2.325-7.711A16.01,16.01,0,0,0,177.017,173.044Zm-6.031,16.651c-1.677-.968-3.1-1.146-4.274-.512-1.171.612-1.759,1.871-1.759,3.732v19.012a5.6,5.6,0,0,0,.879,2.869,5.888,5.888,0,0,0,2.136,2.211l2.012,1.161V237.18a5.677,5.677,0,0,0,.879,2.893A6.063,6.063,0,0,0,173,242.285l8.042,4.643a2.16,2.16,0,0,0,2.136.255,1.926,1.926,0,0,0,.879-1.878V226.294l2.012,1.161a2.105,2.105,0,0,0,2.136.255,1.892,1.892,0,0,0,.879-1.854V206.845a11.257,11.257,0,0,0-1.759-5.762,11.941,11.941,0,0,0-4.272-4.423l-1.383-.8a11.244,11.244,0,0,1-4.65-1.563,20.535,20.535,0,0,1-4.65-3.806Z" id="el_FMRUGePmXJ"/><path d="M179.13,193.73l3.606-2.081L171.3,172.329l-3.721,2.145Z" id="el_RGDYkBVkl1"/><path d="M179.571,249.264l3.606-2.081-.187-17.377,1.608,0,3.6-2.081-.916-15.246-20.748-23.2-3.43,1.98,14.69,35.4Z" id="el_AuUx8EP7ky"/><path d="M173.414,175.124q-3.394-1.959-5.718-.725-2.326,1.269-2.325,5.027a15.178,15.178,0,0,0,2.325,7.711,16.009,16.009,0,0,0,5.718,5.878q3.394,1.959,5.718.725,2.326-1.269,2.325-5.027A15.178,15.178,0,0,0,179.132,181,16.01,16.01,0,0,0,173.414,175.124Zm-6.031,16.651c-1.677-.968-3.1-1.146-4.274-.512-1.171.612-1.759,1.871-1.759,3.732v19.012a5.6,5.6,0,0,0,.879,2.869,5.888,5.888,0,0,0,2.136,2.211l2.012,1.161V239.26a5.677,5.677,0,0,0,.879,2.893,6.063,6.063,0,0,0,2.136,2.211l8.042,4.643a2.16,2.16,0,0,0,2.136.255,1.926,1.926,0,0,0,.879-1.878V228.374l2.012,1.161a2.105,2.105,0,0,0,2.136.255,1.892,1.892,0,0,0,.879-1.854V208.925a11.257,11.257,0,0,0-1.759-5.762,11.941,11.941,0,0,0-4.272-4.423l-1.383-.8a11.244,11.244,0,0,1-4.65-1.563,20.535,20.535,0,0,1-4.65-3.806Z" id="el_dQ344rAahed"/><rect x="146.748" y="197.113" width="15.344" height="16.69" id="el_G4C0zYyajMN"/><path d="M42.741,81.9c9.793,5.654,9.81,14.811.039,20.452s-25.631,5.631-35.424-.022-9.81-14.811-.039-20.452S32.948,76.244,42.741,81.9Z" id="el_N8a9OSDL6dW"/><path d="M27.827,18.261a6.127,6.127,0,0,1,3.053.844l.049.028c1.163.67,2.33,1.341,3.488,2.016,1.7.989,1.688,1.406,2.072,2.053,2.316,3.9.736,9.1-1.214,12.638l.155.094c1.758,1.073,3.862,1.786,5.025,3.375a6.688,6.688,0,0,1,1.12,3.872q.049,9.591,0,19.177a8.109,8.109,0,0,1-3.952,6.656l-1.073.619c0,6,.028,12,0,17.991a8.117,8.117,0,0,1-3.844,6.6c-2.712,1.617-5.46,3.173-8.2,4.734a4.09,4.09,0,0,1-4.044.173c-2.287-1.392-5.258-2.428-5.333-5.4V79.489c-1.751-1.012-4.143-1.3-4.869-4.05a6.864,6.864,0,0,1-.157-1.233q-.051-9.59,0-19.176a8.158,8.158,0,0,1,.041-.848A14.322,14.322,0,0,1,17.058,43.32l1.385-.8a2.737,2.737,0,0,1,.332-.15c-1.489-.858-2.983-1.669-3.818-3.333-1.942-3.867-.629-8.709,1.663-12.637,2.457-4.214,6.453-8.058,11.078-8.137Zm5.709,20.906a2.145,2.145,0,0,0-1.28-.141c-1.62-.061-2.33-1.852-1.155-3.558,1.747-2.578,3.087-5.63,2.627-8.887-.014-.122-.038-.244-.061-.366-.408-1.969-2.879-2.9-4.808-3.947-1.4-.745-3.179.206-4.433,1.022-4.157,2.7-7.147,7.748-6.5,12.7.017.127.037.253.061.38a2.6,2.6,0,0,0,1.188,1.9l.052.033C21,39.327,22.7,40.7,24.072,40.62a2.569,2.569,0,0,1,1.319.45,1.957,1.957,0,0,1-.506,3.178,13.391,13.391,0,0,1-4.913,1.72,15.434,15.434,0,0,0-2.2,1.411,10.507,10.507,0,0,0-3.929,7.683c-.032,6.384-.16,12.769,0,19.153,0,.089.021.216.021.216L17.3,76.419a2.361,2.361,0,0,1,1.567,1.847c0,5.137-.129,10.275,0,15.408,0,.094.021.22.021.22l3.392,1.959a1.634,1.634,0,0,0,.371-.164c2.722-1.552,5.46-3.075,8.14-4.7a4.214,4.214,0,0,0,2-3.4V68.548a2.543,2.543,0,0,1,.588-1.359,1.762,1.762,0,0,1,.352-.263c1.913-1.106,4.055-2.48,4.088-4.608q.049-9.548,0-19.1c0-.127-.009-.258-.019-.384a1.94,1.94,0,0,0-.708-1.608l-.075-.042c-1.153-.666-2.3-1.327-3.45-1.992C33.569,39.191,33.634,39.223,33.536,39.167Z" id="el_6Y3OvqUTKXn"/><path d="M24.032,21.335q3.394-1.959,5.718-.725,2.326,1.269,2.325,5.027a15.178,15.178,0,0,1-2.325,7.711,16.009,16.009,0,0,1-5.718,5.878q-3.394,1.959-5.718.725-2.326-1.269-2.325-5.027a15.178,15.178,0,0,1,2.325-7.711A16.01,16.01,0,0,1,24.032,21.335Zm6.031,16.651c1.677-.968,3.1-1.146,4.274-.512,1.171.612,1.759,1.871,1.759,3.732V60.217a5.6,5.6,0,0,1-.879,2.869A5.888,5.888,0,0,1,33.08,65.3l-2.012,1.161V85.471a5.677,5.677,0,0,1-.879,2.893,6.063,6.063,0,0,1-2.136,2.211l-8.042,4.643a2.16,2.16,0,0,1-2.136.255A1.926,1.926,0,0,1,17,93.6V74.584l-2.012,1.161A2.105,2.105,0,0,1,12.847,76a1.892,1.892,0,0,1-.879-1.854V55.136a11.257,11.257,0,0,1,1.759-5.762A11.941,11.941,0,0,1,18,44.951l1.383-.8a11.244,11.244,0,0,0,4.65-1.563,20.535,20.535,0,0,0,4.65-3.806Z" id="el_zAQJHkzm6lm"/><path d="M21.919,42.021,18.313,39.94,29.749,20.62l3.721,2.145Z" id="el_LVKHURWpgBA"/><path d="M21.478,97.555l-3.606-2.081L18.059,78.1l-1.608,0-3.6-2.081.916-15.246,20.748-23.2,3.43,1.98-14.69,35.4Z" id="el_9QyC8HMfVNP"/><path d="M27.635,23.415q3.394-1.959,5.718-.725,2.326,1.269,2.325,5.027a15.178,15.178,0,0,1-2.325,7.711,16.009,16.009,0,0,1-5.718,5.878q-3.394,1.959-5.718.725Q19.592,40.761,19.593,37a15.178,15.178,0,0,1,2.325-7.711A16.01,16.01,0,0,1,27.635,23.415Zm6.031,16.651c1.677-.968,3.1-1.146,4.274-.512,1.171.612,1.759,1.871,1.759,3.732V62.3a5.6,5.6,0,0,1-.879,2.869,5.888,5.888,0,0,1-2.136,2.211l-2.012,1.161V87.551a5.677,5.677,0,0,1-.879,2.893,6.063,6.063,0,0,1-2.136,2.211L23.614,97.3a2.16,2.16,0,0,1-2.136.255,1.926,1.926,0,0,1-.879-1.878V76.664l-2.012,1.161a2.105,2.105,0,0,1-2.136.255,1.892,1.892,0,0,1-.879-1.854V57.216a11.257,11.257,0,0,1,1.759-5.762A11.941,11.941,0,0,1,21.6,47.031l1.383-.8a11.244,11.244,0,0,0,4.65-1.563,20.535,20.535,0,0,0,4.65-3.806Z" id="el_Wev-BG--aL7"/><path d="M217.913,81.9c-9.793,5.654-9.81,14.811-.039,20.452s25.631,5.631,35.424-.022,9.81-14.811.039-20.452S227.706,76.244,217.913,81.9Z" id="el_ZVe0jwCr5q_"/><path d="M226.247,21.139c2.326-1.341,4.459-2.808,6.4-2.873,5.757-.2,10.688,5.423,12.863,11.217,1.583,4.219,2.085,9.7-2.236,12.08l-1.4.806a26.615,26.615,0,0,1,2.535,1.467,14.212,14.212,0,0,1,6.148,11.194q.046,9.584,0,19.176a3.919,3.919,0,0,1-1.833,3.436l-3.193,1.847c0,4.725.023,9.45,0,14.175a3.933,3.933,0,0,1-1.811,3.427c-2.076,1.148-4.107,3-6.369,2.372a5.338,5.338,0,0,1-1.2-.511c-2.891-1.645-5.927-3.1-8.627-5.011a8.087,8.087,0,0,1-3.422-6.319l0-17.991c-2.653-1.533-4.978-4.125-5.025-7.275q-.042-9.591,0-19.177a5.912,5.912,0,0,1,2.719-5.264c1.186-.689,2.372-1.387,3.567-2.062,0,0-2.264-4.969-2.264-8.137,0-2.47.745-5.044,2.948-6.455C226.111,21.223,226.139,21.214,226.247,21.139Zm-2.672,20.077c-.623.356-.731,1.247-.745,2-.028,6.384-.159,12.769,0,19.153a4.261,4.261,0,0,0,2.053,3.38l2.034,1.177a2.561,2.561,0,0,1,.89,1.191,1.876,1.876,0,0,1,.05.431c0,6.366-.157,12.727,0,19.088a4.249,4.249,0,0,0,2.053,3.38c2.707,1.575,5.385,3.2,8.136,4.7.126.065.326.141.326.141l3.392-1.959a1.7,1.7,0,0,0,.022-.3V78.266a1.777,1.777,0,0,1,1.567-1.847l3.437-1.988a1.525,1.525,0,0,0,.021-.216c.163-6.384.031-12.769,0-19.153a10.37,10.37,0,0,0-5.1-8.5l-1.034-.6c-.169-.024-.338-.047-.506-.075a14.036,14.036,0,0,1-4.568-1.739,2.426,2.426,0,0,1-.99-1.852,2.112,2.112,0,0,1,2.252-1.678c1.5-.061,3.1-1.434,4.7-2.4,1.365-.853,1.292-2.751,1.189-4.1-.407-5.316-4.088-10.748-8.991-11.986-1.782-.45-3.763,1.106-5.706,2.287-1.092.68-1.214,2.161-1.214,3.3a14.353,14.353,0,0,0,3.106,8.32,2.27,2.27,0,0,1,.315,1.547,2.118,2.118,0,0,1-2.36,1.392,2.287,2.287,0,0,0-.833.216C225.914,39.866,224.761,40.569,223.575,41.216Z" id="el_7JZg0_UbA_Y"/><path d="M236.623,21.335q-3.394-1.959-5.718-.725-2.326,1.269-2.325,5.027a15.178,15.178,0,0,0,2.325,7.711,16.009,16.009,0,0,0,5.718,5.878q3.394,1.959,5.718.725,2.326-1.269,2.325-5.027a15.178,15.178,0,0,0-2.325-7.711A16.01,16.01,0,0,0,236.623,21.335Zm-6.031,16.651c-1.677-.968-3.1-1.146-4.274-.512-1.171.612-1.759,1.871-1.759,3.732V60.217a5.6,5.6,0,0,0,.879,2.869,5.888,5.888,0,0,0,2.136,2.211l2.012,1.161V85.471a5.677,5.677,0,0,0,.879,2.893,6.063,6.063,0,0,0,2.136,2.211l8.042,4.643a2.16,2.16,0,0,0,2.136.255,1.926,1.926,0,0,0,.879-1.878V74.584l2.012,1.161a2.105,2.105,0,0,0,2.136.255,1.892,1.892,0,0,0,.879-1.854V55.136a11.257,11.257,0,0,0-1.759-5.762,11.941,11.941,0,0,0-4.272-4.423l-1.383-.8a11.244,11.244,0,0,1-4.65-1.563,20.535,20.535,0,0,1-4.65-3.806Z" id="el_jyM4Q_7xDAK"/><path d="M238.735,42.021l3.606-2.081L230.906,20.62l-3.721,2.145Z" id="el_6cT-1JmuQ79"/><path d="M239.176,97.555l3.606-2.081L242.6,78.1l1.608,0,3.6-2.081-.916-15.246-20.748-23.2-3.43,1.98,14.69,35.4Z" id="el_XfLdn6_bApH"/><path d="M233.02,23.415q-3.394-1.959-5.718-.725-2.326,1.269-2.325,5.027a15.178,15.178,0,0,0,2.325,7.711,16.009,16.009,0,0,0,5.718,5.878q3.394,1.959,5.718.725,2.326-1.269,2.325-5.027a15.178,15.178,0,0,0-2.325-7.711A16.01,16.01,0,0,0,233.02,23.415Zm-6.031,16.651c-1.677-.968-3.1-1.146-4.274-.512-1.171.612-1.759,1.871-1.759,3.732V62.3a5.6,5.6,0,0,0,.879,2.869,5.888,5.888,0,0,0,2.136,2.211l2.012,1.161V87.551a5.677,5.677,0,0,0,.879,2.893A6.063,6.063,0,0,0,229,92.655l8.042,4.643a2.16,2.16,0,0,0,2.136.255,1.926,1.926,0,0,0,.879-1.878V76.664l2.012,1.161a2.105,2.105,0,0,0,2.136.255,1.892,1.892,0,0,0,.879-1.854V57.216a11.257,11.257,0,0,0-1.759-5.762,11.941,11.941,0,0,0-4.272-4.423l-1.383-.8a11.244,11.244,0,0,1-4.65-1.563,20.535,20.535,0,0,1-4.65-3.806Z" id="el_ZqoGI87R1r_"/></g></g><g id="el_6lzNBKZL1mu"><path d="M67.957,29.658a.264.264,0,0,0-.013-.359h0a.244.244,0,0,1,0-.344l1.642-1.642a.244.244,0,0,1,.344,0h0a.265.265,0,0,0,.36.014,21.078,21.078,0,0,1,8.457-4.412.349.349,0,0,1,.269.635,49.631,49.631,0,0,0-6.92,5.415.354.354,0,0,0-.009.506l.453.453L70.555,31.91l-.453-.453a.354.354,0,0,0-.506.009,49.289,49.289,0,0,0-5.412,6.922.353.353,0,0,1-.641-.272A21.156,21.156,0,0,1,67.957,29.658Z" id="el_XaARuSXwpbg"/><rect x="75.895" y="27.281" width="2.211" height="18.178" id="el_j9DhSkDGXIr"/><path d="M192.7,29.658a.264.264,0,0,1,.013-.359h0a.244.244,0,0,0,0-.344l-1.642-1.642a.244.244,0,0,0-.344,0h0a.265.265,0,0,1-.36.014,21.078,21.078,0,0,0-8.457-4.412.349.349,0,0,0-.269.635,49.631,49.631,0,0,1,6.92,5.415.354.354,0,0,1,.009.506l-.453.453L190.1,31.91l.453-.453a.354.354,0,0,1,.506.009,49.289,49.289,0,0,1,5.412,6.922.353.353,0,0,0,.641-.272A21.156,21.156,0,0,0,192.7,29.658Z" id="el_eo_HHBU3dGX"/><rect x="174.63" y="35.411" width="17.762" height="2.211" id="el_5HKnNd9rUNy"/></g><path d="M135.151,93.08c-.95.083-1.7.1-2.163.1a27.228,27.228,0,0,1-27.236-27.241c0-.117,0-.242,0-.358V65.2h0V36.323h0c9.122-.142,31.631,1.85,44.043,19.113a27.259,27.259,0,0,1,3.185,25.94l-.008-.008a16.911,16.911,0,0,1-8.436,9.227,21.186,21.186,0,0,1-2.695,1.117c3.964-15.171-1.218-37.16-24.241-47.721C131.584,52.652,142.628,74.483,135.151,93.08Z" id="el_p5zMXPxrKH7"/><g id="el_fo0Ixe_oJbd" data-name="third arrows"><path d="M124.147,179.805c1.387.2,1.7,2.637-.13,2.727a1.745,1.745,0,0,1-1.243-.8,1.359,1.359,0,0,1,1.243-1.933C124.06,179.8,124.1,179.8,124.147,179.805Zm-5.466,0c1.387.2,1.7,2.637-.13,2.727a1.744,1.744,0,0,1-1.243-.8,1.359,1.359,0,0,1,1.243-1.933C118.594,179.8,118.637,179.8,118.68,179.805Zm-5.466,0c1.361.2,1.76,2.637-.13,2.727a1.744,1.744,0,0,1-1.243-.8,1.359,1.359,0,0,1,1.243-1.933C113.128,179.8,113.171,179.8,113.215,179.805Zm-5.466,0c1.343.192,1.824,2.633-.13,2.727a1.741,1.741,0,0,1-1.033-.474,1.383,1.383,0,0,1,1.033-2.261C107.662,179.8,107.705,179.8,107.748,179.805Zm16.529-5.394a1.437,1.437,0,0,1,1.172,1.354,1.674,1.674,0,0,1-.8,1.241,1.428,1.428,0,0,1-1.934-1.241S123.079,174.3,124.277,174.411Zm0-5.466a1.436,1.436,0,0,1,1.172,1.354,1.556,1.556,0,0,1-.377.94,1.385,1.385,0,0,1-2.356-.94S123.079,168.833,124.277,168.946Zm0-5.466a1.437,1.437,0,0,1,1.172,1.354,1.556,1.556,0,0,1-.377.94,1.385,1.385,0,0,1-2.356-.94S123.044,163.363,124.277,163.48Zm0-5.466a1.437,1.437,0,0,1,1.172,1.354s-.461,1.625-1.689,1.328c-.714-.177-1.044-1.328-1.044-1.328A1.426,1.426,0,0,1,124.277,158.014Zm0-5.466a1.436,1.436,0,0,1,1.172,1.35s-.218,1.219-1.172,1.354a1.429,1.429,0,0,1-1.561-1.354S123.044,152.428,124.277,152.549Zm0-5.466a1.432,1.432,0,0,1,1.172,1.35,1.7,1.7,0,0,1-.683,1.185,1.366,1.366,0,0,1-2.05-1.185S123.044,146.963,124.277,147.083Z" id="el_mUYlOaZJ0Rs"/><path d="M136.77,179.805c1.362.2,1.76,2.637-.13,2.727a1.579,1.579,0,0,1-.943-.38A1.382,1.382,0,0,1,136.77,179.805Zm5.466,0c1.4.2,1.617,2.644-.13,2.727a1.579,1.579,0,0,1-.943-.38A1.382,1.382,0,0,1,142.236,179.805Zm5.466,0c1.342.192,1.824,2.633-.13,2.727a1.742,1.742,0,0,1-1.033-.474,1.383,1.383,0,0,1,1.033-2.261C147.616,179.8,147.659,179.8,147.7,179.805Zm5.466,0c1.361.2,1.76,2.637-.13,2.727a1.744,1.744,0,0,1-1.243-.8,1.359,1.359,0,0,1,1.243-1.933C153.082,179.8,153.125,179.8,153.168,179.805Zm-16.4-5.394a1.437,1.437,0,0,1,1.172,1.354,1.7,1.7,0,0,1-.683,1.185,1.367,1.367,0,0,1-2.05-1.185S135.536,174.294,136.769,174.411Zm0-5.466a1.437,1.437,0,0,1,1.172,1.354,1.736,1.736,0,0,1-.8,1.241,1.359,1.359,0,0,1-1.934-1.241S135.536,168.829,136.769,168.946Zm0-5.466a1.437,1.437,0,0,1,1.172,1.354s-.3,1.317-1.3,1.365a1.432,1.432,0,0,1-1.432-1.365S135.536,163.363,136.769,163.48Zm0-5.466a1.437,1.437,0,0,1,1.172,1.354s-.461,1.625-1.688,1.328c-.715-.177-1.045-1.328-1.045-1.328A1.416,1.416,0,0,1,136.769,158.014Zm0-5.466a1.436,1.436,0,0,1,1.172,1.35s-.3,1.32-1.3,1.365a1.429,1.429,0,0,1-1.432-1.365S135.536,152.428,136.769,152.549Zm0-5.466a1.432,1.432,0,0,1,1.172,1.35,1.741,1.741,0,0,1-.8,1.245,1.359,1.359,0,0,1-1.934-1.245S135.536,146.963,136.769,147.083Z" id="el_YvpWNTBAmlX"/><path d="M106.544,181.186l7.73-3.863v7.727Z" id="el_pSHmVAhlTmh"/><path d="M114.316,176.386a.834.834,0,0,1,.309.068.9.9,0,0,1,.586.869v7.726c-.042,1.37-.909,1.048-1.359.839l-7.725-3.863c-.384-.2-.394-.334-.455-.5a.918.918,0,0,1,.455-1.177l7.725-3.863A.76.76,0,0,1,114.316,176.386Zm-5.676,4.8,4.7,2.346V178.84Z" id="el_KXNNFHWeKWf"/><path d="M154.113,181.186l-7.73-3.863v7.727Z" id="el_29wR5IPjV4k"/><path d="M146.449,176.388a1.062,1.062,0,0,1,.356.1l7.725,3.863a.828.828,0,0,1,.328.269.932.932,0,0,1-.328,1.408l-7.725,3.863a.8.8,0,0,1-.356.1.933.933,0,0,1-1-.936v-7.726a.777.777,0,0,1,.056-.312A.807.807,0,0,1,146.449,176.388Zm.872,7.145,4.7-2.346-4.7-2.347Z" id="el_sVT56v9O6SN"/></g><g id="el_FW-SDKHEQhg"><rect x="96.256" y="197.116" width="9.95" height="16.69" id="el_RVXj0FgogLW"/><path d="M105.157,196.238a1.726,1.726,0,0,1,1.729,1.728V212.95a1.725,1.725,0,0,1-1.729,1.734H97.09a1.726,1.726,0,0,1-1.729-1.734V197.966a1.727,1.727,0,0,1,1.729-1.728Zm-4.033,17.292a1.177,1.177,0,1,0-.811-.347A1.091,1.091,0,0,0,101.124,213.53Zm4.033-3.889V198.4a.422.422,0,0,0-.126-.307.433.433,0,0,0-.306-.127h-7.2a.433.433,0,0,0-.306.127.422.422,0,0,0-.126.307v11.241a.423.423,0,0,0,.126.307.435.435,0,0,0,.306.127h7.2a.435.435,0,0,0,.306-.127A.423.423,0,0,0,105.157,209.641Z" id="el_L5PIFFEUxCx"/><g id="el_xYhPZno7RqE" data-name="Tech"><path d="M165.291,210.912a.56.56,0,0,1,.415.156.6.6,0,0,1,.162.42v.576a2.336,2.336,0,0,1-2.305,2.3h-18.44a2.336,2.336,0,0,1-2.305-2.3v-.576a.592.592,0,0,1,.162-.42.56.56,0,0,1,.414-.156H152a1.127,1.127,0,0,0,.359.771,1.112,1.112,0,0,0,.829.38h2.2a1.2,1.2,0,0,0,.829-.3,1.232,1.232,0,0,0,.359-.849Zm-1.728-13.258V209.76h-18.44V197.654a1.654,1.654,0,0,1,.5-1.22,1.69,1.69,0,0,1,1.225-.508h14.982a1.686,1.686,0,0,1,1.224.508A1.651,1.651,0,0,1,163.563,197.654Zm-2.305,9.8V198.23H147.429v9.226Z" id="el_jon-vRIikYE"/></g></g><g id="el_DFpLqgI1olF" data-name="Big arrows"><path d="M106.891,118.556l9.736-9.692v19.384Z" id="el_uHEEdfokLbI"/><rect x="113.394" y="115.464" width="30.596" height="6.203" id="el_YEf517AZSuK"/><path d="M153.766,131.353l-9.736-9.692v19.384Z" id="el_ME9U8hgEBbO"/><rect x="116.627" y="128.25" width="30.649" height="6.203" id="el_E6Nzd3rdIw_"/></g><g id="el_vyfslwD9fUJ" data-name="Middle line"><path d="M97.021,125.11a1.379,1.379,0,0,1-.2,2.719,1.642,1.642,0,0,1-1.184-.684A1.407,1.407,0,0,1,97.021,125.11Zm-10.932,0a1.379,1.379,0,0,1-.2,2.719,1.642,1.642,0,0,1-1.184-.684A1.407,1.407,0,0,1,86.089,125.11Zm-5.466,0a1.384,1.384,0,0,1-.2,2.719s-1.13-.173-1.332-1.064A1.408,1.408,0,0,1,80.623,125.11Zm-54.66,0a1.384,1.384,0,0,1-.2,2.719,1.641,1.641,0,0,1-1.184-.684A1.406,1.406,0,0,1,25.963,125.11Zm5.466,0a1.384,1.384,0,0,1-.2,2.719s-1.13-.173-1.333-1.064A1.409,1.409,0,0,1,31.429,125.11Zm5.466,0a1.384,1.384,0,0,1-.2,2.719,1.641,1.641,0,0,1-1.184-.684A1.406,1.406,0,0,1,36.9,125.11Zm5.466,0a1.384,1.384,0,0,1-.2,2.719s-1.13-.173-1.332-1.064A1.408,1.408,0,0,1,42.361,125.11Zm5.466,0a1.384,1.384,0,0,1-.2,2.719s-1.13-.173-1.333-1.064A1.409,1.409,0,0,1,47.827,125.11Zm5.466,0c1.319.3,1.682,2.578-.2,2.719a1.641,1.641,0,0,1-1.184-.684A1.406,1.406,0,0,1,53.293,125.11Zm5.466,0a1.384,1.384,0,0,1-.2,2.719,1.9,1.9,0,0,1-.93-.366A1.4,1.4,0,0,1,58.759,125.11Zm5.466,0a1.384,1.384,0,0,1-.2,2.719s-1.13-.173-1.333-1.064A1.409,1.409,0,0,1,64.225,125.11Zm5.466,0a1.384,1.384,0,0,1-.2,2.719,1.642,1.642,0,0,1-1.184-.684A1.407,1.407,0,0,1,69.691,125.11Zm5.466,0a1.384,1.384,0,0,1-.2,2.719,1.641,1.641,0,0,1-1.184-.684A1.406,1.406,0,0,1,75.157,125.11Zm16.4,0a1.378,1.378,0,0,1-.2,2.719s-1.13-.173-1.333-1.064A1.409,1.409,0,0,1,91.555,125.11Zm-66.2-4.734c.906.281,1,.455,1.062,1.331,0,0-.175,1.13-1.062,1.331a1.432,1.432,0,0,1-1.671-1.331A1.4,1.4,0,0,1,25.351,120.375Zm0-5.466c.906.277,1,.45,1.062,1.331,0,0-.175,1.13-1.062,1.331a1.432,1.432,0,0,1-1.671-1.331A1.4,1.4,0,0,1,25.351,114.91Zm0-5.466c.906.277,1,.45,1.062,1.331a1.649,1.649,0,0,1-.683,1.186,1.427,1.427,0,0,1-2.05-1.186A1.4,1.4,0,0,1,25.351,109.444Z" id="el_-qWlfst38aH"/><path d="M164.044,125.11a1.379,1.379,0,0,1-.2,2.719,1.874,1.874,0,0,1-.77-.239A1.4,1.4,0,0,1,164.044,125.11Zm10.932,0a1.379,1.379,0,0,1-.2,2.719,1.641,1.641,0,0,1-1.184-.684A1.406,1.406,0,0,1,174.976,125.11Zm5.466,0a1.378,1.378,0,0,1-.2,2.719,1.6,1.6,0,0,1-1.068-.516A1.41,1.41,0,0,1,180.441,125.11Zm54.66,0a1.379,1.379,0,0,1-.2,2.719,1.875,1.875,0,0,1-.77-.239A1.4,1.4,0,0,1,235.1,125.11Zm-5.466,0c1.319.3,1.682,2.578-.2,2.719a1.872,1.872,0,0,1-.77-.239A1.4,1.4,0,0,1,229.635,125.11Zm-5.466,0a1.384,1.384,0,0,1-.2,2.719,1.6,1.6,0,0,1-1.069-.516A1.41,1.41,0,0,1,224.17,125.11Zm-5.466,0a1.39,1.39,0,0,1-.2,2.719,1.6,1.6,0,0,1-1.068-.516A1.41,1.41,0,0,1,218.7,125.11Zm-5.466,0a1.379,1.379,0,0,1-.2,2.719,1.641,1.641,0,0,1-1.184-.684A1.406,1.406,0,0,1,213.238,125.11Zm-5.466,0a1.379,1.379,0,0,1-.2,2.719,1.875,1.875,0,0,1-.77-.239A1.4,1.4,0,0,1,207.772,125.11Zm-5.466,0a1.384,1.384,0,0,1-.2,2.719,1.874,1.874,0,0,1-.77-.239A1.4,1.4,0,0,1,202.306,125.11Zm-5.466,0c1.319.3,1.682,2.578-.2,2.719a1.875,1.875,0,0,1-.77-.239A1.4,1.4,0,0,1,196.84,125.11Zm-5.466,0a1.384,1.384,0,0,1-.2,2.719,1.6,1.6,0,0,1-1.068-.516A1.41,1.41,0,0,1,191.373,125.11Zm-5.466,0a1.384,1.384,0,0,1-.2,2.719,1.6,1.6,0,0,1-1.069-.516A1.41,1.41,0,0,1,185.908,125.11Zm-16.4,0a1.379,1.379,0,0,1-.2,2.719,1.875,1.875,0,0,1-.77-.239A1.4,1.4,0,0,1,169.509,125.11Zm66.4-4.734c.906.281,1,.455,1.062,1.331a1.6,1.6,0,0,1-.514,1.069,1.432,1.432,0,0,1-2.219-1.069A1.4,1.4,0,0,1,235.914,120.375Zm0-5.466c.906.277,1,.45,1.062,1.331a1.675,1.675,0,0,1-.867,1.27,1.428,1.428,0,0,1-1.866-1.27A1.4,1.4,0,0,1,235.914,114.91Zm0-5.466c.906.277,1,.45,1.062,1.331a1.687,1.687,0,0,1-.867,1.275,1.435,1.435,0,0,1-1.866-1.275A1.4,1.4,0,0,1,235.914,109.444Z" id="el_TFifvMeO9M6"/></g><g id="el_8rptuiPO7Bu"><path d="M99.009,203.768a.573.573,0,0,0-.576.576v2.3a.573.573,0,0,0,.576.576h4.226a.573.573,0,0,0,.576-.576v-2.3a.573.573,0,0,0-.576-.576h-.288V202.9a1.773,1.773,0,0,0-.246-.914,1.831,1.831,0,0,0-.666-.665,1.813,1.813,0,0,0-1.825,0,1.831,1.831,0,0,0-.666.665,1.772,1.772,0,0,0-.246.914v.864Zm1.249,0V202.9a.864.864,0,1,1,1.729,0v.864Z" id="el_ZT7ItvXHh-H"/><path d="M152.23,202.6a.573.573,0,0,0-.576.576v2.3a.573.573,0,0,0,.576.576h4.226a.573.573,0,0,0,.576-.576v-2.3a.573.573,0,0,0-.576-.576h-.288v-.864a1.773,1.773,0,0,0-.246-.914,1.831,1.831,0,0,0-.666-.665,1.813,1.813,0,0,0-1.825,0,1.831,1.831,0,0,0-.666.665,1.772,1.772,0,0,0-.246.914v.864Zm1.249,0v-.864a.864.864,0,1,1,1.729,0v.864Z" id="el_Mw_zzp0HYYt"/></g><g id="el_RJMDW0BCEBD" data-name="Coins 2"><path d="M87.506,206.655a12.056,12.056,0,0,1,2.922.334,6.552,6.552,0,0,1,2.13.882,1.518,1.518,0,0,1,.791,1.219v6.814c0,.53-.36,1-1.08,1.415a7.762,7.762,0,0,1-2.815.87V219.8a1.522,1.522,0,0,1-.791,1.219,6.549,6.549,0,0,1-2.13.882,12.938,12.938,0,0,1-5.843,0,6.552,6.552,0,0,1-2.13-.882,1.522,1.522,0,0,1-.791-1.219v-6.817q0-.79,1.08-1.415a7.825,7.825,0,0,1,2.815-.867v-1.611a1.518,1.518,0,0,1,.791-1.219,6.549,6.549,0,0,1,2.13-.882A12.052,12.052,0,0,1,87.506,206.655Z" id="el_QhpE7p-6bSC"/><path d="M87.506,206.662a12.292,12.292,0,0,1,2.922.332,6.577,6.577,0,0,1,2.131.883,1.529,1.529,0,0,1,.791,1.22v6.814q0,.795-1.08,1.418a7.892,7.892,0,0,1-2.815.867v1.61a1.529,1.529,0,0,1-.791,1.221,6.464,6.464,0,0,1-2.131.878,12.812,12.812,0,0,1-5.843,0,6.465,6.465,0,0,1-2.131-.878,1.529,1.529,0,0,1-.791-1.221v-6.814q0-.795,1.08-1.418a7.8,7.8,0,0,1,2.815-.867V209.1a1.529,1.529,0,0,1,.791-1.22,6.578,6.578,0,0,1,2.131-.883A12.292,12.292,0,0,1,87.506,206.662Zm.487,13.026V218.5a7.724,7.724,0,0,1-1.963.608,13.512,13.512,0,0,1-4.839,0,7.724,7.724,0,0,1-1.963-.608v1.189a3.029,3.029,0,0,0,1.339.7,11.931,11.931,0,0,0,6.086,0A3.029,3.029,0,0,0,87.993,219.689Zm0-2.924V215.4a6.812,6.812,0,0,1-1.963.743,11.4,11.4,0,0,1-4.839,0,6.812,6.812,0,0,1-1.963-.743v1.366a3.031,3.031,0,0,0,1.339.7,11.931,11.931,0,0,0,6.086,0A3.031,3.031,0,0,0,87.993,216.764Zm-4.382-1.823a10,10,0,0,0,3.1-.426c.852-.286,1.278-.628,1.278-1.033s-.426-.753-1.278-1.039a11.523,11.523,0,0,0-6.209,0c-.852.286-1.278.628-1.278,1.039s.426.748,1.278,1.033A10,10,0,0,0,83.611,214.941Zm8.277.852V214.6a8.611,8.611,0,0,1-2.434.67v1.46a9.361,9.361,0,0,0,1.643-.452A1.939,1.939,0,0,0,91.888,215.793Zm0-2.924V211.5a7.481,7.481,0,0,1-2.647.852,1.2,1.2,0,0,1,.213.639v.821a9.34,9.34,0,0,0,1.643-.457A1.837,1.837,0,0,0,91.888,212.869Zm-4.382-1.823a10,10,0,0,0,3.1-.426c.852-.286,1.278-.628,1.278-1.033s-.426-.753-1.278-1.039a11.523,11.523,0,0,0-6.209,0c-.852.286-1.278.623-1.278,1.023s.4.732,1.187,1.018a11.085,11.085,0,0,1,2.739.426l.122.031Z" id="el_FaXyvsaPghn"/><path d="M173.151,206.655a12.056,12.056,0,0,0-2.922.334,6.552,6.552,0,0,0-2.13.882,1.518,1.518,0,0,0-.791,1.219v6.814c0,.53.36,1,1.08,1.415a7.762,7.762,0,0,0,2.815.87V219.8a1.522,1.522,0,0,0,.791,1.219,6.549,6.549,0,0,0,2.13.882,12.938,12.938,0,0,0,5.843,0,6.552,6.552,0,0,0,2.13-.882,1.522,1.522,0,0,0,.791-1.219v-6.817q0-.79-1.08-1.415a7.825,7.825,0,0,0-2.815-.867v-1.611a1.518,1.518,0,0,0-.791-1.219,6.549,6.549,0,0,0-2.13-.882A12.052,12.052,0,0,0,173.151,206.655Z" id="el_RvjRFgFYLZh"/><path d="M173.15,206.662a12.292,12.292,0,0,0-2.922.332,6.577,6.577,0,0,0-2.131.883,1.529,1.529,0,0,0-.791,1.22v6.814q0,.795,1.08,1.418a7.892,7.892,0,0,0,2.815.867v1.61a1.529,1.529,0,0,0,.791,1.221,6.464,6.464,0,0,0,2.131.878,12.812,12.812,0,0,0,5.843,0,6.465,6.465,0,0,0,2.131-.878,1.529,1.529,0,0,0,.791-1.221v-6.814q0-.795-1.08-1.418a7.8,7.8,0,0,0-2.815-.867V209.1a1.529,1.529,0,0,0-.791-1.22,6.578,6.578,0,0,0-2.131-.883A12.292,12.292,0,0,0,173.15,206.662Zm-.487,13.026V218.5a7.724,7.724,0,0,0,1.963.608,13.512,13.512,0,0,0,4.839,0,7.724,7.724,0,0,0,1.963-.608v1.189a3.029,3.029,0,0,1-1.339.7,11.931,11.931,0,0,1-6.086,0A3.029,3.029,0,0,1,172.664,219.689Zm0-2.924V215.4a6.812,6.812,0,0,0,1.963.743,11.4,11.4,0,0,0,4.839,0,6.812,6.812,0,0,0,1.963-.743v1.366a3.031,3.031,0,0,1-1.339.7,11.931,11.931,0,0,1-6.086,0A3.031,3.031,0,0,1,172.664,216.764Zm4.382-1.823a10,10,0,0,1-3.1-.426c-.852-.286-1.278-.628-1.278-1.033s.426-.753,1.278-1.039a11.523,11.523,0,0,1,6.209,0c.852.286,1.278.628,1.278,1.039s-.426.748-1.278,1.033A10,10,0,0,1,177.046,214.941Zm-8.277.852V214.6a8.611,8.611,0,0,0,2.434.67v1.46a9.361,9.361,0,0,1-1.643-.452A1.939,1.939,0,0,1,168.768,215.793Zm0-2.924V211.5a7.481,7.481,0,0,0,2.647.852,1.2,1.2,0,0,0-.213.639v.821a9.34,9.34,0,0,1-1.643-.457A1.837,1.837,0,0,1,168.768,212.869Zm4.382-1.823a10,10,0,0,1-3.1-.426c-.852-.286-1.278-.628-1.278-1.033s.426-.753,1.278-1.039a11.523,11.523,0,0,1,6.209,0c.852.286,1.278.623,1.278,1.023s-.4.732-1.187,1.018a11.085,11.085,0,0,0-2.739.426l-.122.031Z" id="el_bWqZ2SivbAz"/></g><g id="el_nNd1kcGEbKu_VAwK0Nf3V" data-animator-group="true" data-animator-type="0"><g id="el_nNd1kcGEbKu"><path d="M80.915,81.806a3.738,3.738,0,0,1,3.738,3.736v7.476a3.738,3.738,0,0,1-3.738,3.736H78.7V99.07a3.651,3.651,0,0,1-3.649,3.647H67.048A3.651,3.651,0,0,1,63.4,99.07v-7.3a3.652,3.652,0,0,1,3.649-3.651h2.327V85.542a3.738,3.738,0,0,1,3.738-3.736Z" id="el_XYzM2_IuWcd"/><path d="M180.033,81.806a3.738,3.738,0,0,0-3.738,3.736v7.476a3.738,3.738,0,0,0,3.738,3.736h2.21V99.07a3.651,3.651,0,0,0,3.649,3.647H193.9a3.651,3.651,0,0,0,3.649-3.647v-7.3A3.652,3.652,0,0,0,193.9,88.12h-2.327V85.542a3.738,3.738,0,0,0-3.738-3.736Z" id="el_QPzYEPeryof"/><g id="el_pyAm4MUX4mb" data-name="Coins"><path d="M76.9,80.372a19.136,19.136,0,0,1,4.548.518,10.24,10.24,0,0,1,3.317,1.375A2.38,2.38,0,0,1,86,84.165V94.773q0,1.237-1.682,2.207a12.286,12.286,0,0,1-4.382,1.35v2.507a2.38,2.38,0,0,1-1.231,1.9,10.064,10.064,0,0,1-3.317,1.366,19.946,19.946,0,0,1-9.1,0,10.065,10.065,0,0,1-3.317-1.366,2.38,2.38,0,0,1-1.231-1.9V90.229q0-1.237,1.682-2.207a12.137,12.137,0,0,1,4.383-1.35V84.165a2.38,2.38,0,0,1,1.231-1.9,10.241,10.241,0,0,1,3.317-1.375A19.136,19.136,0,0,1,76.9,80.372Zm.758,20.279V98.8a12.024,12.024,0,0,1-3.056.946,21.035,21.035,0,0,1-7.533,0,12.025,12.025,0,0,1-3.056-.946v1.852a4.715,4.715,0,0,0,2.085,1.092,18.574,18.574,0,0,0,9.475,0A4.715,4.715,0,0,0,77.663,100.652Zm0-4.552V93.973a10.6,10.6,0,0,1-3.056,1.156,17.746,17.746,0,0,1-7.533,0,10.6,10.6,0,0,1-3.056-1.156V96.1A4.719,4.719,0,0,0,66.1,97.191a18.574,18.574,0,0,0,9.475,0A4.719,4.719,0,0,0,77.663,96.1Zm-6.822-2.838a15.561,15.561,0,0,0,4.833-.663c1.326-.445,1.989-.978,1.989-1.609S77,89.817,75.673,89.372a17.938,17.938,0,0,0-9.666,0c-1.326.445-1.989.978-1.989,1.617s.663,1.164,1.989,1.609A15.561,15.561,0,0,0,70.841,93.261Zm12.886,1.326V92.736a13.405,13.405,0,0,1-3.79,1.043v2.272a14.573,14.573,0,0,0,2.558-.7A3.019,3.019,0,0,0,83.727,94.587Zm0-4.552V87.909a11.646,11.646,0,0,1-4.121,1.326,1.869,1.869,0,0,1,.332.995v1.278A14.54,14.54,0,0,0,82.5,90.8,2.86,2.86,0,0,0,83.727,90.035ZM76.9,87.2a15.561,15.561,0,0,0,4.833-.663c1.326-.445,1.989-.978,1.989-1.609s-.663-1.173-1.989-1.617a17.938,17.938,0,0,0-9.666,0c-1.326.445-1.99.97-1.99,1.593s.616,1.14,1.848,1.585a17.256,17.256,0,0,1,4.264.663l.189.048Z" id="el_ithHp1u6l8E"/><path d="M183.751,80.372a19.136,19.136,0,0,0-4.548.518,10.24,10.24,0,0,0-3.317,1.375,2.38,2.38,0,0,0-1.231,1.9V94.773q0,1.237,1.682,2.207a12.286,12.286,0,0,0,4.382,1.35v2.507a2.38,2.38,0,0,0,1.231,1.9,10.064,10.064,0,0,0,3.317,1.366,19.946,19.946,0,0,0,9.1,0,10.065,10.065,0,0,0,3.317-1.366,2.38,2.38,0,0,0,1.231-1.9V90.229q0-1.237-1.682-2.207a12.137,12.137,0,0,0-4.383-1.35V84.165a2.38,2.38,0,0,0-1.231-1.9A10.241,10.241,0,0,0,188.3,80.89,19.136,19.136,0,0,0,183.751,80.372Zm-.758,20.279V98.8a12.024,12.024,0,0,0,3.056.946,21.035,21.035,0,0,0,7.533,0,12.025,12.025,0,0,0,3.056-.946v1.852a4.715,4.715,0,0,1-2.085,1.092,18.574,18.574,0,0,1-9.475,0A4.715,4.715,0,0,1,182.994,100.652Zm0-4.552V93.973a10.6,10.6,0,0,0,3.056,1.156,17.746,17.746,0,0,0,7.533,0,10.6,10.6,0,0,0,3.056-1.156V96.1a4.719,4.719,0,0,1-2.085,1.092,18.574,18.574,0,0,1-9.475,0A4.719,4.719,0,0,1,182.994,96.1Zm6.822-2.838a15.561,15.561,0,0,1-4.833-.663c-1.326-.445-1.989-.978-1.989-1.609s.663-1.173,1.989-1.617a17.938,17.938,0,0,1,9.666,0c1.326.445,1.989.978,1.989,1.617s-.663,1.164-1.989,1.609A15.561,15.561,0,0,1,189.816,93.261Zm-12.886,1.326V92.736a13.405,13.405,0,0,0,3.79,1.043v2.272a14.573,14.573,0,0,1-2.558-.7A3.019,3.019,0,0,1,176.929,94.587Zm0-4.552V87.909a11.646,11.646,0,0,0,4.121,1.326,1.869,1.869,0,0,0-.332.995v1.278a14.54,14.54,0,0,1-2.558-.711A2.86,2.86,0,0,1,176.929,90.035Zm6.822-2.838a15.561,15.561,0,0,1-4.833-.663c-1.326-.445-1.989-.978-1.989-1.609s.663-1.173,1.989-1.617a17.938,17.938,0,0,1,9.666,0c1.326.445,1.99.97,1.99,1.593s-.616,1.14-1.848,1.585a17.256,17.256,0,0,0-4.264.663l-.189.048Z" id="el_U3wBsK_cjGB"/></g></g></g><g id="el_uElusn_aj9t" data-name="Top arrows 2"><g id="el_hFcHtY9t36e_iDbWLccwg" data-animator-group="true" data-animator-type="0"><g id="el_hFcHtY9t36e" data-name="Left arrow 2"><path d="M53.782,68.061c1.388.225,1.725,2.62-.148,2.723a1.7,1.7,0,0,1-1.208-.727A1.416,1.416,0,0,1,53.782,68.061Zm5.466,0c1.364.22,1.78,2.62-.148,2.723a1.7,1.7,0,0,1-1.208-.727A1.416,1.416,0,0,1,59.248,68.061Zm5.466,0c1.364.22,1.78,2.62-.148,2.723,0,0-1.542-.408-1.349-1.589A1.413,1.413,0,0,1,64.714,68.061Zm5.466,0c1.389.225,1.725,2.62-.148,2.723,0,0-1.542-.408-1.349-1.589A1.412,1.412,0,0,1,70.18,68.061Zm5.466,0c1.388.225,1.725,2.62-.148,2.723,0,0-1.2-.234-1.349-1.144A1.418,1.418,0,0,1,75.646,68.061Zm5.466,0c1.389.225,1.725,2.62-.148,2.723a1.7,1.7,0,0,1-1.208-.727A1.416,1.416,0,0,1,81.112,68.061Zm5.466,0c1.389.225,1.725,2.62-.148,2.723a1.7,1.7,0,0,1-1.208-.727A1.415,1.415,0,0,1,86.578,68.061Zm5.466,0c1.338.216,1.838,2.616-.148,2.723a1.7,1.7,0,0,1-1.208-.727A1.416,1.416,0,0,1,92.044,68.061Z" id="el_C2sGSXAlaH_"/><path d="M52.422,69.418l7.73-3.863v7.727Z" id="el_EgClhP6-1_p"/><path d="M60.194,64.618a.835.835,0,0,1,.309.067.9.9,0,0,1,.586.87v7.726c-.042,1.369-.909,1.047-1.359.838l-7.725-3.863a.828.828,0,0,1-.328-.269.932.932,0,0,1,.328-1.408l7.725-3.863A.764.764,0,0,1,60.194,64.618Zm-5.676,4.8,4.7,2.347V67.072Z" id="el_qdmMv6VOj-5"/></g></g><g id="el_a4-bXc8qIrr_cd_QRUkie" data-animator-group="true" data-animator-type="0"><g id="el_a4-bXc8qIrr" data-name="Right arrow 2"><path d="M206.641,68.061c1.364.22,1.779,2.62-.148,2.723a1.831,1.831,0,0,1-.7-.2A1.376,1.376,0,0,1,206.641,68.061Zm-5.466,0c1.338.216,1.838,2.616-.148,2.723a1.831,1.831,0,0,1-.7-.2A1.376,1.376,0,0,1,201.175,68.061Zm-5.466,0c1.389.225,1.725,2.62-.148,2.723,0,0-1.311-.3-1.364-1.294a1.305,1.305,0,0,1,1.364-1.439C195.61,68.052,195.66,68.056,195.709,68.061Zm-5.466,0c1.388.225,1.725,2.62-.148,2.723,0,0-1.311-.3-1.364-1.294a1.306,1.306,0,0,1,1.364-1.439C190.145,68.052,190.194,68.056,190.243,68.061Zm-5.466,0c1.389.225,1.725,2.62-.148,2.723,0,0-1.311-.3-1.365-1.294a1.306,1.306,0,0,1,1.365-1.439C184.678,68.052,184.728,68.056,184.777,68.061Zm-5.466,0c1.388.225,1.725,2.62-.148,2.723,0,0-1.311-.3-1.364-1.294a1.306,1.306,0,0,1,1.364-1.439C179.213,68.052,179.262,68.056,179.311,68.061Zm-5.466,0c1.407.23,1.648,2.625-.148,2.723,0,0-1.311-.3-1.365-1.294a1.306,1.306,0,0,1,1.364-1.439C173.746,68.052,173.8,68.056,173.845,68.061Zm-5.466,0c1.406.23,1.648,2.625-.148,2.723,0,0-1.311-.3-1.364-1.294a1.305,1.305,0,0,1,1.364-1.439C168.281,68.052,168.33,68.056,168.379,68.061Z" id="el_kIGZGpg0_tK"/><path d="M207.7,69.418l-7.73-3.863v7.727Z" id="el_yZTO3amniGR"/><path d="M200.041,64.619a1.073,1.073,0,0,1,.356.1l7.725,3.863a.831.831,0,0,1,.328.269.932.932,0,0,1-.328,1.408L200.4,74.119a.687.687,0,0,1-.619.078.917.917,0,0,1-.741-.916V65.555a.778.778,0,0,1,.056-.312A.807.807,0,0,1,200.041,64.619Zm.872,7.145,4.7-2.347-4.7-2.346Z" id="el_oeVactuv_ZM"/></g></g></g><g id="el_TaH5BFjY94I" data-name="Top arrows"><g id="el_sCBS66i9sKp_RpZxdji5J" data-animator-group="true" data-animator-type="0"><g id="el_sCBS66i9sKp" data-name="Right Arrow 1"><path d="M206.641,54.376c.9.145.985.506,1.121.848a1.436,1.436,0,0,1-1.269,1.875,1.831,1.831,0,0,1-.7-.2A1.376,1.376,0,0,1,206.641,54.376Zm-5.466,0c.9.145.985.506,1.122.848a1.436,1.436,0,0,1-1.269,1.875s-1.2-.234-1.349-1.144A1.418,1.418,0,0,1,201.175,54.376Zm-5.466,0c.9.145.985.506,1.122.848a1.436,1.436,0,0,1-1.269,1.875,1.747,1.747,0,0,1-1.269-.862,1.345,1.345,0,0,1,1.269-1.87C195.61,54.366,195.66,54.371,195.709,54.376Zm-5.466,0c1.577.258,1.343,1.1,1.169,1.72-.191.689-1.317,1-1.317,1C188.61,57.02,188.1,54.259,190.243,54.376Zm-5.466,0c1.577.258,1.343,1.1,1.169,1.72-.191.689-1.317,1-1.317,1C183.144,57.02,182.634,54.259,184.777,54.376Zm-5.466,0c.9.145.985.506,1.121.848a1.436,1.436,0,0,1-1.269,1.875,1.748,1.748,0,0,1-1.269-.862,1.346,1.346,0,0,1,1.269-1.87C179.213,54.366,179.262,54.371,179.311,54.376Zm-5.466,0c1.577.258,1.343,1.1,1.169,1.72-.191.689-1.317,1-1.317,1C172.263,57.02,171.6,54.254,173.845,54.376Zm-5.466,0c1.388.225,1.725,2.62-.148,2.723a1.748,1.748,0,0,1-1.269-.862,1.345,1.345,0,0,1,1.269-1.87C168.281,54.366,168.33,54.371,168.379,54.376Z" id="el_PShpBP7--RB"/><path d="M166.4,55.732l7.73,3.863V51.869Z" id="el_9PGB3DmZhV7"/><path d="M174.17,50.933a.845.845,0,0,1,.309.067.9.9,0,0,1,.586.87V59.6c-.042,1.369-.909,1.047-1.359.839l-7.725-3.863a.828.828,0,0,1-.328-.269.932.932,0,0,1,.328-1.408l7.725-3.863A.764.764,0,0,1,174.17,50.933Zm-5.676,4.8,4.7,2.347V53.386Z" id="el_Di9tJDdapir"/></g></g><g id="el_uRL1vX_BwXJ_3zVngmja9" data-animator-group="true" data-animator-type="0"><g id="el_uRL1vX_BwXJ" data-name="Left arrow 1"><path d="M53.782,54.376c1.338.216,1.838,2.616-.148,2.723a1.7,1.7,0,0,1-1.208-.727A1.416,1.416,0,0,1,53.782,54.376Zm5.466,0C60.637,54.6,60.973,57,59.1,57.1a1.7,1.7,0,0,1-1.208-.727A1.416,1.416,0,0,1,59.248,54.376Zm5.466,0C66.1,54.6,66.439,57,64.566,57.1a1.657,1.657,0,0,1-1.041-.483A1.366,1.366,0,0,1,64.714,54.376Zm5.466,0c1.338.216,1.838,2.616-.148,2.723,0,0-1.2-.234-1.349-1.144A1.418,1.418,0,0,1,70.18,54.376Zm5.466,0c.9.145.985.506,1.121.848A1.435,1.435,0,0,1,75.5,57.1s-1.311-.3-1.365-1.294A1.306,1.306,0,0,1,75.5,54.366C75.548,54.366,75.6,54.371,75.646,54.376Zm5.466,0c.9.145.985.506,1.122.848A1.436,1.436,0,0,1,80.964,57.1a1.7,1.7,0,0,1-1.208-.727A1.416,1.416,0,0,1,81.112,54.376Zm5.466,0c.9.145.985.506,1.122.848A1.436,1.436,0,0,1,86.431,57.1s-1.311-.3-1.365-1.294a1.306,1.306,0,0,1,1.364-1.439C86.48,54.366,86.529,54.371,86.578,54.376Zm5.466,0c1.364.22,1.78,2.62-.148,2.723,0,0-1.311-.3-1.364-1.294A1.306,1.306,0,0,1,91.9,54.366C91.946,54.366,91.995,54.371,92.044,54.376Z" id="el_J03PwBWKxH8"/><path d="M93.728,55.732,86,59.6V51.869Z" id="el_zA0bLgFG9u2"/><path d="M86.064,50.934a1.073,1.073,0,0,1,.356.1l7.725,3.863a.831.831,0,0,1,.328.269.932.932,0,0,1-.328,1.408l-7.725,3.863a.687.687,0,0,1-.619.077.917.917,0,0,1-.741-.916V51.869a.778.778,0,0,1,.056-.312A.807.807,0,0,1,86.064,50.934Zm.872,7.145,4.7-2.347-4.7-2.346Z" id="el_3EHabhKuZoJ"/></g></g></g></svg>