<svg xmlns="http://www.w3.org/2000/svg" viewBox="0 0 1366.11 259.49"><g id="Layer_2" data-name="Layer 2"><g id="Layer_1-2" data-name="Layer 1"><path d="M0,256V14.49H108q36.57,0,58.66,21t22.08,54.18q0,32.09-22.08,53.14t-58.66,21H41.41V256ZM101.79,49.35H41.41v80.74h60q21.74,0,33.64-11.21T147,89.37q0-17.59-11.73-28.81T101.79,49.35Z"/><path d="M368.87,234Q353,247.07,336.61,253.28a102,102,0,0,1-36.4,6.21,87.2,87.2,0,0,1-34.51-6.9,84.5,84.5,0,0,1-27.95-19,92,92,0,0,1-25.54-63.84,96.55,96.55,0,0,1,6.39-35.37,86.4,86.4,0,0,1,17.6-28.29A82.17,82.17,0,0,1,296.41,80.4a78.78,78.78,0,0,1,58.49,25.19A85.31,85.31,0,0,1,372,133.71a100.06,100.06,0,0,1,6.21,35.72v9.66H250.52a54.35,54.35,0,0,0,17.42,33.82,49.17,49.17,0,0,0,34.34,13.45,61.5,61.5,0,0,0,22.94-4.31,50.14,50.14,0,0,0,18.12-11.9Zm-72.8-121.81a40.56,40.56,0,0,0-29.34,11.73q-12.08,11.73-15.52,31.4h90.06q-3.45-19-15.7-31.06A40.56,40.56,0,0,0,296.07,112.15Z"/><path d="M567.63,234q-15.87,13.11-32.26,19.32A102.09,102.09,0,0,1,499,259.49a87.15,87.15,0,0,1-34.5-6.9,84.55,84.55,0,0,1-28-19A92,92,0,0,1,411,169.77a96.54,96.54,0,0,1,6.38-35.37A86.56,86.56,0,0,1,435,106.11,82.17,82.17,0,0,1,495.17,80.4a78.78,78.78,0,0,1,58.48,25.19,85.5,85.5,0,0,1,17.09,28.12A100.06,100.06,0,0,1,577,169.43v9.66H449.27a54.36,54.36,0,0,0,17.43,33.82A49.14,49.14,0,0,0,501,226.36a61.58,61.58,0,0,0,23-4.31,50.1,50.1,0,0,0,18.11-11.9ZM494.82,112.15a40.54,40.54,0,0,0-29.33,11.73Q453.4,135.61,450,155.28H540q-3.46-19-15.71-31.06A40.53,40.53,0,0,0,494.82,112.15Z"/><path d="M616.63,256V83.16h39v37.61q6.9-19.67,19.15-30.19a42.36,42.36,0,0,1,28.47-10.52,81.3,81.3,0,0,1,8.63,1,46.48,46.48,0,0,1,8.28,2.42v34.16A42.37,42.37,0,0,0,710,114.56a62.7,62.7,0,0,0-11.22-1,44.47,44.47,0,0,0-25.19,7.59,52,52,0,0,0-17.94,21V256Z"/><path d="M825.74,225A56.52,56.52,0,0,0,849,220.15,49.26,49.26,0,0,0,867.49,206L891,229.47a86.83,86.83,0,0,1-30,21.91,90.45,90.45,0,0,1-37.62,8.11,86,86,0,0,1-34.33-6.9,85,85,0,0,1-27.78-19A88.39,88.39,0,0,1,742.75,205a92.55,92.55,0,0,1-6.73-35.2,91.24,91.24,0,0,1,6.73-35A85.18,85.18,0,0,1,789,87.65a86,86,0,0,1,34.33-6.9,97.67,97.67,0,0,1,38.13,7.59,87.66,87.66,0,0,1,30.89,21.39l-24.16,25.19a62.46,62.46,0,0,0-20-15.18,54.65,54.65,0,0,0-23.47-5.18q-20.7,0-35.19,16.05T775,169.77q0,23.47,14.49,39.34T825.74,225Z"/><path d="M911.31,169.77A92.36,92.36,0,0,1,918,134.4a88.2,88.2,0,0,1,18.29-28.29A84.7,84.7,0,0,1,963.94,87.3a89.3,89.3,0,0,1,68.84,0,87.16,87.16,0,0,1,27.6,18.81,84.51,84.51,0,0,1,18.29,28.29,97.91,97.91,0,0,1-.17,70.91,87.79,87.79,0,0,1-18.29,28.47,84.6,84.6,0,0,1-27.6,18.81,88.88,88.88,0,0,1-68.67,0,83.17,83.17,0,0,1-27.61-19A90.26,90.26,0,0,1,918,205.14,92.28,92.28,0,0,1,911.31,169.77Zm87,55.9q21,0,34.68-15.87t13.63-39.68q0-24.5-13.8-40.38t-34.51-15.87q-21,0-34.68,15.87T950,170.12q0,24.15,13.63,39.85T998.27,225.67Z"/><path d="M1144.92,48a23.52,23.52,0,0,1-17.08-6.9,22.68,22.68,0,0,1-7.07-16.91A23.17,23.17,0,0,1,1128,7.25,23.2,23.2,0,0,1,1144.92,0a23.6,23.6,0,0,1,17.26,7.25,23.17,23.17,0,0,1,7.24,16.9,22.72,22.72,0,0,1-7.07,16.91A24,24,0,0,1,1144.92,48Zm19.67,35.2V256h-39V83.16Z"/><path d="M1212.55,256V83.16h39v28.3q9.66-15.18,23.63-23.12a62.15,62.15,0,0,1,31.23-7.94q26.22,0,43,17.43t16.74,44.34V256h-39V153.21q0-18.63-10.36-30t-27.6-11.39a42.5,42.5,0,0,0-21.22,5.35,49.43,49.43,0,0,0-16.39,15.36V256Z"/></g></g></svg>