<svg id="el_T1ofyuOxU" data-name="Layer 1" xmlns="http://www.w3.org/2000/svg" viewBox="0 0 400 433"><style>@-webkit-keyframes el_Ndw4MnHH9vE_GxfGT25Wm_Animation{0%{-webkit-transform: translate(41.541996002197266px, 0px) translate(-41.541996002197266px, 0px) translate(0px, 50px);transform: translate(41.541996002197266px, 0px) translate(-41.541996002197266px, 0px) translate(0px, 50px);}28.57%{-webkit-transform: translate(41.541996002197266px, 0px) translate(-41.541996002197266px, 0px) translate(0px, 0px);transform: translate(41.541996002197266px, 0px) translate(-41.541996002197266px, 0px) translate(0px, 0px);}100%{-webkit-transform: translate(41.541996002197266px, 0px) translate(-41.541996002197266px, 0px) translate(0px, 0px);transform: translate(41.541996002197266px, 0px) translate(-41.541996002197266px, 0px) translate(0px, 0px);}}@keyframes el_Ndw4MnHH9vE_GxfGT25Wm_Animation{0%{-webkit-transform: translate(41.541996002197266px, 0px) translate(-41.541996002197266px, 0px) translate(0px, 50px);transform: translate(41.541996002197266px, 0px) translate(-41.541996002197266px, 0px) translate(0px, 50px);}28.57%{-webkit-transform: translate(41.541996002197266px, 0px) translate(-41.541996002197266px, 0px) translate(0px, 0px);transform: translate(41.541996002197266px, 0px) translate(-41.541996002197266px, 0px) translate(0px, 0px);}100%{-webkit-transform: translate(41.541996002197266px, 0px) translate(-41.541996002197266px, 0px) translate(0px, 0px);transform: translate(41.541996002197266px, 0px) translate(-41.541996002197266px, 0px) translate(0px, 0px);}}@-webkit-keyframes el_Ndw4MnHH9vE_Animation{7.14%{opacity: 0;}28.57%{opacity: 1;}85.71%{opacity: 1;}100%{opacity: 0;}0%{opacity: 0;}}@keyframes el_Ndw4MnHH9vE_Animation{7.14%{opacity: 0;}28.57%{opacity: 1;}85.71%{opacity: 1;}100%{opacity: 0;}0%{opacity: 0;}}@-webkit-keyframes el_NYTHSyNVMfg_Animation{28.57%{opacity: 0;}43.33%{opacity: 1;}85.71%{opacity: 1;}100%{opacity: 0;}0%{opacity: 0;}}@keyframes el_NYTHSyNVMfg_Animation{28.57%{opacity: 0;}43.33%{opacity: 1;}85.71%{opacity: 1;}100%{opacity: 0;}0%{opacity: 0;}}@-webkit-keyframes el_FvQk-R7Q8Un_Animation{29.05%{opacity: 0;}43.33%{opacity: 1;}85.71%{opacity: 1;}100%{opacity: 0;}0%{opacity: 0;}}@keyframes el_FvQk-R7Q8Un_Animation{29.05%{opacity: 0;}43.33%{opacity: 1;}85.71%{opacity: 1;}100%{opacity: 0;}0%{opacity: 0;}}@-webkit-keyframes el_KS3YWA6HpGd_Animation{29.05%{opacity: 0;}43.33%{opacity: 1;}85.71%{opacity: 1;}100%{opacity: 0;}0%{opacity: 0;}}@keyframes el_KS3YWA6HpGd_Animation{29.05%{opacity: 0;}43.33%{opacity: 1;}85.71%{opacity: 1;}100%{opacity: 0;}0%{opacity: 0;}}@-webkit-keyframes el_13vHfF0GhHF_Animation{29.05%{opacity: 0;}43.33%{opacity: 1;}85.71%{opacity: 1;}100%{opacity: 0;}0%{opacity: 0;}}@keyframes el_13vHfF0GhHF_Animation{29.05%{opacity: 0;}43.33%{opacity: 1;}85.71%{opacity: 1;}100%{opacity: 0;}0%{opacity: 0;}}@-webkit-keyframes el_cUFmM_f3H3T_Animation{0%{opacity: 0;}46.19%{opacity: 0;}55.71%{opacity: 1;}85.71%{opacity: 1;}100%{opacity: 0;}}@keyframes el_cUFmM_f3H3T_Animation{0%{opacity: 0;}46.19%{opacity: 0;}55.71%{opacity: 1;}85.71%{opacity: 1;}100%{opacity: 0;}}@-webkit-keyframes el_0sGx5dtOy2_Animation{0%{opacity: 0;}50.48%{opacity: 0;}64.76%{opacity: 1;}85.71%{opacity: 1;}100%{opacity: 0;}}@keyframes el_0sGx5dtOy2_Animation{0%{opacity: 0;}50.48%{opacity: 0;}64.76%{opacity: 1;}85.71%{opacity: 1;}100%{opacity: 0;}}#el_T1ofyuOxU *{-webkit-animation-duration: 7s;animation-duration: 7s;-webkit-animation-iteration-count: infinite;animation-iteration-count: infinite;-webkit-animation-timing-function: cubic-bezier(0, 0, 1, 1);animation-timing-function: cubic-bezier(0, 0, 1, 1);}#el_DABIdtbyfo{fill: #50cb69;fill-opacity: 0.1;}#el_Rt6Xp0oAXx{fill: #3cb054;}#el_BXBMoSV1ca{fill: #3cb054;}#el_C_nuh5vITG{fill: #3cb054;}#el_7dUiA8dmwW{fill: #3cb054;}#el_ePc1ZPN4sL{fill: #3cb054;}#el_wp9zz-zVwv{fill: #3cb054;}#el_kU6GHjc42s{fill: #3cb054;}#el_vHbz8X-kh0{fill: #3cb054;}#el_9wM0p836CH{fill: #3cb054;}#el_YteNm-DiMd{fill: #3cb054;}#el_qOBY_Qqd5q{fill: #fff;}#el_vtZ_BPKyUT{fill: #3cb054;}#el_a_Ei0MJdCq0{fill: #fff;}#el_xZSj63n-jEY{fill: #3cb054;}#el_L7HZPmY-zoj{fill: #fff;}#el_AFuqj_-S0JP{fill: #3cb054;}#el_hA8U8xjCyuI{fill: #fff;}#el_3cEdcbINcaS{fill: #3cb054;}#el_5rK_UWLp8pr{fill: #fff;}#el_5blrRvQV-0y{fill: #3cb054;}#el_QktJIct2-2i{fill: #fff;}#el_vmNHXfmwpyO{fill: #3cb054;}#el_3NNeQBAbDrU{fill: #fff;}#el_1Qq15GPV0Ru{fill: #3cb054;}#el_nghy0mpziQN{fill: #fff;}#el_46Lw6VaYYSc{fill: #3cb054;}#el_xvdhohvaaOp{fill: #fff;}#el_h19J6OfYIMM{fill: #3cb054;}#el_UCHnUVhOQfH{fill: #fff;}#el_oqN6pRd3Bdx{fill: #3cb054;}#el_qkhtIXwRqDI{fill: #fff;}#el_IXFfJFCIwvg{fill: #3cb054;}#el_lzj17MHwUer{fill: #fff;}#el_OKN3avOpBm8{fill: #3cb054;}#el_6fmhf6le12H{fill: #3cb054;fill-opacity: 0.2;}#el_vQ5y2U7HCEG{fill: #fff;}#el_356Ju9rOcIC{fill: #3cb054;}#el_Q3kWc5RX-ZU{fill: #3cb054;}#el_2mG-50RRpTT{fill: #fff;}#el_82TLt02MiqR{fill: #3cb054;}#el_pT2h991remW{fill: #3cb054;}#el_DOXU88s3YU4{fill: #3cb054;}#el_Ie_YbrMdxOJ{fill: #3cb054;}#el_8-aakeghSWJ{fill: #ade5b8;}#el_AiVmYEyKLVK{fill: #3cb054;}#el_ELJxiISa0vu{fill: #3cb054;}#el_WrkKd_EjFAu{fill: #3cb054;}#el_YMflx8WeLlL{fill: #3cb054;}#el_cEN6mqPYpjy{fill: #fff;}#el_l1ngVuJZp-F{fill: #ade5b8;}#el_L_4tM0XuCom{fill: #3cb054;}#el_cGEgsu1Hv1c{fill: #3cb054;}#el_73Bm3qbhbpK{fill: #3cb054;}#el_Sl4evt7Om3u{fill: #3cb054;}#el_lfcM6MnwquH{fill: #fff;}#el_G6tagDBgDFS{fill: #ade5b8;}#el_Lutyh3aYsTn{fill: #3cb054;}#el_FEB2Lb0F83j{fill: #3cb054;}#el_KxajjKTwqqa{fill: #3cb054;}#el_4WsTpYPIwJ4{fill: #3cb054;}#el_rrxmg58fktH{fill: #fff;}#el_9iQUwurkyyH{fill: #ade5b8;}#el_FVqQAQottlq{fill: #3cb054;}#el_lmzt04EAfcV{fill: #3cb054;}#el_aDUlo5OQ1bH{fill: #3cb054;}#el__UcDh69ACAh{fill: #3cb054;}#el_fPN_jW1TMD_{fill: #fff;}#el_MUEfiN8Qt3R{fill: #fff;}#el_OAmrvt9Jl1J{fill: #3cb054;}#el_eRU8o2vyQeH{fill: #fff;}#el_vmdgOMZ2E_4{fill: #3cb054;}#el_U2bVdSs9J3f{fill: #fff;}#el_YwBsuJtU9Oe{fill: #3cb054;}#el_bfM5iEOtKWK{fill: #fff;}#el_Xo2Pound5QO{fill: #3cb054;}#el_bkapI1B94Yu{fill: #3cb054;}#el_ul1ZA3lmNhW{fill: #3cb054;}#el_Hqz9SAD0sWe{fill: #3cb054;}#el_OI8pfm3801a{fill: #fff;}#el_48mT8bUmR2E{fill: #3cb054;}#el_JFd-CzgNVpm{fill: #3cb054;}#el_sM0Yv_-IsLD{fill: #fff;}#el_rx3l-HdT8FL{fill: #3cb054;}#el_1_xcWYutIDL{fill: #3cb054;}#el_UC3eXdRe5ul{fill: #fff;}#el_sFcjAu1B4E8{fill: #3cb054;}#el_hnpn1kRA1B_{fill: #3cb054;}#el_Cdl6oOY1dSN{fill: #fff;}#el_bq81YToOQnb{fill: #3cb054;}#el_XcJdQzBLUVA{fill: #3cb054;}#el_0sGx5dtOy2{-webkit-animation-name: el_0sGx5dtOy2_Animation;animation-name: el_0sGx5dtOy2_Animation;}#el_cUFmM_f3H3T{-webkit-animation-name: el_cUFmM_f3H3T_Animation;animation-name: el_cUFmM_f3H3T_Animation;-webkit-animation-timing-function: cubic-bezier(0.42, 0, 0.58, 1);animation-timing-function: cubic-bezier(0.42, 0, 0.58, 1);}#el_13vHfF0GhHF{-webkit-animation-name: el_13vHfF0GhHF_Animation;animation-name: el_13vHfF0GhHF_Animation;-webkit-animation-timing-function: cubic-bezier(0.42, 0, 0.58, 1);animation-timing-function: cubic-bezier(0.42, 0, 0.58, 1);}#el_KS3YWA6HpGd{-webkit-animation-name: el_KS3YWA6HpGd_Animation;animation-name: el_KS3YWA6HpGd_Animation;-webkit-animation-timing-function: cubic-bezier(0.42, 0, 0.58, 1);animation-timing-function: cubic-bezier(0.42, 0, 0.58, 1);}#el_FvQk-R7Q8Un{-webkit-animation-name: el_FvQk-R7Q8Un_Animation;animation-name: el_FvQk-R7Q8Un_Animation;-webkit-animation-timing-function: cubic-bezier(0.42, 0, 0.58, 1);animation-timing-function: cubic-bezier(0.42, 0, 0.58, 1);}#el_NYTHSyNVMfg{-webkit-animation-name: el_NYTHSyNVMfg_Animation;animation-name: el_NYTHSyNVMfg_Animation;-webkit-animation-timing-function: cubic-bezier(0.42, 0, 0.58, 1);animation-timing-function: cubic-bezier(0.42, 0, 0.58, 1);}#el_Ndw4MnHH9vE{-webkit-animation-name: el_Ndw4MnHH9vE_Animation;animation-name: el_Ndw4MnHH9vE_Animation;-webkit-animation-timing-function: cubic-bezier(0.42, 0, 0.58, 1);animation-timing-function: cubic-bezier(0.42, 0, 0.58, 1);}#el_Ndw4MnHH9vE_GxfGT25Wm{-webkit-animation-name: el_Ndw4MnHH9vE_GxfGT25Wm_Animation;animation-name: el_Ndw4MnHH9vE_GxfGT25Wm_Animation;-webkit-animation-timing-function: cubic-bezier(0.42, 0, 0.58, 1);animation-timing-function: cubic-bezier(0.42, 0, 0.58, 1);}</style><defs/><title>WORKPLEASE</title><g id="el_6hT4fTPdAN"><circle cx="200" cy="233.832" r="200" id="el_DABIdtbyfo"/></g><g id="el_0sGx5dtOy2"><path d="M103.624,300.2,297.356,412.056s1.367.094.619,2.3l-.433.495a2.222,2.222,0,0,1-1.245.335l-.625-.213L101.939,303.125s-1.367-.094-.619-2.3l1.023-.786A3.271,3.271,0,0,1,103.624,300.2Z" id="el_Rt6Xp0oAXx"/><path d="M150.3,288.465a1.77,1.77,0,0,1,.549.2l34.084,19.678c.726.475.758.567.843,1.38l1.937,39.925c-.019,1.77-3.107,2.6-3.367.164L182.456,310.8l-33.291-19.221a2.074,2.074,0,0,1-.831-1.656A1.748,1.748,0,0,1,150.3,288.465Z" id="el_BXBMoSV1ca"/><path d="M316.633,327.251a1.729,1.729,0,0,1,.716,3.141l-34.087,19.68a1.563,1.563,0,0,1-.816.225l-69.152,1.119c-1.794-.106-2.2-3.176-.053-3.372l68.716-1.112,33.7-19.459A1.631,1.631,0,0,1,316.633,327.251Z" id="el_C_nuh5vITG"/><path d="M282.443,364.884a1.564,1.564,0,0,1,.815.226l34.087,19.68c1.456.993.54,3.992-1.687,2.919l-33.7-19.46-68.716-1.112s-1.4-.26-1.624-1.338a1.773,1.773,0,0,1,1.677-2.034Z" id="el_7dUiA8dmwW"/><path d="M186.212,363.778a1.78,1.78,0,0,1,1.5,1.758l-1.937,39.925c-.091.863-.158.932-.843,1.379l-34.084,19.678a1.469,1.469,0,0,1-1.328.156,1.749,1.749,0,0,1-.359-3.075l33.291-19.221,1.893-39.007S184.727,363.707,186.212,363.778Z" id="el_ePc1ZPN4sL"/><path d="M82.92,327.25a1.794,1.794,0,0,1,.717.221l34.432,19.879,67.981.693s1.394.25,1.63,1.327a1.772,1.772,0,0,1-1.663,2.044l-68.425-.7a1.546,1.546,0,0,1-.824-.224l-34.817-20.1A1.727,1.727,0,0,1,82.92,327.25Z" id="el_wp9zz-zVwv"/><path d="M249.386,288.44a1.739,1.739,0,0,1,.744,3.143l-34,19.632-1.179,38.565a2.074,2.074,0,0,1-1.066,1.517,1.654,1.654,0,0,1-2.3-1.62l1.207-39.5c.076-.879.147-.953.842-1.409l34.814-20.1A1.587,1.587,0,0,1,249.386,288.44Z" id="el_kU6GHjc42s"/><path d="M213.5,363.783a1.512,1.512,0,0,1,1.444,1.617l1.179,38.565,34,19.632a2.074,2.074,0,0,1,.831,1.656,1.656,1.656,0,0,1-2.518,1.264l-34.814-20.1c-.74-.485-.772-.581-.843-1.409l-1.207-39.5A1.73,1.73,0,0,1,213.5,363.783Z" id="el_vHbz8X-kh0"/><path d="M186.263,363.782c1.666.362,1.874,3.178-.218,3.356l-67.981.693L83.633,387.71a2.105,2.105,0,0,1-1.894-.142,1.768,1.768,0,0,1,.207-2.777l34.817-20.1a1.548,1.548,0,0,1,.823-.225l68.425-.7Z" id="el_9wM0p836CH"/><path d="M296.951,300.034a2.28,2.28,0,0,1,1.023.786s1.136.766-.619,2.3L103.624,414.974l-1.281.169-1.024-.786a1.965,1.965,0,0,1,.12-1.868l.5-.436L295.671,300.2A3.289,3.289,0,0,1,296.951,300.034Z" id="el_YteNm-DiMd"/><path d="M155.194,286.386c3.22,1.859,3.22,4.874,0,6.733a12.888,12.888,0,0,1-11.662,0c-3.22-1.859-3.22-4.874,0-6.733A12.888,12.888,0,0,1,155.194,286.386Z" id="el_qOBY_Qqd5q"/><path d="M149.47,283.3c4.627.049,10.6,2.076,9.759,7.177-1.159,7-15.9,7.969-19.271,1.395a4.709,4.709,0,0,1,.176-4.575C141.92,284.359,145.784,283.291,149.47,283.3Zm-.2,3.373c-2.142.023-4.456.381-5.938,1.96-1.068,1.136.64,3.115,2.753,3.738,3.168.932,7.122.736,9.262-1.478C157.044,289.147,153.2,286.662,149.275,286.678Z" id="el_vtZ_BPKyUT"/><path d="M322.979,331.927a12.888,12.888,0,0,1-11.662,0c-3.22-1.859-3.22-4.874,0-6.733a12.888,12.888,0,0,1,11.662,0C326.2,327.053,326.2,330.068,322.979,331.927Z" id="el_a_Ei0MJdCq0"/><path d="M317.259,322.114c4.253.044,9.342,1.564,9.8,5.986.659,6.4-12.573,9.577-18.188,4.083a4.931,4.931,0,0,1-.943-6.072C309.705,323.17,313.581,322.1,317.259,322.114Zm-.2,3.371c-2.141.022-4.456.383-5.935,1.96-1.057,1.127.642,3.116,2.755,3.738,3.164.933,7.122.737,9.261-1.478C324.846,327.942,321,325.472,317.062,325.485Z" id="el_xZSj63n-jEY"/><path d="M322.98,383.257a12.888,12.888,0,0,0-11.662,0c-3.22,1.859-3.22,4.874,0,6.733a12.888,12.888,0,0,0,11.662,0C326.2,388.13,326.2,385.116,322.98,383.257Z" id="el_L7HZPmY-zoj"/><path d="M317.26,380.178c4.653.049,10.584,2.2,9.759,7.177-1.173,7.1-15.985,7.821-19.275,1.392a4.7,4.7,0,0,1,.183-4.569C309.713,381.221,313.664,380.168,317.26,380.178Zm-.2,3.373c-2.14.022-4.457.381-5.937,1.96-1.066,1.135.639,3.116,2.753,3.738,3.409,1,8.161.79,9.662-2.009a1.509,1.509,0,0,0,.138-.364C324.21,384.559,320.3,383.541,317.065,383.551Z" id="el_AFuqj_-S0JP"/><path d="M155.195,428.8c3.22-1.859,3.22-4.874,0-6.733a12.888,12.888,0,0,0-11.662,0c-3.22,1.859-3.22,4.874,0,6.733A12.888,12.888,0,0,0,155.195,428.8Z" id="el_hA8U8xjCyuI"/><path d="M149.472,418.987c4.253.044,9.343,1.565,9.8,5.986.652,6.353-12.509,9.484-18.121,4.151a4.943,4.943,0,0,1-1.056-6.062C141.831,420.068,145.786,418.976,149.472,418.987Zm-.2,3.371c-2.142.022-4.451.376-5.935,1.96-1.057,1.127.6,3.087,2.675,3.716,3.429,1.036,8.223.843,9.737-1.987a1.53,1.53,0,0,0,.139-.364C156.423,423.365,152.517,422.347,149.274,422.358Z" id="el_3cEdcbINcaS"/><path d="M87.979,325.192c3.22,1.859,3.22,4.874,0,6.733a12.888,12.888,0,0,1-11.662,0c-3.22-1.859-3.22-4.874,0-6.733A12.888,12.888,0,0,1,87.979,325.192Z" id="el_5rK_UWLp8pr"/><path d="M82.255,322.111c4.254.045,9.34,1.567,9.8,5.987.653,6.313-12.53,9.616-18.187,4.084a4.934,4.934,0,0,1-.945-6.075C74.7,323.168,78.579,322.1,82.255,322.111Zm-.2,3.373c-2.145.02-4.456.381-5.938,1.96-1.049,1.12.6,3.087,2.679,3.716,3.425,1.038,8.215.849,9.737-1.987a1.515,1.515,0,0,0,.138-.364C89.209,326.479,85.225,325.474,82.059,325.484Z" id="el_5blrRvQV-0y"/><path d="M255.764,293.12a12.888,12.888,0,0,1-11.662,0c-3.22-1.859-3.22-4.874,0-6.733a12.888,12.888,0,0,1,11.662,0C258.984,288.247,258.984,291.261,255.764,293.12Z" id="el_QktJIct2-2i"/><path d="M250.046,283.308c4.252.044,9.342,1.564,9.8,5.986.662,6.448-12.632,9.517-18.188,4.083a4.928,4.928,0,0,1-.944-6.072C242.491,284.364,246.359,283.292,250.046,283.308Zm-.2,3.371c-2.142.022-4.453.38-5.936,1.96-1.058,1.127.6,3.088,2.675,3.716,3.43,1.036,8.221.847,9.737-1.987a1.486,1.486,0,0,0,.139-.364C256.991,287.7,253.077,286.666,249.848,286.679Z" id="el_vmNHXfmwpyO"/><path d="M255.765,422.063a12.888,12.888,0,0,0-11.662,0c-3.22,1.859-3.22,4.874,0,6.733a12.888,12.888,0,0,0,11.662,0C258.985,426.937,258.985,423.923,255.765,422.063Z" id="el_3NNeQBAbDrU"/><path d="M250.045,418.985c4.254.045,9.342,1.566,9.8,5.987.659,6.375-12.629,9.518-18.186,4.084a4.922,4.922,0,0,1-.991-5.993C242.406,420.065,246.362,418.975,250.045,418.985Zm-.2,3.373c-2.145.02-4.451.373-5.938,1.96-1.055,1.129.6,3.087,2.679,3.716,3.425,1.038,8.218.842,9.736-1.987a1.512,1.512,0,0,0,.139-.365C257,423.369,253.093,422.348,249.85,422.358Z" id="el_1Qq15GPV0Ru"/><path d="M87.98,389.99c3.22-1.859,3.22-4.874,0-6.733a12.888,12.888,0,0,0-11.662,0c-3.22,1.859-3.22,4.874,0,6.733A12.888,12.888,0,0,0,87.98,389.99Z" id="el_nghy0mpziQN"/><path d="M82.257,380.18c4.65.049,10.585,2.2,9.759,7.177-1.175,7.1-15.981,7.818-19.276,1.393a4.711,4.711,0,0,1,.182-4.573C74.7,381.239,78.57,380.169,82.257,380.18Zm-.2,3.371c-2.141.022-4.454.379-5.936,1.96-1.053,1.125.6,3.085,2.676,3.717,3.429,1.041,8.238.812,9.736-1.988a1.507,1.507,0,0,0,.14-.364C89.2,384.57,85.294,383.541,82.059,383.551Z" id="el_46Lw6VaYYSc"/><path d="M108.615,298.3c3.22,1.859,3.22,4.874,0,6.733a12.888,12.888,0,0,1-11.662,0c-3.22-1.859-3.22-4.874,0-6.733A12.888,12.888,0,0,1,108.615,298.3Z" id="el_xvdhohvaaOp"/><path d="M102.891,295.219c4.253.046,9.338,1.568,9.8,5.987.667,6.45-12.63,9.519-18.187,4.085a4.931,4.931,0,0,1-.945-6.075C95.337,296.275,99.3,295.206,102.891,295.219Zm-.2,3.373c-2.142.023-4.458.382-5.938,1.96-1.065,1.134.64,3.115,2.753,3.738,3.168.932,7.122.736,9.263-1.478C110.465,301.061,106.623,298.576,102.7,298.592Z" id="el_h19J6OfYIMM"/><path d="M302.341,305.033a12.888,12.888,0,0,1-11.662,0c-3.22-1.859-3.22-4.874,0-6.733a12.888,12.888,0,0,1,11.662,0C305.561,300.16,305.561,303.174,302.341,305.033Z" id="el_UCHnUVhOQfH"/><path d="M296.622,295.221c4.252.044,9.34,1.568,9.8,5.985.665,6.45-12.631,9.518-18.188,4.083a4.924,4.924,0,0,1-.944-6.072C289.067,296.276,293.025,295.206,296.622,295.221Zm-.2,3.371c-2.142.022-4.457.382-5.936,1.96-1.061,1.13.6,3.088,2.676,3.717,3.429,1.036,8.221.847,9.737-1.987a1.486,1.486,0,0,0,.139-.364C303.573,299.594,299.653,298.579,296.425,298.592Z" id="el_oqN6pRd3Bdx"/><path d="M302.344,410.149a12.888,12.888,0,0,0-11.662,0c-3.22,1.859-3.22,4.874,0,6.733a12.888,12.888,0,0,0,11.662,0C305.564,415.023,305.564,412.008,302.344,410.149Z" id="el_qkhtIXwRqDI"/><path d="M296.629,407.073c4.249.043,9.337,1.569,9.792,5.985.668,6.464-12.63,9.518-18.187,4.085a4.933,4.933,0,0,1-.945-6.075C289.074,408.12,293.008,407.057,296.629,407.073Zm-.2,3.371c-2.625.028-6.423.648-6.475,3.049-.043,2.207,3.346,3.056,6.387,3.1,2.714.036,6.683-.638,6.731-3.052C303.118,411.3,299.546,410.431,296.429,410.444Z" id="el_IXFfJFCIwvg"/><path d="M108.614,416.881c3.22-1.859,3.22-4.874,0-6.733a12.888,12.888,0,0,0-11.662,0c-3.22,1.859-3.22,4.874,0,6.733A12.888,12.888,0,0,0,108.614,416.881Z" id="el_lzj17MHwUer"/><path d="M102.891,407.072c4.253.044,9.34,1.568,9.8,5.985.666,6.466-12.631,9.519-18.188,4.083a4.922,4.922,0,0,1-.989-5.993C95.249,408.152,99.2,407.055,102.891,407.072Zm-.2,3.371c-2.625.027-6.421.642-6.469,3.05-.045,2.216,3.344,3.054,6.382,3.1,2.7.038,6.678-.558,6.731-3.049C109.385,411.3,105.81,410.429,102.693,410.443Z" id="el_OKN3avOpBm8"/></g><path d="M257.634,324.608c31.846,18.386,31.893,48.169.106,66.522s-83.373,18.325-115.219-.061-31.893-48.169-.106-66.522S225.788,306.221,257.634,324.608Z" id="el_6fmhf6le12H"/><path d="M170.549,309.019l-9.092,21.273-.363,49.937,76.945-.559.159-50.325-6.958-19.515-11.9-1.632-.652-17.063-37.907.373v17.763Z" id="el_vQ5y2U7HCEG"/><path d="M241.54,328.3v.124a4.375,4.375,0,0,1,.292,1.626v48.118a4.769,4.769,0,0,1-4.687,4.673H162.157a4.769,4.769,0,0,1-4.687-4.673V330.048a5.377,5.377,0,0,1,.292-1.75l7.909-19.647a4.887,4.887,0,0,1,1.757-2.1,4.477,4.477,0,0,1,2.637-.824h6.152V291.678a4.766,4.766,0,0,1,4.687-4.7H218.4a4.766,4.766,0,0,1,4.687,4.7v14.048h6.152a4.478,4.478,0,0,1,2.637.824,4.888,4.888,0,0,1,1.757,2.1Zm-58.294-34.27V315.1h32.808V294.028Zm-11.568,18.747L165.672,328h67.96l-6.007-15.222h-4.539v9.374H176.218v-9.374Zm-7.176,63.04h70.3l-.145-40.793H164.647Z" id="el_356Ju9rOcIC"/><path d="M224.331,314.938H174.684l-2.3,7.31h54.527Z" id="el_Q3kWc5RX-ZU"/><rect x="183.24" y="311.269" width="32.808" height="8.598" id="el_2mG-50RRpTT"/><rect x="161.256" y="332.584" width="75.71" height="46.18" id="el_82TLt02MiqR"/><g id="el_cUFmM_f3H3T"><path d="M196.841,315.817a.955.955,0,0,0,1.419,0l11.627-11.583a.976.976,0,0,0,.276-.713.95.95,0,0,0-.276-.706l-1.458-1.419a.864.864,0,0,0-.69-.316.983.983,0,0,0-.729.316l-9.459,9.457-4.414-4.413a.983.983,0,0,0-.729-.316.864.864,0,0,0-.69.316l-1.458,1.419a.95.95,0,0,0-.276.706.976.976,0,0,0,.276.713Z" id="el_pT2h991remW"/></g><g id="el_13vHfF0GhHF" data-name="Right horizontal line"><path d="M333.476,242.3c2.218.511,2.311,4.252-.333,4.451a2.592,2.592,0,0,1-1.748-.848A2.306,2.306,0,0,1,333.476,242.3Zm-8.942,0c2.218.511,2.311,4.252-.333,4.451a2.592,2.592,0,0,1-1.748-.848A2.306,2.306,0,0,1,324.534,242.3Zm-8.942,0c2.218.511,2.311,4.252-.333,4.451a2.732,2.732,0,0,1-2.081-1.421A2.3,2.3,0,0,1,315.593,242.3Zm-8.94,0c2.217.511,2.311,4.252-.334,4.451a2.732,2.732,0,0,1-2.081-1.421A2.3,2.3,0,0,1,306.652,242.3Zm-8.942,0c2.218.511,2.311,4.252-.334,4.451a2.734,2.734,0,0,1-2.081-1.421A2.3,2.3,0,0,1,297.711,242.3Zm-8.942,0c2.218.511,2.311,4.252-.333,4.451,0,0-1.849-.287-2.18-1.733A2.312,2.312,0,0,1,288.769,242.3Zm-8.942,0c2.218.511,2.311,4.252-.333,4.451a2.732,2.732,0,0,1-2.081-1.421A2.3,2.3,0,0,1,279.827,242.3Zm-8.942,0c2.218.511,2.311,4.252-.333,4.451,0,0-1.849-.287-2.179-1.733A2.311,2.311,0,0,1,270.886,242.3Zm-8.94,0c2.217.511,2.311,4.252-.334,4.451,0,0-2.1-.411-2.229-2.07A2.3,2.3,0,0,1,261.945,242.3Zm-8.942,0c2.218.511,2.311,4.252-.333,4.451,0,0-2.105-.411-2.23-2.07A2.3,2.3,0,0,1,253,242.3Zm-8.942,0c2.218.511,2.311,4.252-.333,4.451,0,0-2.105-.411-2.23-2.07A2.3,2.3,0,0,1,244.062,242.3Zm-8.942,0c2.218.511,2.311,4.252-.333,4.451a2.732,2.732,0,0,1-2.081-1.421A2.3,2.3,0,0,1,235.121,242.3Zm-8.94,0c2.217.511,2.31,4.252-.334,4.451,0,0-2.105-.411-2.23-2.07A2.305,2.305,0,0,1,226.18,242.3Zm-8.942,0c2.217.511,2.311,4.252-.334,4.451,0,0-1.848-.287-2.179-1.733A2.312,2.312,0,0,1,217.239,242.3Zm-8.942,0a2.319,2.319,0,0,1,1.187,3.853,3.477,3.477,0,0,1-1.521.6c-1.85-.137-2.816-2.668-1.52-3.878A2.444,2.444,0,0,1,208.3,242.3Z" id="el_DOXU88s3YU4"/></g><g id="el_KS3YWA6HpGd" data-name="Left horizontal line"><path d="M67.427,242.3c2.2.511,2.443,4.24-.333,4.451a3.121,3.121,0,0,1-1.26-.386A2.3,2.3,0,0,1,67.427,242.3Zm8.942,0a2.3,2.3,0,0,1,1.187,3.853,3.477,3.477,0,0,1-1.521.6C73.589,246.564,73,242.05,76.369,242.3Zm8.942,0c2.2.511,2.443,4.24-.334,4.451a3.121,3.121,0,0,1-1.26-.386A2.3,2.3,0,0,1,85.31,242.3Zm8.942,0c2.2.511,2.443,4.24-.334,4.451a3.121,3.121,0,0,1-1.26-.386A2.3,2.3,0,0,1,94.252,242.3Zm8.94,0a2.3,2.3,0,0,1,1.188,3.853,3.482,3.482,0,0,1-1.521.6C100.413,246.564,99.822,242.05,103.192,242.3Zm8.942,0a2.3,2.3,0,0,1,1.187,3.853,3.477,3.477,0,0,1-1.521.6,2.328,2.328,0,0,1-1.52-3.878A2.444,2.444,0,0,1,112.134,242.3Zm8.942,0a2.3,2.3,0,0,1,1.187,3.853,3.477,3.477,0,0,1-1.521.6,2.328,2.328,0,0,1-1.52-3.878A2.444,2.444,0,0,1,121.075,242.3Zm8.942,0a2.3,2.3,0,0,1,1.187,3.853,3.477,3.477,0,0,1-1.521.6,2.328,2.328,0,0,1-1.521-3.878A2.448,2.448,0,0,1,130.017,242.3Zm8.94,0a2.319,2.319,0,0,1,1.188,3.853,3.482,3.482,0,0,1-1.521.6,2.328,2.328,0,0,1-1.521-3.878A2.445,2.445,0,0,1,138.957,242.3Zm8.942,0c2.192.511,2.311,4.252-.333,4.451a2.732,2.732,0,0,1-2.081-1.421A2.3,2.3,0,0,1,147.9,242.3Zm8.942,0a2.319,2.319,0,0,1,1.187,3.853,3.477,3.477,0,0,1-1.521.6,2.309,2.309,0,0,1-1.52-3.878A2.444,2.444,0,0,1,156.84,242.3Zm8.942,0c2.218.511,2.311,4.252-.334,4.451,0,0-1.848-.287-2.179-1.733A2.312,2.312,0,0,1,165.782,242.3Zm8.942,0a2.319,2.319,0,0,1,1.187,3.853,3.482,3.482,0,0,1-1.521.6C171.944,246.564,171.353,242.05,174.724,242.3Zm8.94,0c2.218.511,2.311,4.252-.333,4.451,0,0-1.849-.287-2.18-1.733A2.312,2.312,0,0,1,183.664,242.3Zm8.942,0a2.319,2.319,0,0,1,1.187,3.853,3.477,3.477,0,0,1-1.521.6C189.826,246.564,189.235,242.05,192.606,242.3Z" id="el_Ie_YbrMdxOJ"/></g><g id="el_YSsvOkttQfr"><path d="M311.576,197.681c-15.566,8.987-15.594,23.542-.062,32.51s40.743,8.952,56.309-.036,15.594-23.542.062-32.51S327.142,188.694,311.576,197.681Z" id="el_8-aakeghSWJ"/><path d="M324.823,101.1c3.018-1.736,5.091-4.493,10.371-4.575,12.215-.194,22.479,15.342,21.864,27.539-.188,3.711-1.721,7.645-5.2,9.522l-2.191,1.259s1.612.857,2.874,1.595a13.994,13.994,0,0,1,1.439.939,22.65,22.65,0,0,1,9.491,17.592q.074,15.234,0,30.482a6.233,6.233,0,0,1-2.918,5.469l-5.071,2.928c0,7.511.036,15.022,0,22.532a6.284,6.284,0,0,1-2.784,5.394c-4.178,2.4-7.965,5.283-12.037,3.063-4.383-2.451-8.707-5-13.043-7.533a12.831,12.831,0,0,1-6.195-10.432l-.007-.186V178.182c-4.3-2.481-7.861-6.512-7.988-11.467v-.1q-.078-15.245,0-30.483c.015-.737.03-.8.052-1.155a8.954,8.954,0,0,1,4.262-7.213c1.893-1.1,3.778-2.206,5.678-3.278,0,0-3.6-7.98-3.6-12.935,0-4,1.334-8.219,4.843-10.357C324.718,101.167,324.778,101.13,324.823,101.1Zm10.5,1.386a3.8,3.8,0,0,0-1.937.559c-3.561,2.049-7.607,3.264-7.607,8.509,0,4.769,2.093,9.366,4.939,13.226a3.947,3.947,0,0,1,.581,1.729,3.147,3.147,0,0,1-3.653,2.958,3.648,3.648,0,0,0-1.5.328c-1.878,1.088-3.77,2.131-5.641,3.256-.976.611-1.1,2.019-1.118,3.144-.052,10.149-.246,20.3,0,30.445a6.776,6.776,0,0,0,3.271,5.372l3.226,1.87a4.066,4.066,0,0,1,1.413,1.893,2.943,2.943,0,0,1,.08.685c0,10.119-.243,20.23,0,30.341a6.737,6.737,0,0,0,3.263,5.372c4.3,2.511,8.567,5.082,12.935,7.466a4.044,4.044,0,0,0,.516.223l5.392-3.115a2.7,2.7,0,0,0,.035-.469V191.907a2.823,2.823,0,0,1,2.492-2.936l5.463-3.159a2.424,2.424,0,0,0,.034-.343c.253-10.148.05-20.3,0-30.445a16.522,16.522,0,0,0-8.1-13.509l-1.642-.946a21.666,21.666,0,0,1-7.939-2.809s-3.012-2.973-.677-4.977c1.161-.991,2.939-.387,4.366-1.259,4.315-2.5,8.977-4.389,7.158-12.384-1.54-6.773-5.963-13.114-12.36-15.923A7.572,7.572,0,0,0,335.327,102.486Z" id="el_AiVmYEyKLVK"/><path d="M341.316,101.411q-5.395-3.115-9.089-1.152-3.7,2.017-3.7,7.991a24.126,24.126,0,0,0,3.7,12.257,25.447,25.447,0,0,0,9.089,9.343q5.395,3.115,9.089,1.152,3.7-2.017,3.7-7.99a24.127,24.127,0,0,0-3.7-12.258A25.45,25.45,0,0,0,341.316,101.411Zm-9.586,26.468c-2.666-1.539-4.93-1.822-6.794-.813-1.861.973-2.8,2.974-2.8,5.932v30.22a8.9,8.9,0,0,0,1.4,4.561,9.36,9.36,0,0,0,3.4,3.515l3.2,1.846v30.22a9.025,9.025,0,0,0,1.4,4.6,9.637,9.637,0,0,0,3.4,3.515l12.784,7.381a3.434,3.434,0,0,0,3.4.406c.934-.485,1.4-1.506,1.4-2.985v-30.22l3.2,1.846c1.33.768,2.465.93,3.4.406a3.007,3.007,0,0,0,1.4-2.947V155.14a17.894,17.894,0,0,0-2.8-9.16,18.981,18.981,0,0,0-6.791-7.03l-2.2-1.27a17.874,17.874,0,0,1-7.391-2.485,32.641,32.641,0,0,1-7.391-6.05Z" id="el_ELJxiISa0vu"/><path d="M344.674,134.293l5.732-3.308-18.177-30.71-5.916,3.409Z" id="el_WrkKd_EjFAu"/><path d="M345.375,222.568l5.732-3.308-.3-27.621,2.557,0,5.73-3.308-1.456-24.235-32.981-36.873-5.453,3.148,23.351,56.273Z" id="el_YMflx8WeLlL"/><path d="M335.588,104.717q-5.395-3.115-9.089-1.152-3.7,2.017-3.7,7.991a24.126,24.126,0,0,0,3.7,12.257,25.447,25.447,0,0,0,9.089,9.343q5.395,3.115,9.089,1.152,3.7-2.017,3.7-7.99a24.127,24.127,0,0,0-3.7-12.258A25.45,25.45,0,0,0,335.588,104.717ZM326,131.185c-2.666-1.539-4.93-1.822-6.794-.813-1.861.973-2.8,2.974-2.8,5.932v30.22a8.9,8.9,0,0,0,1.4,4.561,9.36,9.36,0,0,0,3.4,3.515l3.2,1.846v30.22a9.025,9.025,0,0,0,1.4,4.6,9.637,9.637,0,0,0,3.4,3.515l12.784,7.381a3.434,3.434,0,0,0,3.4.406c.934-.485,1.4-1.506,1.4-2.985v-30.22l3.2,1.846c1.33.768,2.465.93,3.4.406a3.007,3.007,0,0,0,1.4-2.947v-30.22a17.894,17.894,0,0,0-2.8-9.16,18.981,18.981,0,0,0-6.791-7.03l-2.2-1.27a17.874,17.874,0,0,1-7.391-2.485,32.641,32.641,0,0,1-7.391-6.05Z" id="el_cEN6mqPYpjy"/><path d="M230.5,150.871c-15.566,8.987-15.594,23.542-.062,32.51s40.743,8.952,56.309-.036,15.594-23.542.062-32.51S246.067,141.884,230.5,150.871Z" id="el_l1ngVuJZp-F"/><path d="M254.4,49.715c7.517.127,13.849,6.371,17.74,13.144,4.515,7.868,6.772,19.4-1.323,23.9l-2.226,1.281s2.295,1.177,3.747,2.146a22.508,22.508,0,0,1,10.057,17.98q.074,15.234,0,30.482a6.234,6.234,0,0,1-2.918,5.469l-5.071,2.928c0,7.511.036,15.022,0,22.532a6.251,6.251,0,0,1-2.784,5.394c-4.178,2.4-7.963,5.29-12.039,3.063-4.379-2.451-8.706-5-13.041-7.533a12.855,12.855,0,0,1-6.2-10.618V131.372c-4.247-2.451-7.913-6.542-7.988-11.564q-.067-15.245,0-30.483c.052-3.271,1.207-6.587,4.232-8.323l.089-.045c1.885-1.1,3.763-2.2,5.67-3.278,0,0-3.36-6.222-3.584-12.071-.156-4.2,1.028-8.725,4.515-11.028.1-.067.2-.134.305-.194,2.042-1.23,3.767-2.168,5.691-3.279A9.533,9.533,0,0,1,254.4,49.715Zm-.153,5.961a3.729,3.729,0,0,0-1.936.559c-3.565,2.056-7.608,3.338-7.608,8.509,0,4.776,2.093,9.366,4.939,13.226a3.673,3.673,0,0,1,.241,3.152c-.94,1.8-3.843,1.349-4.814,1.863h0c-1.878,1.088-3.785,2.146-5.641,3.256-.976.618-1.1,2.027-1.118,3.144-.052,10.149-.246,20.3,0,30.445a6.754,6.754,0,0,0,3.264,5.372l3.234,1.87a4.066,4.066,0,0,1,1.413,1.893,2.943,2.943,0,0,1,.08.685c0,10.119-.243,20.23,0,30.341a6.741,6.741,0,0,0,3.263,5.372c4.3,2.511,8.567,5.082,12.935,7.466a4.245,4.245,0,0,0,.516.223l5.392-3.115a2.7,2.7,0,0,0,.035-.469V145.1a2.825,2.825,0,0,1,2.492-2.936L276.4,139a2.424,2.424,0,0,0,.034-.343c.253-10.148.05-20.3,0-30.445a16.564,16.564,0,0,0-8.1-13.509l-1.642-.946a21.7,21.7,0,0,1-8.067-2.884s-2.9-3.383-.247-5.126c1.174-.775,2.7-.209,4.065-1.043,4.343-2.5,8.953-4.493,7.158-12.377-1.558-6.848-6.16-13.285-12.488-15.975A7.17,7.17,0,0,0,254.251,55.676Z" id="el_L_4tM0XuCom"/><path d="M260.24,54.6q-5.395-3.115-9.089-1.152-3.7,2.017-3.7,7.991a24.126,24.126,0,0,0,3.7,12.257,25.447,25.447,0,0,0,9.089,9.343q5.395,3.115,9.089,1.152,3.7-2.017,3.7-7.99a24.127,24.127,0,0,0-3.7-12.258A25.45,25.45,0,0,0,260.24,54.6Zm-9.586,26.468c-2.666-1.539-4.93-1.822-6.794-.813-1.861.973-2.8,2.974-2.8,5.932v30.22a8.9,8.9,0,0,0,1.4,4.561,9.36,9.36,0,0,0,3.4,3.515l3.2,1.846v30.22a9.025,9.025,0,0,0,1.4,4.6,9.637,9.637,0,0,0,3.4,3.515l12.784,7.381a3.434,3.434,0,0,0,3.4.406c.934-.485,1.4-1.506,1.4-2.985v-30.22l3.2,1.846c1.33.768,2.465.93,3.4.406a3.007,3.007,0,0,0,1.4-2.947V108.33a17.894,17.894,0,0,0-2.8-9.16,18.981,18.981,0,0,0-6.791-7.03l-2.2-1.27a17.874,17.874,0,0,1-7.391-2.485,32.641,32.641,0,0,1-7.391-6.05Z" id="el_cGEgsu1Hv1c"/><path d="M263.6,87.483l5.732-3.308-18.177-30.71-5.916,3.409Z" id="el_73Bm3qbhbpK"/><path d="M264.3,175.758l5.732-3.308-.3-27.621,2.557,0,5.73-3.308-1.456-24.235L243.583,80.408l-5.453,3.148,23.351,56.273Z" id="el_Sl4evt7Om3u"/><path d="M254.513,57.907q-5.395-3.115-9.089-1.152-3.7,2.017-3.7,7.991A24.126,24.126,0,0,0,245.424,77a25.447,25.447,0,0,0,9.089,9.343q5.395,3.115,9.089,1.152,3.7-2.017,3.7-7.99a24.127,24.127,0,0,0-3.7-12.258A25.45,25.45,0,0,0,254.513,57.907Zm-9.586,26.468c-2.666-1.539-4.93-1.822-6.794-.813-1.861.973-2.8,2.974-2.8,5.932v30.22a8.9,8.9,0,0,0,1.4,4.561,9.36,9.36,0,0,0,3.4,3.515l3.2,1.846v30.22a9.025,9.025,0,0,0,1.4,4.6,9.637,9.637,0,0,0,3.4,3.515l12.784,7.381a3.434,3.434,0,0,0,3.4.406c.934-.485,1.4-1.506,1.4-2.985v-30.22l3.2,1.846c1.33.768,2.465.93,3.4.406a3.007,3.007,0,0,0,1.4-2.947v-30.22a17.894,17.894,0,0,0-2.8-9.16,18.981,18.981,0,0,0-6.791-7.03l-2.2-1.27a17.874,17.874,0,0,1-7.391-2.485,32.641,32.641,0,0,1-7.391-6.05Z" id="el_lfcM6MnwquH"/><path d="M88.3,197.681c15.566,8.987,15.594,23.542.062,32.51s-40.743,8.952-56.309-.036-15.594-23.542-.062-32.51S72.729,188.694,88.3,197.681Z" id="el_G6tagDBgDFS"/><path d="M64.583,96.525a9.786,9.786,0,0,1,4.86,1.341l.077.045c1.848,1.065,3.7,2.116,5.544,3.2a8.364,8.364,0,0,1,2.727,2.429c4.553,6.065,1.781,15.23-1.364,20.93l.3.186c1.878,1.08,3.74,2.161,5.618,3.234a8.977,8.977,0,0,1,2.407,2.22,10.733,10.733,0,0,1,1.691,6.028q.067,15.245,0,30.483A12.925,12.925,0,0,1,80.161,177.2l-1.706.983c0,9.537.045,19.067-.007,28.6a12.831,12.831,0,0,1-6.2,10.528q-6.461,3.778-12.956,7.481a6.581,6.581,0,0,1-6.281.365c-4.193-2.377-8.6-4.292-8.628-8.859V193.851c-3.145-1.818-7.9-2.518-7.989-8.4q-.08-15.245,0-30.482a22.631,22.631,0,0,1,11.072-18.613l2.2-1.274a4.31,4.31,0,0,1,.529-.239c-2.338-1.349-4.69-2.608-6.026-5.208-4.009-7.809.048-18.047,6.034-25.051,3.618-4.232,8.5-7.824,13.9-8.055C64.265,96.525,64.424,96.525,64.583,96.525Zm-.12,5.961c-5.183.089-9.621,4.97-12.538,9.977-2.3,3.934-4.021,8.539-2.9,13.181a4.081,4.081,0,0,0,1.786,2.675l.111.06c2.791,1.617,5.54,3.8,7.706,3.688,0,0,3.2.559,3.135,3.055-.08,3.234-5.32,4.821-9.4,5.409a16.055,16.055,0,0,0-3.666,2.206,16.7,16.7,0,0,0-6.339,12.287c-.051,10.149-.256,20.3,0,30.445.005.142.034.343.034.343l5.463,3.159s2.044.737,2.407,2.228a2.931,2.931,0,0,1,.085.708c0,8.166-.2,16.333,0,24.492,0,.149.033.35.033.35l5.392,3.115a2.641,2.641,0,0,0,.59-.261c4.325-2.474,8.685-4.88,12.937-7.473a6.677,6.677,0,0,0,3.188-5.41V176.461a4.042,4.042,0,0,1,.935-2.161,2.8,2.8,0,0,1,.559-.417c3.033-1.751,6.445-3.942,6.5-7.325q.067-15.178,0-30.363c-.022-1.252-.156-2.623-1.282-3.234-1.825-1.058-3.651-2.109-5.477-3.167a1.864,1.864,0,0,0-.566-.261,3.451,3.451,0,0,0-1.521,0c-2.58-.09-3.738-2.9-1.844-5.655,2.893-4.277,5.153-9.515,4.08-14.709-.663-3.219-4.621-4.627-7.64-6.274A3.465,3.465,0,0,0,64.463,102.486Z" id="el_Lutyh3aYsTn"/><path d="M58.556,101.411q5.395-3.115,9.089-1.152,3.7,2.017,3.7,7.991a24.126,24.126,0,0,1-3.7,12.257,25.447,25.447,0,0,1-9.089,9.343q-5.395,3.115-9.089,1.152-3.7-2.017-3.7-7.99a24.127,24.127,0,0,1,3.7-12.258A25.45,25.45,0,0,1,58.556,101.411Zm9.586,26.468c2.666-1.539,4.93-1.822,6.794-.813,1.861.973,2.8,2.974,2.8,5.932v30.22a8.9,8.9,0,0,1-1.4,4.561,9.36,9.36,0,0,1-3.4,3.515l-3.2,1.846v30.22a9.025,9.025,0,0,1-1.4,4.6,9.637,9.637,0,0,1-3.4,3.515l-12.784,7.381a3.434,3.434,0,0,1-3.4.406c-.934-.485-1.4-1.506-1.4-2.985v-30.22l-3.2,1.846c-1.33.768-2.465.93-3.4.406a3.007,3.007,0,0,1-1.4-2.947V155.14a17.894,17.894,0,0,1,2.8-9.16,18.981,18.981,0,0,1,6.791-7.03l2.2-1.27a17.874,17.874,0,0,0,7.391-2.485,32.641,32.641,0,0,0,7.391-6.05Z" id="el_FEB2Lb0F83j"/><path d="M55.2,134.293l-5.732-3.308,18.177-30.71,5.916,3.409Z" id="el_KxajjKTwqqa"/><path d="M54.5,222.568l-5.732-3.308.3-27.621-2.557,0-5.73-3.308,1.456-24.235,32.981-36.873,5.453,3.148L57.315,186.64Z" id="el_4WsTpYPIwJ4"/><path d="M64.283,104.717q5.395-3.115,9.089-1.152,3.7,2.017,3.7,7.991a24.126,24.126,0,0,1-3.7,12.257,25.447,25.447,0,0,1-9.089,9.343q-5.395,3.115-9.089,1.152-3.7-2.017-3.7-7.99a24.127,24.127,0,0,1,3.7-12.258A25.45,25.45,0,0,1,64.283,104.717Zm9.586,26.468c2.666-1.539,4.93-1.822,6.794-.813,1.861.973,2.8,2.974,2.8,5.932v30.22a8.9,8.9,0,0,1-1.4,4.561,9.36,9.36,0,0,1-3.4,3.515l-3.2,1.846v30.22a9.025,9.025,0,0,1-1.4,4.6,9.637,9.637,0,0,1-3.4,3.515l-12.784,7.381a3.434,3.434,0,0,1-3.4.406c-.934-.485-1.4-1.506-1.4-2.985v-30.22l-3.2,1.846c-1.33.768-2.465.93-3.4.406a3.007,3.007,0,0,1-1.4-2.947v-30.22a17.894,17.894,0,0,1,2.8-9.16,18.981,18.981,0,0,1,6.791-7.03l2.2-1.27a17.874,17.874,0,0,0,7.391-2.485,32.641,32.641,0,0,0,7.391-6.05Z" id="el_rrxmg58fktH"/><path d="M169.373,150.871c15.566,8.987,15.594,23.542.062,32.51s-40.743,8.952-56.309-.036-15.594-23.542-.062-32.51S153.807,141.884,169.373,150.871Z" id="el_9iQUwurkyyH"/><path d="M156.291,54.387c5.156,3.152,5.514,11,3.971,16.631a28.627,28.627,0,0,1-1.021,3.01,33.065,33.065,0,0,1-1.736,3.629s.149.089.246.149c2.8,1.706,6.155,2.861,7.988,5.365a10.632,10.632,0,0,1,1.781,6.154q.067,15.245,0,30.483a12.946,12.946,0,0,1-6.281,10.581l-1.706.983c0,9.537.045,19.067-.007,28.6a12.914,12.914,0,0,1-6.2,10.528q-6.461,3.778-12.955,7.481a6.542,6.542,0,0,1-6.437.276c-3.147-1.922-7.28-3.145-8.224-6.713a8.242,8.242,0,0,1-.249-2.057V147.042c-3.124-1.81-7.9-2.4-7.989-8.4q-.08-15.245,0-30.482a22.55,22.55,0,0,1,11.072-18.613l2.2-1.274a4.31,4.31,0,0,1,.529-.239c-2.162-1.244-4.372-2.414-5.705-4.634-3.566-5.939-1.575-13.941,2.036-20.327,4.5-7.965,12.74-15.729,21.128-12.846,2.533.864,4.922,2.63,7.4,4.068C156.187,54.328,156.239,54.357,156.291,54.387Zm-10.75,1.289c-5.137.082-9.611,4.955-12.538,9.977-2.2,3.778-3.78,8.122-3.018,12.622A4.363,4.363,0,0,0,132,81.569c2.559,1.483,5.027,3.83,7.706,3.688a4.075,4.075,0,0,1,2.094.715,3.11,3.11,0,0,1-.808,5.052,21.587,21.587,0,0,1-7.683,2.72s-1.4.723-2.174,1.207a16.564,16.564,0,0,0-7.7,13.263c-.051,10.149-.256,20.3,0,30.445.005.142.034.343.034.343l5.463,3.159s2.365.82,2.492,2.936c0,8.166-.2,16.333,0,24.492,0,.149.033.35.033.35l5.392,3.115a2.7,2.7,0,0,0,.516-.223q6.59-3.6,13.012-7.511a6.689,6.689,0,0,0,3.188-5.41V129.651a4.042,4.042,0,0,1,.935-2.161,2.8,2.8,0,0,1,.559-.417c3.092-1.788,6.445-3.957,6.5-7.325q.067-15.178,0-30.363c-.022-1.252-.164-2.623-1.274-3.234L154.8,82.984a3.979,3.979,0,0,0-2.085-.261c-2.609-.09-3.706-2.943-1.846-5.655,2.781-4.106,4.907-8.949,4.177-14.127-.022-.194-.06-.387-.1-.581-.648-3.129-4.635-4.634-7.64-6.274a3.622,3.622,0,0,0-1.647-.41Z" id="el_FVqQAQottlq"/><path d="M139.633,54.6q5.395-3.115,9.089-1.152,3.7,2.017,3.7,7.991a24.126,24.126,0,0,1-3.7,12.257,25.447,25.447,0,0,1-9.089,9.343q-5.395,3.115-9.089,1.152-3.7-2.017-3.7-7.99a24.127,24.127,0,0,1,3.7-12.258A25.45,25.45,0,0,1,139.633,54.6Zm9.586,26.468c2.666-1.539,4.93-1.822,6.794-.813,1.861.973,2.8,2.974,2.8,5.932v30.22a8.9,8.9,0,0,1-1.4,4.561,9.36,9.36,0,0,1-3.4,3.515l-3.2,1.846v30.22a9.025,9.025,0,0,1-1.4,4.6,9.637,9.637,0,0,1-3.4,3.515l-12.784,7.381a3.434,3.434,0,0,1-3.4.406c-.934-.485-1.4-1.506-1.4-2.985v-30.22l-3.2,1.846c-1.33.768-2.465.93-3.4.406a3.007,3.007,0,0,1-1.4-2.947V108.33a17.894,17.894,0,0,1,2.8-9.16,18.981,18.981,0,0,1,6.791-7.03l2.2-1.27a17.874,17.874,0,0,0,7.391-2.485,32.641,32.641,0,0,0,7.391-6.05Z" id="el_lmzt04EAfcV"/><path d="M136.275,87.483l-5.732-3.308,18.177-30.71,5.916,3.409Z" id="el_aDUlo5OQ1bH"/><path d="M135.574,175.758l-5.732-3.308.3-27.621-2.557,0-5.73-3.308,1.456-24.235L156.29,80.408l5.453,3.148L138.392,139.83Z" id="el__UcDh69ACAh"/><path d="M145.361,57.907q5.395-3.115,9.089-1.152,3.7,2.017,3.7,7.991A24.126,24.126,0,0,1,154.45,77a25.447,25.447,0,0,1-9.089,9.343q-5.395,3.115-9.089,1.152-3.7-2.017-3.7-7.99a24.127,24.127,0,0,1,3.7-12.258A25.45,25.45,0,0,1,145.361,57.907Zm9.586,26.468c2.666-1.539,4.93-1.822,6.794-.813,1.861.973,2.8,2.974,2.8,5.932v30.22a8.9,8.9,0,0,1-1.4,4.561,9.36,9.36,0,0,1-3.4,3.515l-3.2,1.846v30.22a9.025,9.025,0,0,1-1.4,4.6,9.637,9.637,0,0,1-3.4,3.515l-12.784,7.381a3.434,3.434,0,0,1-3.4.406c-.934-.485-1.4-1.506-1.4-2.985v-30.22l-3.2,1.846c-1.33.768-2.465.93-3.4.406a3.007,3.007,0,0,1-1.4-2.947v-30.22a17.894,17.894,0,0,1,2.8-9.16,18.981,18.981,0,0,1,6.791-7.03l2.2-1.27a17.874,17.874,0,0,0,7.391-2.485,32.641,32.641,0,0,0,7.391-6.05Z" id="el_fPN_jW1TMD_"/></g><g id="el_yvrAEKJufCL"><g id="el_PZUk5HBMFJC" data-name="Right coins"><path d="M317.08,147.543a29.833,29.833,0,0,0-7.23.827,16.213,16.213,0,0,0-5.272,2.183,3.755,3.755,0,0,0-1.957,3.018v16.862c0,1.311.891,2.474,2.673,3.5a19.209,19.209,0,0,0,6.966,2.153v3.986a3.766,3.766,0,0,0,1.958,3.018,16.206,16.206,0,0,0,5.272,2.183,32.017,32.017,0,0,0,14.46,0,16.214,16.214,0,0,0,5.272-2.183,3.765,3.765,0,0,0,1.957-3.018V163.2q0-1.956-2.673-3.5a19.364,19.364,0,0,0-6.966-2.146v-3.986a3.756,3.756,0,0,0-1.958-3.018,16.207,16.207,0,0,0-5.272-2.183A29.824,29.824,0,0,0,317.08,147.543Z" id="el_MUEfiN8Qt3R"/><path d="M317.076,147.572a30.418,30.418,0,0,0-7.23.823,16.277,16.277,0,0,0-5.272,2.185,3.783,3.783,0,0,0-1.958,3.02v16.863q0,1.967,2.673,3.509a19.529,19.529,0,0,0,6.966,2.146V180.1a3.784,3.784,0,0,0,1.958,3.021,16,16,0,0,0,5.272,2.172,31.705,31.705,0,0,0,14.46,0,16,16,0,0,0,5.272-2.172,3.784,3.784,0,0,0,1.957-3.021V163.24q0-1.967-2.673-3.509a19.293,19.293,0,0,0-6.966-2.146V153.6a3.783,3.783,0,0,0-1.957-3.02,16.278,16.278,0,0,0-5.272-2.185A30.418,30.418,0,0,0,317.076,147.572Zm-1.2,32.235v-2.943a19.113,19.113,0,0,0,4.857,1.5,33.436,33.436,0,0,0,11.974,0,19.114,19.114,0,0,0,4.857-1.5v2.943a7.5,7.5,0,0,1-3.313,1.735,29.525,29.525,0,0,1-15.061,0A7.5,7.5,0,0,1,315.871,179.807Zm0-7.236v-3.38a16.856,16.856,0,0,0,4.857,1.838,28.208,28.208,0,0,0,11.974,0,16.857,16.857,0,0,0,4.857-1.838v3.38a7.5,7.5,0,0,1-3.313,1.735,29.525,29.525,0,0,1-15.061,0A7.5,7.5,0,0,1,315.871,172.571Zm10.844-4.512a24.735,24.735,0,0,1-7.682-1.054c-2.108-.707-3.162-1.555-3.162-2.557s1.054-1.864,3.162-2.571a28.515,28.515,0,0,1,15.364,0c2.108.707,3.162,1.555,3.162,2.571s-1.054,1.851-3.162,2.557A24.736,24.736,0,0,1,326.715,168.059Zm-20.484,2.108v-2.943a21.309,21.309,0,0,0,6.024,1.658v3.612a23.165,23.165,0,0,1-4.067-1.118A4.8,4.8,0,0,1,306.232,170.167Zm0-7.236v-3.38a18.513,18.513,0,0,0,6.551,2.107,2.97,2.97,0,0,0-.527,1.581v2.031a23.112,23.112,0,0,1-4.067-1.131A4.546,4.546,0,0,1,306.232,162.931Zm10.844-4.512a24.735,24.735,0,0,1-7.682-1.054c-2.108-.707-3.162-1.555-3.162-2.557s1.054-1.864,3.162-2.571a28.515,28.515,0,0,1,15.364,0c2.108.707,3.163,1.542,3.163,2.532s-.979,1.812-2.938,2.519a27.43,27.43,0,0,0-6.777,1.054l-.3.077Z" id="el_OAmrvt9Jl1J"/></g><g id="el_XPopIyQaZP_" data-name="Rejected coins"><path d="M236,100.733a29.833,29.833,0,0,0-7.23.827,16.213,16.213,0,0,0-5.272,2.183,3.755,3.755,0,0,0-1.957,3.018v16.862c0,1.311.891,2.474,2.673,3.5a19.209,19.209,0,0,0,6.966,2.153v3.986a3.766,3.766,0,0,0,1.958,3.018,16.206,16.206,0,0,0,5.272,2.183,32.017,32.017,0,0,0,14.46,0,16.214,16.214,0,0,0,5.272-2.183,3.765,3.765,0,0,0,1.957-3.018V116.4q0-1.956-2.673-3.5a19.364,19.364,0,0,0-6.966-2.146v-3.986a3.756,3.756,0,0,0-1.958-3.018,16.207,16.207,0,0,0-5.272-2.183A29.824,29.824,0,0,0,236,100.733Z" id="el_eRU8o2vyQeH"/><path d="M236,100.762a30.418,30.418,0,0,0-7.23.823,16.277,16.277,0,0,0-5.272,2.185,3.783,3.783,0,0,0-1.958,3.02v16.863q0,1.967,2.673,3.509a19.529,19.529,0,0,0,6.966,2.146v3.985a3.784,3.784,0,0,0,1.958,3.021,16,16,0,0,0,5.272,2.172,31.7,31.7,0,0,0,14.46,0,16,16,0,0,0,5.272-2.172,3.784,3.784,0,0,0,1.957-3.021V116.43q0-1.967-2.673-3.509a19.293,19.293,0,0,0-6.966-2.146V106.79a3.783,3.783,0,0,0-1.957-3.02,16.278,16.278,0,0,0-5.272-2.185A30.418,30.418,0,0,0,236,100.762ZM234.8,133v-2.943a19.113,19.113,0,0,0,4.857,1.5,33.436,33.436,0,0,0,11.974,0,19.114,19.114,0,0,0,4.857-1.5V133a7.5,7.5,0,0,1-3.313,1.735,29.525,29.525,0,0,1-15.061,0A7.5,7.5,0,0,1,234.8,133Zm0-7.236v-3.38a16.856,16.856,0,0,0,4.857,1.838,28.208,28.208,0,0,0,11.974,0,16.857,16.857,0,0,0,4.857-1.838v3.38a7.5,7.5,0,0,1-3.313,1.735,29.525,29.525,0,0,1-15.061,0A7.5,7.5,0,0,1,234.8,125.761Zm10.844-4.512a24.735,24.735,0,0,1-7.682-1.054c-2.108-.707-3.162-1.555-3.162-2.557s1.054-1.864,3.162-2.571a28.515,28.515,0,0,1,15.364,0c2.108.707,3.162,1.555,3.162,2.571s-1.054,1.851-3.162,2.557A24.736,24.736,0,0,1,245.64,121.25Zm-20.484,2.108v-2.943a21.309,21.309,0,0,0,6.024,1.658v3.612a23.165,23.165,0,0,1-4.067-1.118A4.8,4.8,0,0,1,225.156,123.358Zm0-7.236v-3.38a18.513,18.513,0,0,0,6.551,2.107,2.97,2.97,0,0,0-.527,1.581v2.031a23.112,23.112,0,0,1-4.067-1.131A4.546,4.546,0,0,1,225.156,116.122ZM236,111.61a24.735,24.735,0,0,1-7.682-1.054c-2.108-.707-3.162-1.555-3.162-2.557s1.054-1.864,3.162-2.571a28.515,28.515,0,0,1,15.364,0c2.108.707,3.163,1.542,3.163,2.532s-.979,1.812-2.938,2.519a27.43,27.43,0,0,0-6.777,1.054l-.3.077Z" id="el_vmdgOMZ2E_4"/></g><g id="el_LUpax8MVFb5" data-name="Left coins"><path d="M82.792,147.543a29.833,29.833,0,0,1,7.23.827,16.213,16.213,0,0,1,5.272,2.183,3.755,3.755,0,0,1,1.957,3.018v16.862c0,1.311-.891,2.474-2.673,3.5a19.209,19.209,0,0,1-6.966,2.153v3.986a3.766,3.766,0,0,1-1.958,3.018,16.206,16.206,0,0,1-5.272,2.183,32.017,32.017,0,0,1-14.46,0,16.214,16.214,0,0,1-5.272-2.183,3.765,3.765,0,0,1-1.957-3.018V163.2q0-1.956,2.673-3.5a19.364,19.364,0,0,1,6.966-2.146v-3.986a3.756,3.756,0,0,1,1.958-3.018,16.207,16.207,0,0,1,5.272-2.183A29.824,29.824,0,0,1,82.792,147.543Z" id="el_U2bVdSs9J3f"/><path d="M82.8,147.572a30.418,30.418,0,0,1,7.23.823A16.277,16.277,0,0,1,95.3,150.58a3.783,3.783,0,0,1,1.958,3.02v16.863q0,1.967-2.673,3.509a19.529,19.529,0,0,1-6.966,2.146V180.1a3.784,3.784,0,0,1-1.958,3.021,16,16,0,0,1-5.272,2.172,31.705,31.705,0,0,1-14.46,0,16,16,0,0,1-5.272-2.172A3.784,3.784,0,0,1,58.7,180.1V163.24q0-1.967,2.673-3.509a19.293,19.293,0,0,1,6.966-2.146V153.6a3.783,3.783,0,0,1,1.957-3.02,16.278,16.278,0,0,1,5.272-2.185A30.418,30.418,0,0,1,82.8,147.572ZM84,179.807v-2.943a19.113,19.113,0,0,1-4.857,1.5,33.436,33.436,0,0,1-11.974,0,19.114,19.114,0,0,1-4.857-1.5v2.943a7.5,7.5,0,0,0,3.313,1.735,29.525,29.525,0,0,0,15.061,0A7.5,7.5,0,0,0,84,179.807Zm0-7.236v-3.38a16.856,16.856,0,0,1-4.857,1.838,28.208,28.208,0,0,1-11.974,0,16.857,16.857,0,0,1-4.857-1.838v3.38a7.5,7.5,0,0,0,3.313,1.735,26.491,26.491,0,0,0,7.531.977,26.5,26.5,0,0,0,7.531-.977A7.5,7.5,0,0,0,84,172.571Zm-10.844-4.512a24.735,24.735,0,0,0,7.682-1.054C82.946,166.3,84,165.451,84,164.448s-1.054-1.864-3.162-2.571a24.733,24.733,0,0,0-7.682-1.054,24.734,24.734,0,0,0-7.682,1.054c-2.108.707-3.162,1.555-3.162,2.571s1.054,1.851,3.162,2.557A24.736,24.736,0,0,0,73.156,168.059Zm20.484,2.108v-2.943a21.309,21.309,0,0,1-6.024,1.658v3.612a23.165,23.165,0,0,0,4.067-1.118A4.8,4.8,0,0,0,93.64,170.167Zm0-7.236v-3.38a18.513,18.513,0,0,1-6.551,2.107,2.97,2.97,0,0,1,.527,1.581v2.031a23.112,23.112,0,0,0,4.067-1.131A4.546,4.546,0,0,0,93.64,162.931ZM82.8,158.42a24.735,24.735,0,0,0,7.682-1.054c2.108-.707,3.162-1.555,3.162-2.557s-1.054-1.864-3.162-2.571a24.733,24.733,0,0,0-7.682-1.054,24.734,24.734,0,0,0-7.682,1.054c-2.108.707-3.163,1.542-3.163,2.532s.979,1.812,2.938,2.519a27.43,27.43,0,0,1,6.777,1.054l.3.077Z" id="el_YwBsuJtU9Oe"/></g><g id="el_r-DgJYevVbm" data-name="Second left coins"><path d="M163.869,100.733a29.833,29.833,0,0,1,7.23.827,16.213,16.213,0,0,1,5.272,2.183,3.755,3.755,0,0,1,1.957,3.018v16.862c0,1.311-.891,2.474-2.673,3.5a19.209,19.209,0,0,1-6.966,2.153v3.986a3.766,3.766,0,0,1-1.958,3.018,16.206,16.206,0,0,1-5.272,2.183,32.017,32.017,0,0,1-14.46,0,16.214,16.214,0,0,1-5.272-2.183,3.765,3.765,0,0,1-1.957-3.018V116.4q0-1.956,2.673-3.5a19.364,19.364,0,0,1,6.966-2.146v-3.986a3.756,3.756,0,0,1,1.958-3.018,16.207,16.207,0,0,1,5.272-2.183A29.824,29.824,0,0,1,163.869,100.733Z" id="el_bfM5iEOtKWK"/><path d="M163.874,100.762a30.418,30.418,0,0,1,7.23.823,16.277,16.277,0,0,1,5.272,2.185,3.783,3.783,0,0,1,1.958,3.02v16.863q0,1.967-2.673,3.509a19.529,19.529,0,0,1-6.966,2.146v3.985a3.784,3.784,0,0,1-1.958,3.021,16,16,0,0,1-5.272,2.172,31.7,31.7,0,0,1-14.46,0,16,16,0,0,1-5.272-2.172,3.784,3.784,0,0,1-1.957-3.021V116.43q0-1.967,2.673-3.509a19.293,19.293,0,0,1,6.966-2.146V106.79a3.783,3.783,0,0,1,1.957-3.02,16.278,16.278,0,0,1,5.272-2.185A30.418,30.418,0,0,1,163.874,100.762Zm1.2,32.235v-2.943a19.113,19.113,0,0,1-4.857,1.5,33.436,33.436,0,0,1-11.974,0,19.114,19.114,0,0,1-4.857-1.5V133a7.5,7.5,0,0,0,3.313,1.735,29.525,29.525,0,0,0,15.061,0A7.5,7.5,0,0,0,165.078,133Zm0-7.236v-3.38a16.856,16.856,0,0,1-4.857,1.838,28.208,28.208,0,0,1-11.974,0,16.857,16.857,0,0,1-4.857-1.838v3.38A7.5,7.5,0,0,0,146.7,127.5a29.525,29.525,0,0,0,15.061,0A7.5,7.5,0,0,0,165.078,125.761Zm-10.844-4.512a24.735,24.735,0,0,0,7.682-1.054c2.108-.707,3.162-1.555,3.162-2.557s-1.054-1.864-3.162-2.571a28.515,28.515,0,0,0-15.364,0c-2.108.707-3.162,1.555-3.162,2.571s1.054,1.851,3.162,2.557A24.736,24.736,0,0,0,154.234,121.25Zm20.484,2.108v-2.943a21.309,21.309,0,0,1-6.024,1.658v3.612a23.165,23.165,0,0,0,4.067-1.118A4.8,4.8,0,0,0,174.718,123.358Zm0-7.236v-3.38a18.513,18.513,0,0,1-6.551,2.107,2.97,2.97,0,0,1,.527,1.581v2.031a23.112,23.112,0,0,0,4.067-1.131A4.546,4.546,0,0,0,174.718,116.122Zm-10.844-4.512a24.735,24.735,0,0,0,7.682-1.054c2.108-.707,3.162-1.555,3.162-2.557s-1.054-1.864-3.162-2.571a28.515,28.515,0,0,0-15.364,0c-2.108.707-3.163,1.542-3.163,2.532s.979,1.812,2.938,2.519a27.43,27.43,0,0,1,6.777,1.054l.3.077Z" id="el_Xo2Pound5QO"/></g></g><g id="el_FvQk-R7Q8Un" data-name="Last horizontal"><path d="M200.263,286.929a2.343,2.343,0,0,1,2.029,2.223s-.693,2.567-2.646,2.194a2.331,2.331,0,0,1-1.825-2.194S198.3,286.843,200.263,286.929Zm0-8.95a2.37,2.37,0,0,1,2.029,2.237s-1.034,2.854-3.042,2.08c-1-.387-1.428-2.08-1.428-2.08A2.328,2.328,0,0,1,200.263,277.98Zm0-8.935a2.343,2.343,0,0,1,2.029,2.223s-1.621,3.586-3.741,1.649a3.354,3.354,0,0,1-.729-1.649A2.317,2.317,0,0,1,200.263,269.044Zm0-8.935a2.343,2.343,0,0,1,2.029,2.223s-1.621,3.586-3.741,1.649a3.406,3.406,0,0,1-.729-1.649A2.308,2.308,0,0,1,200.263,260.109Zm0-8.95a2.355,2.355,0,0,1,2.029,2.223s-1.527,3.672-3.741,1.664a1.99,1.99,0,0,1-.729-1.664S198.3,251.073,200.263,251.159Zm0-8.935a2.342,2.342,0,0,1,2.029,2.223s-1.034,2.868-3.042,2.08c-1-.387-1.428-2.08-1.428-2.08A2.333,2.333,0,0,1,200.263,242.224Z" id="el_bkapI1B94Yu"/></g><g id="el_NYTHSyNVMfg" data-name="Top vert lines"><path d="M147.73,242.313a2.341,2.341,0,0,1,2.029,2.224s-1.621,3.58-3.741,1.65a3.414,3.414,0,0,1-.729-1.65A2.318,2.318,0,0,1,147.73,242.313Zm0-8.95a2.353,2.353,0,0,1,2.029,2.224s-1.56,3.65-3.741,1.664a3.443,3.443,0,0,1-.729-1.664A2.321,2.321,0,0,1,147.73,233.362Zm0-8.936a2.341,2.341,0,0,1,2.029,2.224s-.693,2.559-2.646,2.2a2.327,2.327,0,0,1-1.825-2.2S145.766,224.328,147.73,224.426Zm0-8.936a2.341,2.341,0,0,1,2.029,2.224s-.693,2.559-2.646,2.2a2.353,2.353,0,0,1-1.825-2.2S145.766,215.391,147.73,215.489Zm0-8.95a2.341,2.341,0,0,1,2.029,2.224s-.908,2.713-2.847,2.154a2.08,2.08,0,0,1-1.624-2.154S145.766,206.455,147.73,206.539Zm0-8.936a2.341,2.341,0,0,1,2.029,2.224s-1.56,3.636-3.741,1.65a3.413,3.413,0,0,1-.729-1.65A2.312,2.312,0,0,1,147.73,197.6Z" id="el_ul1ZA3lmNhW"/><path d="M252.875,242.313a2.341,2.341,0,0,1,2.029,2.224s-1.034,2.853-3.042,2.084c-1-.392-1.428-2.084-1.428-2.084A2.3,2.3,0,0,1,252.875,242.313Zm0-8.95a2.353,2.353,0,0,1,2.029,2.224s-.693,2.573-2.646,2.2a2.327,2.327,0,0,1-1.825-2.2S250.91,233.278,252.875,233.362Zm0-8.936a2.341,2.341,0,0,1,2.029,2.224s-1.56,3.636-3.741,1.65a1.96,1.96,0,0,1-.729-1.65S250.91,224.328,252.875,224.426Zm0-8.936a2.341,2.341,0,0,1,2.029,2.224s-1.56,3.636-3.741,1.65a1.96,1.96,0,0,1-.729-1.65S250.91,215.391,252.875,215.489Zm0-8.95a2.341,2.341,0,0,1,2.029,2.224s-1.56,3.65-3.741,1.664a1.99,1.99,0,0,1-.729-1.664S250.91,206.455,252.875,206.539Zm0-8.936a2.341,2.341,0,0,1,2.029,2.224s-1.527,3.664-3.741,1.65a1.96,1.96,0,0,1-.729-1.65S250.91,197.5,252.875,197.6Z" id="el_Hqz9SAD0sWe"/></g><g id="el_Ndw4MnHH9vE_GxfGT25Wm" data-animator-group="true" data-animator-type="0"><g id="el_Ndw4MnHH9vE"><g id="el_1Hv3ZIZW5A9" data-name="Right yes"><path d="M345.936,83.2h6.807a5.591,5.591,0,0,0,5.588-5.588V51.536a5.591,5.591,0,0,0-5.588-5.588H326.664a5.591,5.591,0,0,0-5.588,5.588V77.615a5.591,5.591,0,0,0,5.588,5.588h6.807l6.233,9.791Z" id="el_OI8pfm3801a"/><path d="M352.815,45.948h.144l.072.007h.071l.072.007.071.007.07.007.071.007.07.007.069.007.07.007.069.015.069.007.069.015.069.015.068.015.068.015.067.015.067.015.067.022.066.015.066.022.066.015.066.022.065.022.065.022.065.022.064.022.063.03.063.022.063.03.063.022.062.03.062.03.061.03.061.03.06.03.06.03.06.03.059.037.059.03.058.037.058.03.057.037.057.037.057.037.056.037.056.037.054.037.055.037.054.045.054.037.053.045.053.037.052.045.051.045.051.045.051.045.05.045.049.045.048.045.048.045.048.052.048.045.046.045.046.052.045.052.045.045.044.052.044.052.042.052.042.052.042.052.041.052.04.052.04.052.039.06.038.052.038.052.038.06.037.06.036.052.036.06.034.06.034.052.033.06.033.06.032.06.031.06.031.067.03.06.029.06.028.06.028.06.027.067.026.06.025.067.025.06.024.067.023.067.022.06.022.067.021.067.019.067.019.067.019.06.018.067.016.067.016.067.015.075.015.067.013.067.013.067.012.067.011.067.01.074.01.067.008.075.007.067.007.067.006.074.005.075,0,.067,0,.074,0,.067v26.37l0,.074,0,.067,0,.074-.005.067-.006.074-.007.067-.007.074-.008.067-.01.067-.01.075-.011.067-.012.067-.013.074-.013.067-.015.067-.015.067-.016.067-.016.067-.018.067-.019.067-.019.067-.019.067-.021.06-.022.067-.022.067-.023.06-.024.067-.025.067-.025.06-.026.067-.027.06-.028.06-.028.067-.029.06-.03.06-.031.06-.031.06-.032.06-.033.06-.033.06-.034.06-.034.052-.036.06-.036.06-.037.052-.038.06-.038.052-.038.06-.039.052-.04.052-.04.052-.041.06-.042.052-.042.052-.043.052-.044.045-.044.052-.045.052-.045.045-.046.052-.046.045-.048.052-.048.045-.048.052-.049.045-.049.045-.05.045-.051.045-.051.045-.051.037-.052.045-.053.045-.053.037-.054.045-.054.037-.055.037-.054.037-.056.045-.056.03-.057.037-.057.037-.057.037-.058.037-.058.03-.059.037-.059.03-.06.03-.06.037-.06.03-.061.03-.061.03-.062.022-.062.03-.063.03-.063.022-.063.03-.063.022-.064.022-.065.022-.065.022-.065.022-.066.022-.066.022-.066.015-.066.022-.067.015-.067.015-.067.015-.068.015-.068.015-.069.015-.069.015-.069.015-.069.007-.07.007-.069.015-.07.007-.071.007-.07.007-.071.007H353.1l-.071.007h-.144l-.072.007h-6.879L339.7,92.994,333.47,83.2h-6.879l-.072-.007h-.144l-.071-.007h-.072l-.071-.007-.07-.007-.071-.007-.07-.007-.069-.015-.07-.007-.069-.007-.069-.015-.069-.015-.069-.015-.068-.015-.068-.015-.067-.015-.067-.015-.067-.015-.066-.022-.066-.015L325,82.95l-.066-.022-.065-.022-.065-.022-.065-.022-.064-.022-.063-.022-.063-.03-.063-.022-.063-.03-.062-.03-.062-.022-.061-.03-.061-.03-.06-.03-.06-.037-.06-.03-.059-.03-.059-.037-.058-.03-.058-.037-.057-.037-.057-.037-.057-.037-.056-.03-.056-.045-.054-.037-.055-.037-.054-.037-.054-.045-.053-.037-.053-.045-.052-.045-.051-.037-.051-.045-.051-.045-.05-.045-.049-.045-.048-.045-.048-.052-.048-.045-.048-.052-.046-.045-.046-.052-.045-.045-.045-.052-.044-.052-.044-.045-.042-.052-.042-.052-.042-.052-.041-.06-.04-.052-.04-.052-.039-.052-.038-.06-.038-.052-.038-.06-.037-.052-.036-.06-.036-.06-.034-.052-.034-.06-.033-.06-.033-.06-.032-.06-.031-.06-.031-.06-.03-.06-.029-.06-.028-.067-.028-.06-.027-.06-.026-.067-.025-.06-.025-.067-.024-.067-.023-.06-.022-.067-.022-.067-.021-.06-.019-.067-.019-.067-.019-.067-.018-.067-.016-.067-.016-.067-.015-.067-.015-.067-.013-.067-.013-.074-.012-.067-.011-.067-.01-.075-.01-.067-.008-.067-.007-.074-.007-.067-.006-.074-.005-.067,0-.074,0-.067,0-.074V51.387l0-.067,0-.074,0-.067.005-.075.006-.074.007-.067.007-.067.008-.075.01-.067.01-.074.011-.067.012-.067.013-.067.014-.067.014-.067.015-.075.016-.067.016-.067.018-.067.019-.06.019-.067.019-.067.021-.067.022-.067.022-.06.023-.067.024-.067.025-.06.025-.067.026-.06.027-.067.028-.06.028-.06.029-.06.03-.06.031-.067.031-.06.032-.06.033-.06.033-.06.034-.052.034-.06.036-.06.036-.052.037-.06.037-.06.038-.052.038-.052.039-.06.04-.052.04-.052.042-.052.042-.052.042-.052.042-.052.044-.052.044-.052.045-.045.045-.052.046-.052.046-.045.048-.045.048-.052.048-.045.048-.045.049-.045.05-.045.051-.045.051-.045.051-.045.052-.045.053-.037.053-.045.054-.037.054-.045.055-.037.054-.037.056-.037.056-.037.057-.037.057-.037.057-.037.058-.03.058-.037.059-.03.059-.037.06-.03.06-.03.06-.03.061-.03.061-.03.062-.03.062-.03.063-.022.063-.03.063-.022.063-.03.064-.022.065-.022.065-.022.065-.022.066-.022.066-.015.066-.022.066-.015.067-.022.067-.015.067-.015.068-.015.068-.015.069-.015.069-.015.069-.007.069-.015.07-.007.069-.007.07-.007.071-.007.07-.007.071-.007.072-.007h.071l.072-.007h26.367Zm-26.14,3.726h-.156l-.024.007h-.05l-.022.007H326.4l-.022.007h-.021l-.021.007h-.024l-.024.007h-.023l-.023.007-.019.007H326.2l-.025.007-.021.007-.021.007-.021.007-.02.007-.023.007-.023.007-.019.007-.022.007-.022.007-.018.007-.021.007-.021.007-.02.015-.02.007-.023.007-.019.007-.019.015-.021.007-.019.015-.018.007-.021.007-.021.015-.019.015-.019.007-.016.015-.019.007-.022.015-.018.015-.016.007-.02.015-.019.015-.017.015-.019.015-.016.015-.019.015-.018.015-.016.007-.017.015-.016.022-.019.015-.017.015-.013.015-.018.015-.017.015-.015.015-.014.015-.016.022-.016.015-.013.015-.015.022-.016.015-.014.015-.014.022-.013.015-.013.015-.013.022-.014.015-.014.022-.012.015-.012.022-.013.022-.01.015-.012.022-.013.015-.01.022-.011.015-.011.022-.01.022-.011.015-.01.022-.01.022-.01.022-.01.022-.008.015-.008.022-.009.015-.008.022-.008.022-.008.022-.007.022-.007.022-.007.015-.007.03-.006.015-.007.022-.006.022-.006.022-.005.022-.005.022-.005.022,0,.022,0,.022,0,.022,0,.022,0,.022,0,.022,0,.022,0,.03,0,.022,0,.022,0,.022,0,.022V77.734l0,.022,0,.03,0,.022,0,.022,0,.022,0,.022,0,.022,0,.022,0,.022,0,.022,0,.022,0,.022.005.022.005.022.006.022.005.022.006.022.007.022.007.022.006.022.008.022.007.022.007.015.008.022.007.022.009.022.009.022.008.015.01.022.009.022.009.015.01.022.011.022.01.022.01.015.012.022.01.015.012.022.012.022.01.015.013.022.013.015.012.022.013.015.015.022.011.015.013.022.016.015.013.022.014.015.015.015.015.022.015.015.013.015.016.022.016.015.016.015.016.015.015.015.016.015.017.022.016.015.015.015.016.015.019.015.019.015.015.015.016.015.019.007.019.015.019.015.017.015.017.015.019.007.018.015.021.015.019.015.016.007.019.015.023.015.017.007.018.007.021.015.021.007.019.015.019.007.022.007.016.007.02.015.024.007.021.007.021.007.022.015.019.007.022.007.022.007.019.007.02.007h.02l.025.007.024.007.022.007.018.007.022.007h.026l.019.007.023.007h.024l.02.007h.025l.021.007h.025l.022.007h.049l.019.007h.1l.025.007h8.9l4.188,6.579,4.188-6.579h8.9l.025-.007h.1l.02-.007h.048l.022-.007h.025l.021-.007h.025l.02-.007h.024l.024-.007.019-.007h.025l.022-.007.018-.007.021-.007.025-.007.023-.007.021-.007h.02l.019-.007.022-.007.022-.007.019-.007.021-.015.021-.007.021-.007.024-.007.02-.015.016-.007.022-.007.019-.007.018-.015.022-.007.022-.015.017-.007.017-.007.023-.015.019-.015.016-.007.019-.015.022-.015.017-.015.018-.007.018-.015.018-.015.019-.015.019-.015.019-.007.016-.015.016-.015.017-.015.02-.015.016-.015.014-.015.017-.015.019-.022.015-.015.014-.015.018-.015.014-.015.016-.015.016-.022.013-.015.016-.015.014-.022.015-.015.014-.015.013-.022.015-.015.013-.022.011-.015.015-.022.013-.015.012-.022.013-.015.013-.022.011-.015.011-.022.011-.015.011-.022.012-.022.01-.015.01-.022.01-.022.01-.022.009-.015.01-.022.009-.022.008-.015.009-.022.009-.022.007-.022.008-.022.007-.015.007-.022.007-.022.006-.022.007-.022.007-.022.006-.022.005-.022.006-.022.005-.022.005-.022,0-.022,0-.015,0-.022,0-.03,0-.022,0-.022,0-.022,0-.022,0-.022,0-.022v-.03l0-.022v-.022l0-.022V51.462l0-.03V51.41l0-.022v-.022l0-.022,0-.03,0-.022,0-.022,0-.022,0-.022,0-.022,0-.022,0-.022,0-.022-.005-.022-.005-.022-.005-.022-.006-.022-.007-.022L354.529,51l-.006-.015-.007-.03-.007-.015-.007-.022-.007-.022-.008-.022-.008-.022-.007-.015-.01-.03-.009-.015-.007-.015-.01-.022-.01-.022-.01-.022-.009-.022-.011-.015-.01-.022-.011-.022-.01-.015-.011-.022-.013-.022-.012-.015-.011-.015-.013-.022-.012-.022-.012-.015-.013-.015-.015-.022-.014-.022-.013-.015-.013-.015-.015-.022-.014-.015-.014-.015-.016-.022-.013-.015-.015-.015-.017-.022-.014-.015-.015-.015-.017-.015-.018-.015-.014-.015-.016-.015-.019-.015-.016-.022-.018-.015-.015-.007-.017-.015-.019-.015-.016-.015-.019-.015-.017-.015-.019-.015-.021-.015L353.8,50l-.018-.015-.022-.015-.019-.007-.016-.015-.019-.007-.021-.015-.021-.015-.019-.007-.018-.007-.019-.015-.021-.007-.019-.015-.019-.007-.022-.007-.021-.007-.02-.015-.021-.007-.02-.007-.019-.007-.022-.007-.022-.007-.019-.007-.022-.007-.024-.007-.021-.007-.019-.007-.021-.007-.022-.007-.025-.007h-.022l-.019-.007-.023-.007h-.023L353.1,49.7h-.024l-.021-.007h-.021l-.022-.007h-.026l-.022-.007h-.05l-.024-.007H326.675Z" id="el_48mT8bUmR2E"/><path d="M336.471,71.341a.955.955,0,0,0,1.419,0l11.627-11.583a.976.976,0,0,0,.276-.713.95.95,0,0,0-.276-.706l-1.458-1.419a.864.864,0,0,0-.69-.316.983.983,0,0,0-.729.316l-9.459,9.457-4.414-4.413a.983.983,0,0,0-.729-.316.864.864,0,0,0-.69.316l-1.458,1.419a.95.95,0,0,0-.276.706.976.976,0,0,0,.276.713Z" id="el_JFd-CzgNVpm"/></g><g id="el_FUWq-yB1fqe" data-name="Second left yes"><path d="M147.481,37.258h6.807a5.591,5.591,0,0,0,5.588-5.588V5.591A5.591,5.591,0,0,0,154.287,0H128.208a5.59,5.59,0,0,0-5.588,5.588V31.67a5.59,5.59,0,0,0,5.588,5.588h6.806l6.234,9.791Z" id="el_sM0Yv_-IsLD"/><path d="M154.359,0h.143l.072.007h.072l.071.007.071.007.071.007.07.007.07.007.07.007.069.007.069.015.069.007.069.015.068.015.069.015.068.015.067.015.067.015L155.75.2l.066.015.066.022.066.015.066.022.065.022.065.022.064.022.064.022.064.03.063.022.063.03.063.022.062.03.062.03.061.03.061.03.06.03.06.03.06.03.06.037.059.03.058.037.057.03.057.037.057.037.057.037.056.037.055.037.055.037.054.037.054.045.054.037.053.045.052.037.052.045.051.045.051.045.05.045.05.045.05.045.048.045.048.045.048.052.047.045.047.045.045.052.045.052.045.045.044.052.043.052.043.052.042.052.042.052.041.052.041.052.039.052.039.06.039.052.038.052.037.06.037.06.037.052.035.06.035.06.034.052.034.06.033.06.032.06.031.06.031.067.03.06.029.06.028.06.028.06.027.067.026.06.025.067.025.06.024.067.023.067.022.06.022.067.021.067.02.067.019.067.019.06.017.067.017.067.016.067.016.075.014.067.013.067.013.067.012.067.011.067.01.074.009.067.009.075.007.067.007.067.006.074,0,.075,0,.067,0,.074,0,.067,0,.075v26.22l0,.074,0,.074,0,.067,0,.074,0,.067-.006.074-.007.067-.007.074-.009.067-.009.067-.01.075-.011.067-.012.067-.013.074-.013.067-.014.067-.016.067-.016.067-.017.067-.017.067-.019.067-.019.067-.02.067-.021.06-.022.067-.022.067-.023.06-.024.067-.025.067-.025.06-.026.067-.027.06-.028.06-.028.067-.029.06-.03.06-.031.06-.031.06-.032.06-.033.06-.034.06-.034.06-.035.052-.035.06-.037.06-.037.052-.037.06-.038.052-.039.06-.039.052-.039.052-.041.052-.041.06-.042.052-.042.052-.043.052-.043.045-.044.052-.045.052-.045.045-.045.052-.047.045-.047.052-.048.045-.048.052-.048.045-.05.045-.05.045-.05.045-.051.045-.051.037-.052.045-.052.045-.053.037-.054.045-.054.037-.054.037-.055.037-.055.045-.056.03-.057.037-.057.037-.057.037-.058.037-.058.03-.059.037-.06.03-.06.03-.06.037-.06.03-.061.03-.061.03-.062.022-.062.03-.063.03-.063.022-.063.03-.064.022-.064.022-.064.022-.065.022-.065.022-.066.022-.066.022-.066.015-.066.022-.067.015-.067.015-.067.015-.068.015-.069.015-.068.015-.069.015-.069.015-.069.007-.069.007-.07.015-.07.007-.07.007-.071.007-.071.007h-.071l-.072.007h-.143l-.072.007h-6.879l-6.233,9.791-6.234-9.791h-6.878l-.072-.007h-.143l-.072-.007h-.071l-.071-.007-.071-.007-.07-.007-.07-.007-.07-.015-.069-.007-.069-.007-.069-.015-.069-.015-.069-.015-.068-.015-.068-.015-.068-.015-.067-.015-.066-.015-.067-.022-.066-.015L126.547,37l-.065-.022-.066-.022-.065-.022-.064-.022-.064-.022-.063-.022-.063-.03-.063-.022-.062-.03-.063-.03-.061-.022-.062-.03-.06-.03-.061-.03-.06-.037-.06-.03-.059-.03-.059-.037-.059-.03-.057-.037-.057-.037-.057-.037-.056-.037-.056-.03-.056-.045-.055-.037-.054-.037-.054-.037-.053-.045-.054-.037-.052-.045-.052-.045-.051-.037-.051-.045-.051-.045-.05-.045-.049-.045-.049-.045-.048-.052-.048-.045-.047-.052-.046-.045-.046-.052-.045-.045-.045-.052-.045-.052-.043-.045-.043-.052-.042-.052-.042-.052-.041-.06-.041-.052-.039-.052-.039-.052-.039-.06-.038-.052-.037-.06-.037-.052-.036-.06-.036-.06-.034-.052-.034-.06-.034-.06-.033-.06-.031-.06-.031-.06-.031-.06-.03-.06-.029-.06-.028-.067-.028-.06-.028-.06-.026-.067-.025-.06-.025-.067-.024-.067-.023-.06-.022-.067-.022-.067-.021-.06-.02-.067-.019-.067-.018-.067-.018-.067L122.779,33l-.016-.067-.016-.067-.014-.067-.013-.067-.013-.074-.012-.067-.011-.067-.01-.075-.01-.067-.008-.067-.008-.074-.007-.067-.005-.074-.005-.067,0-.074,0-.067,0-.074,0-.074V5.516l0-.075,0-.067,0-.074,0-.067.005-.075.005-.074.007-.067.008-.067.008-.075.01-.067.01-.074.011-.067.012-.067.013-.067.013-.067.014-.067.016-.075.016-.067.017-.067.018-.067.018-.06L122.851,4l.02-.067.021-.067.022-.067.022-.06.023-.067.024-.067.025-.06.025-.067.026-.06.028-.067.028-.06.028-.06.029-.06.03-.06.031-.067.031-.06.031-.06.033-.06.034-.06.034-.052.034-.06.036-.06.036-.052.037-.06.037-.06.038-.052.039-.052.039-.06.039-.052.041-.052.041-.052.042-.052.042-.052.043-.052.044-.052.044-.052.045-.045.045-.052.046-.052.046-.045.047-.045.048-.052.048-.045L124.4,1.5l.049-.045.05-.045.051-.045.051-.045.051-.045.052-.045.052-.037.054-.045.054-.037.054-.045.054-.037.055-.037.056-.037.056-.037L125.2.882l.057-.037.057-.037.058-.03.058-.037.059-.03.059-.037.06-.03.06-.03.06-.03.06-.03.062-.03.061-.03.063-.03.063-.022.063-.03L126.16.39l.063-.03.064-.022.064-.022.065-.022.066-.022.065-.022.066-.015.066-.022L126.746.2l.066-.022.067-.015.068-.015.068-.015.068-.015L127.151.1l.069-.015.069-.007.069-.015.069-.007.07-.007.07-.007.07-.007.071-.007.071-.007.071-.007h.072L127.992,0h26.367ZM128.223,3.728h-.164l-.019.007h-.05l-.023.007h-.022l-.022.007H127.9l-.025.007h-.024l-.02.007h-.023l-.022.007-.019.007h-.022l-.025.007L127.7,3.8l-.021.007-.021.007-.019.007-.024.007-.023.007-.019.007-.019.007-.025.007-.022.007-.018.007-.02.007-.021.015-.02.007-.022.007-.02.007-.019.015-.018.007-.022.015-.021.007-.018.007-.021.015-.017.007L127.229,4l-.022.015-.019.015-.016.007-.018.015-.021.015-.02.015-.017.007-.017.015-.016.015-.019.015-.018.015-.019.015-.017.015-.015.007-.017.022-.016.015-.019.015-.016.015-.016.015-.017.015-.015.015-.014.015-.016.022-.014.015-.016.015-.016.022-.013.015-.013.015-.016.022-.015.015-.012.015L126.7,4.5l-.014.015-.012.022-.014.022-.013.015-.01.015-.013.022-.013.022-.011.015-.011.022-.011.015-.01.022-.011.022-.01.015-.01.022-.01.022-.01.022-.009.015-.008.022-.01.022-.009.022-.008.015-.008.022-.007.022-.007.022-.007.022-.007.015-.007.03-.006.015-.007.022-.006.022-.006.022-.005.022-.005.022-.005.022,0,.022,0,.022,0,.022,0,.022,0,.022,0,.022,0,.022,0,.03,0,.022,0,.022,0,.022,0,.022,0,.022v26.28l0,.022,0,.022,0,.03,0,.022,0,.022,0,.022,0,.022,0,.022,0,.022,0,.022,0,.022,0,.022,0,.022.005.022.005.022.005.022.006.022.006.022.007.022.006.022.007.022.007.022.007.022.007.015.007.022.008.022.008.022.009.022.009.015.01.022.009.022.009.015.01.022.01.022.01.022.011.015.01.022.011.015.012.022.01.022.012.015.013.022.013.015.013.022.012.015.013.022.013.015.014.022.014.015.013.022.013.015.016.015.014.022.013.015.017.022.013.015.014.015.019.015.015.015.015.015.016.015.016.015.019.022.016.015.015.015.017.015.02.015.016.015.018.015.019.015.014.007.019.015.02.015.017.015.021.015.018.007.016.015.019.007.022.015.017.015.02.007.019.015.019.007.021.015.021.007.019.015.019.007.022.007.019.015.02.007.02.007.018.007.021.007.025.015.022.007.019.007.019.007.023.007.02.007.024.007.024.007h.017l.022.007.022.007.022.007h.027l.022.007.019.007h.02l.024.007h.025l.021.007h.025l.022.007h.049l.024.007h.094l.022.007h8.9l4.188,6.579,4.188-6.579h8.9l.022-.007h.094l.023-.007h.049l.022-.007h.025l.021-.007h.025l.024-.007h.02l.019-.007.023-.007h.026l.022-.007.022-.007.021-.007h.017l.025-.007.023-.007.02-.007.023-.007.019-.007.019-.007.022-.007.025-.015.022-.007.017-.007.02-.007.02-.007.019-.015.022-.007.019-.007.019-.015.022-.007.021-.015.018-.007.02-.015.019-.007.017-.015.022-.015.019-.007.016-.015.017-.007.021-.015.018-.015.019-.015.019-.015.015-.007.019-.015.018-.015.015-.015.02-.015.018-.015.015-.015.016-.015.018-.022.016-.015.016-.015.016-.015.015-.015.018-.015.015-.015.014-.022.016-.015.013-.015.015-.022.014-.015.014-.015.014-.022.013-.015.015-.022.013-.015.012-.015.012-.022.013-.022.013-.015.012-.022.012-.015.011-.022.011-.015.011-.022.011-.022.011-.015.01-.022.01-.022.009-.015.01-.022.01-.022.009-.022.01-.015.009-.022.007-.022.008-.022.007-.022.008-.015.007-.022.007-.022.007-.022.007-.022.007-.022.005-.022.006-.022.006-.022.005-.022.005-.022,0-.022,0-.022,0-.022,0-.022,0-.022,0-.022,0-.022,0-.022,0-.022,0-.022,0-.022,0-.03,0-.022V5.494l0-.03,0-.022,0-.022,0-.022,0-.022,0-.03,0-.022,0-.022,0-.022,0-.022,0-.022,0-.022,0-.022-.005-.022-.005-.022-.006-.022-.006-.022-.006-.022-.006-.022-.007-.022-.007-.022-.007-.015-.007-.022-.008-.022-.007-.022-.008-.022-.007-.015-.009-.022L156,4.846l-.008-.022-.009-.015-.01-.022-.009-.022-.01-.022-.01-.015-.012-.022-.01-.022-.011-.015-.011-.022-.01-.015-.013-.022-.013-.022-.01-.015-.013-.015-.013-.022-.013-.022-.014-.015-.013-.015-.012-.022-.016-.015-.016-.022-.013-.015-.013-.015-.017-.022-.016-.015-.014-.015-.016-.022-.014-.015-.016-.015-.017-.015-.015-.015-.016-.015-.018-.015-.017-.015-.017-.022-.014-.007-.018-.015-.018-.015-.019-.015-.019-.015-.016-.015-.017-.015-.017-.007-.02-.015-.021-.015-.018-.015-.016-.007-.019-.015L155.266,4l-.02-.015-.016-.007-.02-.015-.018-.007-.021-.007-.022-.015-.019-.007-.019-.015-.019-.007L155.07,3.9l-.02-.007-.02-.015-.021-.007-.018-.007-.022-.007-.025-.007-.019-.007-.019-.007-.023-.007-.023-.007-.02-.007-.021-.007L154.8,3.8l-.022-.007-.025-.007h-.022l-.019-.007-.023-.007h-.023l-.02-.007h-.024L154.6,3.75h-.025l-.021-.007h-.022l-.022-.007h-.05l-.02-.007H128.223Z" id="el_rx3l-HdT8FL"/><path d="M138.016,25.4a.954.954,0,0,0,1.419,0l11.627-11.583a.976.976,0,0,0,.276-.713.95.95,0,0,0-.276-.706L149.6,10.975a.863.863,0,0,0-.689-.316.982.982,0,0,0-.729.316l-9.459,9.457-4.414-4.413a.983.983,0,0,0-.729-.316.865.865,0,0,0-.69.316l-1.458,1.419a.95.95,0,0,0-.276.706.976.976,0,0,0,.276.713Z" id="el_1_xcWYutIDL"/></g><g id="el_VGf7Kd2nnNg"><path d="M264.862,37.256h6.8a5.59,5.59,0,0,0,5.588-5.588V5.588A5.59,5.59,0,0,0,271.665,0H245.587A5.591,5.591,0,0,0,240,5.588V31.667a5.591,5.591,0,0,0,5.588,5.588h6.807l6.232,9.791Z" id="el_UC3eXdRe5ul"/><path d="M271.739,0h.142l.075.007h.067l.075.007.067.007.075.007.067.007.075.007.067.007.067.007.074.015.067.007.067.015.067.015.067.015.067.015L273,.156l.067.015.06.022.067.015.067.022.067.015.067.022.067.022.06.022.067.022.067.022.06.03.067.022.06.03.06.022.067.03.06.03.06.03.06.03.067.03.052.03.067.03.052.037.06.03.06.037.06.03.06.037.052.037.06.037.052.037.06.037.052.037.06.037.052.045.052.037.052.045.052.037.052.045.052.045.052.045.052.045.045.045.052.045.052.045.045.045.045.052.052.045.045.045.045.052.045.052.045.045.045.052.045.052.045.052.045.052.037.052.045.052.037.052.037.052.045.06.037.052.037.052.037.06.037.06.037.052.037.06.03.06.037.052.03.06.037.06.03.06.03.06.03.067.03.06.03.06.03.06.03.06.022.067.03.06.022.067.022.06.03.067.022.067.022.06.022.067.015.067.022.067.022.067.015.06.015.067.022.067.015.067.015.075.015.067.015.067.007.067.015.067.015.067.007.074.007.067.007.075.007.067.007.067.007.074.007.075V5.3l.007.074V31.883l-.007.067v.074l-.007.067-.007.074-.007.067-.007.074-.007.067-.007.067-.007.075-.015.067-.015.067-.007.074-.015.067-.015.067-.015.067-.015.067-.022.067-.015.067-.015.067-.022.067-.022.067-.015.06-.022.067-.022.067-.022.06-.03.067-.022.067-.022.06-.03.067-.022.06-.03.06-.03.067-.03.06-.03.06-.03.06-.03.06-.03.06-.037.06-.03.06-.037.06-.03.052-.037.06-.037.06-.037.052-.037.06-.037.052-.037.06-.045.052-.037.052-.037.052-.045.06-.037.052-.045.052-.045.052-.045.045-.045.052-.045.052-.045.045-.045.052-.045.045-.052.052-.045.045-.045.052-.052.045-.052.045-.045.045-.052.045-.052.045-.052.037-.052.045-.052.045-.052.037-.052.045-.052.037-.06.037-.052.037-.06.045-.052.03-.06.037-.052.037-.06.037-.06.037-.06.03-.052.037-.06.03-.067.03-.052.037-.067.03-.06.03-.06.03-.06.022-.067.03-.06.03-.06.022-.067.03-.06.022-.067.022-.067.022-.06.022-.067.022-.067.022-.067.022-.067.015-.067.022-.06.015-.067.015-.074.015-.067.015-.067.015-.067.015-.067.015-.067.015-.074.007-.067.007-.067.015-.075.007-.067.007-.075.007-.067.007h-.075l-.067.007h-.149l-.067.007h-6.877l-6.237,9.791-6.232-9.791h-6.879l-.072-.007H245.3l-.072-.007h-.071l-.071-.007-.071-.007-.07-.007-.07-.007-.07-.015-.069-.007-.069-.007-.069-.015-.069-.015-.068-.015-.069-.015-.068-.015-.067-.015-.067-.015-.067-.015-.066-.022-.066-.015L243.926,37l-.066-.022-.065-.022-.065-.022-.064-.022-.064-.022-.064-.022-.063-.03-.063-.022-.063-.03-.062-.03-.062-.022-.061-.03-.061-.03-.06-.03-.06-.037-.06-.03-.06-.03-.059-.037-.058-.03-.057-.037-.057-.037-.057-.037-.057-.037-.056-.03-.055-.045-.055-.037-.054-.037-.054-.037-.054-.045-.053-.037-.052-.045-.052-.045-.051-.037-.051-.045-.05-.045-.05-.045-.05-.045-.048-.045-.048-.052-.048-.045-.047-.052-.047-.045-.045-.052-.045-.045-.045-.052-.045-.052-.043-.045-.043-.052-.042-.052-.042-.052-.041-.06-.041-.052-.039-.052-.04-.052-.039-.06-.038-.052-.037-.06-.037-.052-.037-.06-.035-.06-.035-.052-.034-.06-.034-.06-.033-.06-.032-.06-.031-.06-.031-.06-.03-.06-.029-.06-.028-.067-.028-.06-.027-.06-.026-.067-.025-.06-.025-.067-.024-.067-.023-.06-.022-.067-.022-.067-.021-.06-.02-.067-.019-.067-.019-.067-.017-.067-.017-.067-.016-.067-.016-.067-.014-.067-.013-.067-.013-.074-.012-.067-.011-.067-.01-.075-.009-.067-.009-.067-.007-.074-.007-.067-.006-.074,0-.067,0-.074,0-.067,0-.074,0-.074V5.514l0-.075,0-.067,0-.074,0-.067,0-.075.006-.074.007-.067.007-.067.009-.075.009-.067.01-.074.011-.067.012-.067.013-.067.013-.067.014-.067.016-.075.016-.067.017-.067.017-.067.019-.06.019-.067.02-.067.021-.067.022-.067.022-.06.023-.067.024-.067.025-.06.025-.067.026-.06.027-.067.028-.06.028-.06.029-.06.03-.06.031-.067.031-.06.032-.06.033-.06.034-.06.034-.052.035-.06.035-.06.037-.052.037-.06.037-.06.038-.052.039-.052.04-.06.039-.052.041-.052.041-.052.042-.052.042-.052.043-.052.043-.052.045-.052.045-.045.045-.052.045-.052.047-.045.047-.045.048-.052.048-.045.048-.045.05-.045.05-.045.05-.045.051-.045.051-.045.052-.045.052-.037.053-.045.054-.037.054-.045.054-.037.055-.037.055-.037.056-.037.057-.037.057-.037L242.69.8l.057-.03.058-.037.059-.03.06-.037.06-.03.06-.03.06-.03.061-.03.061-.03.062-.03.062-.03.063-.022.063-.03.063-.022.064-.03.064-.022.064-.022L243.8.291l.065-.022.066-.022.066-.015.066-.022.066-.015.067-.022.067-.015.067-.015.068-.015.069-.015L244.529.1,244.6.082l.069-.007.069-.015.069-.007.07-.007.07-.007.07-.007.071-.007.071-.007.071-.007h.072L245.371,0h26.368ZM245.6,3.726h-.164l-.02.007h-.05l-.022.007h-.022l-.022.007h-.025l-.025.007h-.024l-.02.007h-.023l-.023.007-.019.007h-.022l-.025.007-.022.007-.021.007-.021.007-.019.007-.024.007-.023.007-.019.007-.019.007-.025.007-.021.007-.018.007-.021.007-.02.015-.02.007-.023.007-.019.007-.019.015-.019.007-.022.015-.021.007-.017.007-.021.015-.017.007L244.608,4l-.022.015-.019.015-.016.007-.018.015-.021.015-.02.015-.017.007-.017.015-.016.015-.019.015-.019.015-.018.015-.017.015-.016.007-.017.022-.016.015-.018.015-.016.015-.016.015-.017.015-.015.015-.015.015-.016.022-.014.015-.015.015-.016.022-.013.015-.013.015-.016.022-.016.015-.011.015-.013.022-.015.022-.012.015-.013.015-.014.022-.01.015L244,4.6l-.013.022-.01.015-.012.022-.011.015-.011.022-.011.022-.01.015-.01.022-.01.022-.01.022-.009.015-.008.022-.01.022-.009.022-.008.015-.008.022-.008.022-.007.022-.007.022-.007.015-.007.022-.007.022-.006.022-.007.022-.005.022-.006.022-.005.022-.005.022,0,.022,0,.022,0,.022,0,.022,0,.022,0,.022,0,.022,0,.03,0,.022,0,.022,0,.022,0,.022,0,.022,0,.03V31.742l0,.022,0,.022,0,.022,0,.03,0,.022,0,.022,0,.022,0,.022,0,.022,0,.022,0,.022,0,.03,0,.015,0,.022.005.022.005.022.006.022.005.022.007.022.006.022.007.022.007.022.007.022.007.022.007.015.008.022.008.022.008.022.008.022.009.015.01.022.01.022.01.022.009.015.01.022.01.022.012.015.01.022.011.015.012.022.01.022.012.015.012.022.013.015.013.022.012.022.013.015.012.015.015.022.014.015.013.022.014.015.014.015.014.022.014.015.017.022.014.015.013.015.019.015.015.015.016.015.016.015.016.015.018.022.017.015.015.015.017.015.019.015.016.015.019.015.019.015.014.007.019.015.019.015.018.015.021.015.018.007.016.015.019.007.022.015.017.015.019.007.021.015.017.007.021.015.022.007.019.015.019.007.022.007.019.015.02.007.02.007.017.007.022.007.025.015.022.007.019.007.019.007.023.007.019.007.024.007.025.007h.017l.022.007.022.007.022.007h.026l.023.007.019.007h.02l.024.007h.025l.021.007h.026l.022.007h.049l.023.007h.094l.022.007h8.9l4.187,6.579,4.188-6.579h8.9l.022-.007h.1l.022-.007h.045l.022-.007h.03l.022-.007H272l.022-.007h.022l.022-.007.022-.007h.022l.022-.007.022-.007.022-.007h.015l.022-.007.03-.007.015-.007.022-.007.022-.007.015-.007.022-.007.03-.015.015-.007.022-.007.015-.007.022-.007.022-.015.022-.007.015-.007.022-.015.022-.007.022-.015.015-.007.022-.015.015-.007.022-.015.015-.015.022-.007.015-.015.022-.007.015-.015.022-.015.015-.015.022-.015.015-.007.015-.015.022-.015.015-.015.022-.015.015-.015.015-.015.015-.015.015-.022.022-.015.015-.015.015-.015.015-.015.015-.015.015-.015.015-.022.015-.015.015-.015.015-.022.015-.015.015-.015.015-.022.015-.015.015-.022.007-.015.015-.015.015-.022.007-.022.015-.015.015-.022.007-.015.015-.022.007-.015.015-.022.007-.022.015-.015.007-.022.007-.022.015-.015.007-.022.007-.022.007-.022.015-.022.007-.015.007-.022.007-.022.007-.022.007-.015.007-.022.007-.022.007-.022.007-.022.007-.022.007-.022v-.022l.007-.022.007-.022v-.022l.007-.022.007-.022V32l.007-.022V31.95l.007-.022v-.045l.007-.022v-.052l.007-.022V5.462l-.007-.022V5.395l-.007-.03V5.32l-.007-.022V5.275l-.007-.022V5.231l-.007-.022-.007-.022V5.164l-.007-.022-.007-.022V5.1l-.007-.022-.007-.022-.007-.022-.007-.022-.007-.015-.007-.022-.007-.022-.007-.022L273.4,4.9l-.007-.015-.007-.022-.015-.022-.007-.022-.007-.015-.007-.022-.015-.022-.007-.022-.007-.015L273.3,4.7l-.007-.022-.015-.015-.007-.022-.015-.015-.007-.022-.015-.022-.007-.015-.015-.015L273.2,4.53l-.015-.022-.015-.015-.007-.015-.015-.022-.015-.015-.015-.022L273.1,4.4l-.007-.015-.022-.022-.015-.015-.015-.015-.015-.015-.015-.022L273,4.284l-.015-.015-.015-.015-.015-.015-.022-.015-.015-.015-.015-.022-.015-.007-.022-.015-.015-.015-.022-.015-.015-.015-.015-.015-.022-.015-.015-.007-.022-.015-.015-.015-.022-.015-.015-.007-.015-.015L272.648,4l-.022-.015-.015-.007-.022-.015-.022-.007-.015-.007-.022-.015-.022-.007-.015-.015L272.47,3.9l-.022-.007-.015-.007-.022-.015-.022-.007-.015-.007-.022-.007-.03-.007-.015-.007-.022-.007-.022-.007-.022-.007-.022-.007L272.2,3.8l-.022-.007-.022-.007-.022-.007h-.03l-.015-.007-.022-.007h-.022l-.022-.007H272l-.022-.007h-.03l-.022-.007H271.9l-.015-.007h-.052l-.022-.007H245.6Z" id="el_sFcjAu1B4E8"/><path d="M261.267,18.183l3.941,3.942a1.176,1.176,0,0,1,.355.868,1.326,1.326,0,0,1-.355.908l-.867.861a1.291,1.291,0,0,1-.906.356,1.159,1.159,0,0,1-.867-.356l-3.942-3.935-3.941,3.935a1.16,1.16,0,0,1-.867.356,1.293,1.293,0,0,1-.907-.356l-.867-.861a1.329,1.329,0,0,1-.354-.908,1.177,1.177,0,0,1,.354-.868l3.941-3.942-3.941-3.942a1.178,1.178,0,0,1-.354-.868,1.318,1.318,0,0,1,.354-.908l.867-.868a1.317,1.317,0,0,1,.907-.35,1.18,1.18,0,0,1,.867.35l3.941,3.942,3.942-3.942a1.179,1.179,0,0,1,.867-.35,1.316,1.316,0,0,1,.906.35l.867.868a1.316,1.316,0,0,1,.355.908,1.176,1.176,0,0,1-.355.868Z" id="el_hnpn1kRA1B_"/></g><g id="el_LE3rT_YOdEZ" data-name="Left yes"><path d="M66.406,83.2h6.8A5.59,5.59,0,0,0,78.8,77.613V51.534a5.59,5.59,0,0,0-5.588-5.588H47.13a5.591,5.591,0,0,0-5.588,5.588V77.613A5.591,5.591,0,0,0,47.13,83.2h6.807l6.232,9.791Z" id="el_Cdl6oOY1dSN"/><path d="M73.283,45.945h.142l.075.007h.067l.075.007.067.007.075.007.067.007.075.007.067.007.067.007.074.015.067.007.067.015.067.015.067.015.067.015.074.015.067.015.06.022.067.015.067.022.067.015.067.022.067.022.06.022.067.022.067.022.06.03.067.022.06.03.06.022.067.03.06.03.06.03.06.03.067.03.052.03.067.03.052.037.06.03.06.037.06.03.06.037.052.037.06.037.052.037.06.037.052.037.06.037.052.045.052.037.052.045.052.037.052.045.052.045.052.045.052.045.045.045.052.045.052.045.045.045.045.052.052.045.045.045.045.052.045.052.045.045.045.052.045.052.045.052.045.052.037.052.045.052.037.052.037.052.045.06.037.052.037.052.037.06.037.06.037.052.037.06.03.06.037.052.03.06.037.06.03.06.03.06.03.067.03.06.03.06.03.06.03.06.022.067.03.06.022.067.022.06.03.067.022.067.022.06.022.067.015.067.022.067.022.067.015.06.015.067.022.067.015.067.015.075.015.067.015.067.007.067.015.067.015.067.007.074.007.067.007.075.007.067.007.067.007.074.007.075v.067l.007.074V77.829l-.007.067v.074l-.007.067-.007.074-.007.067-.007.074-.007.067-.007.067-.007.075-.015.067-.015.067-.007.074-.015.067-.015.067-.015.067-.015.067-.022.067-.015.067-.015.067-.022.067-.022.067-.015.06-.022.067-.022.067-.022.06-.03.067-.022.067-.022.06-.03.067-.022.06-.03.06-.03.067-.03.06-.03.06-.03.06-.03.06-.03.06-.037.06-.03.06-.037.06-.03.052-.037.06-.037.06-.037.052-.037.06-.037.052-.037.06-.045.052-.037.052L77.649,81l-.045.06-.037.052-.045.052-.045.052-.045.045-.045.052-.045.052-.045.045-.045.052-.045.045-.052.052-.045.045-.045.052-.052.045-.052.045-.045.045-.052.045-.052.045-.052.037-.052.045-.052.045-.052.037-.052.045-.052.037-.06.037-.052.037-.06.045-.052.03-.06.037-.052.037-.06.037-.06.037-.06.03-.052.037-.06.03-.067.03-.052.037-.067.03-.06.03-.06.03-.06.022-.067.03-.06.03-.06.022-.067.03-.06.022-.067.022-.067.022L75,82.9l-.067.022-.067.022-.067.022-.067.015-.067.022-.06.015-.067.015-.074.015-.067.015-.067.015-.067.015-.067.015-.067.015-.074.007-.067.007-.067.015-.075.007-.067.007-.075.007-.067.007h-.075l-.067.007H73.35l-.067.007H66.406l-6.237,9.791L53.937,83.2H47.058l-.072-.007h-.143l-.072-.007H46.7l-.071-.007-.071-.007-.07-.007-.07-.007-.07-.015-.069-.007-.069-.007-.069-.015-.069-.015-.068-.015-.069-.015-.068-.015-.067-.015-.067-.015-.067-.015-.066-.022-.066-.015-.066-.022-.066-.022-.065-.022-.065-.022-.064-.022-.064-.022-.064-.022-.063-.03-.063-.022-.063-.03-.062-.03-.062-.022-.061-.03-.061-.03-.06-.03-.06-.037-.06-.03-.06-.03-.059-.037-.058-.03-.057-.037-.057-.037-.057-.037-.057-.037-.056-.03-.055-.045-.055-.037-.054-.037-.054-.037-.054-.045-.053-.037-.052-.045-.052-.045-.051-.037-.051-.045-.05-.045-.05-.045-.05-.045-.048-.045-.048-.052-.048-.045-.047-.052-.047-.045-.045-.052-.045-.045-.045-.052-.045-.052-.043-.045-.043-.052-.042-.052-.042-.052L42.694,81l-.041-.052-.039-.052-.04-.052-.039-.06-.038-.052-.037-.06-.037-.052-.037-.06-.035-.06-.035-.052-.034-.06-.034-.06-.033-.06-.032-.06-.031-.06-.031-.06-.03-.06-.029-.06-.028-.067-.028-.06-.027-.06-.026-.067-.025-.06-.025-.067-.024-.067-.023-.06-.022-.067-.022-.067-.021-.06-.02-.067-.019-.067-.019-.067-.017-.067-.017-.067-.016-.067L41.67,78.8l-.014-.067-.013-.067L41.63,78.6l-.012-.067-.011-.067-.01-.075-.009-.067-.009-.067-.007-.074-.007-.067-.006-.074,0-.067,0-.074,0-.067,0-.074,0-.074V51.459l0-.075,0-.067,0-.074,0-.067,0-.075.006-.074.007-.067.007-.067.009-.075.009-.067.01-.074.011-.067.012-.067.013-.067.013-.067.014-.067.016-.075L41.7,50.2l.017-.067.017-.067.019-.06.019-.067.02-.067.021-.067.022-.067.022-.06.023-.067.024-.067.025-.06.025-.067.026-.06.027-.067.028-.06.028-.06.029-.06.03-.06.031-.067.031-.06.032-.06.033-.06.034-.06.034-.052.035-.06.035-.06.037-.052.037-.06.037-.06.038-.052.039-.052.04-.06.039-.052.041-.052.041-.052.042-.052.042-.052.043-.052.043-.052.045-.052.045-.045.045-.052.045-.052.047-.045.047-.045.048-.052.048-.045.048-.045.05-.045.05-.045.05-.045.051-.045.051-.045.052-.045.052-.037.053-.045.054-.037.054-.045.054-.037.055-.037.055-.037.056-.037.057-.037.057-.037.057-.037.057-.03.058-.037.059-.03.06-.037.06-.03.06-.03.06-.03.061-.03.061-.03.062-.03.062-.03.063-.022.063-.03.063-.022.064-.03.064-.022.064-.022.065-.022.065-.022.066-.022.066-.015.066-.022.066-.015.067-.022L45.8,46.1l.067-.015.068-.015.069-.015.068-.015.069-.015.069-.007L46.28,46,46.349,46l.07-.007.07-.007.07-.007.071-.007.071-.007.071-.007h.072l.072-.007H73.283ZM47.142,49.671h-.156l-.024.007h-.05l-.022.007h-.026l-.022.007h-.021L46.8,49.7h-.024l-.024.007h-.023l-.023.007-.019.007h-.022l-.025.007-.022.007-.021.007-.021.007-.019.007-.024.007-.023.007-.019.007-.022.007-.022.007-.018.007-.021.007-.021.007-.02.015-.02.007-.023.007-.019.007-.019.015-.022.007-.019.015-.018.007-.02.007-.021.015-.02.015-.019.007-.016.015-.019.007-.022.015L46.074,50l-.016.007-.02.015-.019.015L46,50.051l-.019.015-.016.015-.019.015-.018.015-.015.007-.018.015-.017.022-.018.015-.016.015-.014.015-.017.015-.017.015-.015.015-.015.015-.016.022-.016.015-.013.015-.015.022-.015.015-.014.015-.014.022-.014.015-.013.015-.013.022-.015.022-.013.015-.012.015-.013.022-.013.022-.011.015-.012.022-.013.015-.01.022-.011.015-.011.022-.01.022-.011.015-.01.022-.01.022-.01.022-.01.022-.008.015-.009.022-.009.015-.008.022-.008.022-.008.022-.007.022-.007.022-.007.015-.007.022L45.344,51l-.006.022-.007.022-.005.022-.006.022-.005.022-.005.022,0,.022,0,.022,0,.022,0,.022,0,.022,0,.022,0,.022,0,.03,0,.022,0,.022,0,.022,0,.022,0,.022,0,.03V77.687l0,.022,0,.022,0,.022,0,.03,0,.022,0,.022,0,.022,0,.022,0,.022,0,.022,0,.022,0,.03,0,.015,0,.022.005.022.005.022.006.022.005.022.006.022.007.022.007.022.007.022.007.022.007.022.007.015.008.022.007.022.01.022.008.022.008.015.01.022.009.022.01.015.01.022.011.022.01.022.009.015.012.022.011.015.012.022.011.022.011.015.012.022.013.015.012.022.013.022.014.015.01.015.013.022.016.015.013.022.014.015.014.015.014.022.016.015.014.015.016.022.016.015.015.015.016.015.016.015.016.015.018.022.016.015.015.015.017.015.019.015.017.015.016.015.016.015.019.007.019.015.019.015.017.015.018.015.018.007.018.015.022.015.019.015.016.007.02.015.022.015.018.007.017.007.021.015.022.007.019.015.019.007.022.007.016.007.019.015.024.007.021.007.022.007.021.015.019.007.022.007.022.007.019.007.019.007h.021l.024.007.025.007.021.007.019.007.022.007h.026l.019.007.023.007h.024l.02.007h.025l.021.007h.026l.022.007h.049l.019.007h.1l.026.007h8.9l4.187,6.579,4.188-6.579h8.9l.022-.007h.1l.022-.007h.045l.022-.007h.03l.022-.007h.022l.022-.007h.022l.022-.007.022-.007h.022l.022-.007.022-.007.015-.007.03-.007.022-.007h.022l.015-.007.022-.007.022-.007.022-.007.015-.007.022-.015.022-.007.022-.007.022-.007L74,79.3l.015-.007.022-.007.015-.007.022-.015.022-.007.022-.015.015-.007.015-.007.022-.015.022-.015.015-.007.022-.015.022-.015.015-.015.015-.007.022-.015.015-.015.022-.015.015-.015.022-.015.015-.007.015-.015.015-.015.022-.015.015-.015.015-.015.015-.015.022-.022.015-.015.015-.015.015-.015.015-.015.015-.015.015-.022.015-.015.015-.015.015-.022.015-.015.015-.015.015-.022.015-.015.015-.022.007-.015.015-.015.015-.022.007-.022.015-.015.015-.022.007-.015.015-.022.007-.015.015-.022.007-.022.015-.015.007-.022.007-.022.015-.022.007-.015.007-.022.007-.022.015-.015.007-.022.007-.022.007-.022.007-.022.007-.015.007-.022.007-.022.007-.022L75,78.142,75,78.119l.007-.022v-.022l.007-.022.007-.022v-.022l.007-.022.007-.022V77.94l.007-.022V77.9l.007-.022v-.045l.007-.022v-.052l.007-.022V51.407l-.007-.022V51.34l-.007-.03v-.045l-.007-.022v-.022l-.007-.022v-.022l-.007-.022-.007-.022v-.022l-.007-.022-.007-.022v-.022L75,51.02,75,51l-.007-.022-.007-.022-.007-.015-.007-.022-.007-.022-.007-.022-.007-.022-.007-.022-.007-.015-.015-.022-.007-.022-.007-.015-.007-.022-.015-.022-.007-.022-.007-.015-.015-.022-.007-.022-.015-.015-.007-.022-.015-.015L74.8,50.55l-.015-.015-.015-.022-.007-.022-.015-.015-.015-.022-.015-.015-.007-.015-.015-.022-.015-.015-.015-.022-.015-.015-.015-.015-.015-.022L74.6,50.3l-.015-.015-.015-.015-.015-.022-.015-.015-.015-.015L74.5,50.2l-.007-.015-.022-.015-.015-.015-.015-.022-.022-.015-.015-.007-.015-.015-.022-.015-.015-.015-.015-.015-.022-.015-.015-.015-.022-.015L74.266,50l-.015-.015-.022-.015-.022-.007-.015-.015-.022-.007-.015-.015-.022-.015L74.11,49.9l-.015-.007-.022-.015-.022-.007-.015-.015-.022-.007-.022-.007-.015-.007-.022-.015-.022-.007-.022-.007-.015-.007-.022-.007-.022-.007-.022-.007-.022-.007-.022-.007-.022-.007-.015-.007-.022-.007-.022-.007-.022-.007h-.03l-.015-.007-.022-.007h-.022l-.022-.007h-.03l-.015-.007H73.5l-.022-.007h-.03l-.015-.007H73.38l-.022-.007H47.142Z" id="el_bq81YToOQnb"/><path d="M56.938,71.339a.955.955,0,0,0,1.419,0L69.984,59.756a.976.976,0,0,0,.276-.713.95.95,0,0,0-.276-.706l-1.458-1.419a.864.864,0,0,0-.69-.316.983.983,0,0,0-.729.316l-9.459,9.457-4.414-4.413a.983.983,0,0,0-.729-.316.864.864,0,0,0-.69.316l-1.458,1.419a.95.95,0,0,0-.276.706.976.976,0,0,0,.276.713Z" id="el_XcJdQzBLUVA"/></g></g></g></svg>